/* XPM */
static char * panzer_gelb_0002_xpm[] = {
"29 29 11 1",
" 	c None",
".	c #000000",
"+	c #FFFF00",
"@	c #8D8F00",
"#	c #A0A000",
"$	c #373700",
"%	c #060600",
"&	c #0C0C00",
"*	c #E2E200",
"=	c #F9F900",
"-	c #8D8D8D",
"                    ...++++++",
"                    ...++++++",
"                    ...++++++",
"                    ...++++++",
"                             ",
"                             ",
" ++@++@++@++@++@++@++@++     ",
" ++@++@++@++@++@++@++@++     ",
" ++@++@++@+#$%$#++@++@++     ",
" ++@++@++@&.....&+@++@++     ",
" +++++++*&.......&*+++++     ",
"   ++++=&.........&=+++      ",
"   ++++#...........#++       ",
"-- ++++$.................... ",
"   ++++%...........%++++++++ ",
"   ++++$.................... ",
"   ++++#...........#++       ",
"   ++++=&.........&=+++      ",
" +++++++*&.......&*+++++     ",
" ++@++@++@&.....&+@++@++     ",
" ++@++@++@+#$%$#++@++@++     ",
" ++@++@++@++@++@++@++@++     ",
" ++@++@++@++@++@++@++@++     ",
"                             ",
"                             ",
"                             ",
"                             ",
"                             ",
"                             "};
