/* XPM */
static char * panzer_gelb_0000_xpm[] = {
"29 29 17 1",
" 	c None",
".	c #FFFF00",
"+	c #000000",
"@	c #8D8F00",
"#	c #A0A000",
"$	c #373700",
"%	c #060600",
"&	c #E2E200",
"*	c #0C0C00",
"=	c #F9F900",
"-	c #F4F40D",
";	c #FDFD01",
">	c #8D8D8D",
",	c #D2D236",
"'	c #F8F807",
")	c #EBEB18",
"!	c #FCFC02",
"                    ......+++",
"                    ......+++",
"                    ......+++",
"                    ......+++",
"                             ",
"                             ",
" @..@..@..@..@..@..@..@.     ",
" @..@..@..@..@..@..@..@.     ",
" @..@..@..@#$%$#@..@..@.     ",
" @..@..@.&*+++++*&.@..@.     ",
" .......&*+++++++*&.....     ",
"   ....=*+++++++++*=...      ",
"   ....#+++++++++++#..       ",
"   -;..$++++++++++++++++++++ ",
"  >,'..%+++++++++++%........ ",
"   )!..$++++++++++++++++++++ ",
"   !...#+++++++++++#..       ",
"   ....=*+++++++++*=...      ",
" .......&*+++++++*&.....     ",
" @..@..@.&*+++++*&.@..@.     ",
" @..@..@..@#$%$#@..@..@.     ",
" @..@..@..@..@..@..@..@.     ",
" @..@..@..@..@..@..@..@.     ",
"                             ",
"                             ",
"                             ",
"                             ",
"                             ",
"                             "};
