/* XPM */
static char * panzer_gelb_0001_xpm[] = {
"29 29 19 1",
" 	c None",
".	c #FFFF00",
"+	c #000000",
"@	c #8D8F00",
"#	c #A0A000",
"$	c #373700",
"%	c #060600",
"&	c #E2E200",
"*	c #0C0C00",
"=	c #F9F900",
"-	c #F4F40D",
";	c #FDFD01",
">	c #8D8D8D",
",	c #D0D038",
"'	c #F8F807",
")	c #DEDE27",
"!	c #FCFC02",
"~	c #F5F509",
"{	c #FEFE01",
"                    ...+++...",
"                    ...+++...",
"                    ...+++...",
"                    ...+++...",
"                             ",
"                             ",
" .@..@..@..@..@..@..@..@     ",
" .@..@..@..@..@..@..@..@     ",
" .@..@..@..#$%$#.@..@..@     ",
" .@..@..@&*+++++*@..@..@     ",
" .......&*+++++++*&.....     ",
"   ....=*+++++++++*=...      ",
"   ....#+++++++++++#..       ",
"   -;..$++++++++++++++++++++ ",
"  >,'..%+++++++++++%........ ",
" >>)!..$++++++++++++++++++++ ",
"   ~...#+++++++++++#..       ",
"   {...=*+++++++++*=...      ",
" .......&*+++++++*&.....     ",
" .@..@..@&*+++++*@..@..@     ",
" .@..@..@..#$%$#.@..@..@     ",
" .@..@..@..@..@..@..@..@     ",
" .@..@..@..@..@..@..@..@     ",
"                             ",
"                             ",
"                             ",
"                             ",
"                             ",
"                             "};
