/* XPM */
static char * favicon_xpm[] = {
"64 64 276 2",
"  	c None",
". 	c #000000",
"+ 	c #010000",
"@ 	c #050000",
"# 	c #0C0000",
"$ 	c #030000",
"% 	c #040000",
"& 	c #060000",
"* 	c #180000",
"= 	c #340000",
"- 	c #520000",
"; 	c #6F0000",
"> 	c #780000",
", 	c #2B0000",
"' 	c #360000",
") 	c #620000",
"! 	c #7B0000",
"~ 	c #730000",
"{ 	c #670000",
"] 	c #5A0000",
"^ 	c #4E0000",
"/ 	c #490000",
"( 	c #590000",
"_ 	c #6B0000",
": 	c #400000",
"< 	c #1C0000",
"[ 	c #110000",
"} 	c #1F0000",
"| 	c #350000",
"1 	c #500000",
"2 	c #830000",
"3 	c #BA0000",
"4 	c #E20000",
"5 	c #E70000",
"6 	c #8C0000",
"7 	c #CD0000",
"8 	c #F50000",
"9 	c #EC0000",
"0 	c #DA0000",
"a 	c #C60000",
"b 	c #B50000",
"c 	c #AD0000",
"d 	c #A40000",
"e 	c #9A0000",
"f 	c #900000",
"g 	c #700000",
"h 	c #510000",
"i 	c #380000",
"j 	c #270000",
"k 	c #020000",
"l 	c #070000",
"m 	c #370000",
"n 	c #7C0000",
"o 	c #C20000",
"p 	c #F70000",
"q 	c #FD0000",
"r 	c #FF0000",
"s 	c #EA0000",
"t 	c #E90000",
"u 	c #F30000",
"v 	c #D40000",
"w 	c #9D0000",
"x 	c #6A0000",
"y 	c #750000",
"z 	c #AB0000",
"A 	c #C80000",
"B 	c #DE0000",
"C 	c #F00000",
"D 	c #FE0000",
"E 	c #FA0000",
"F 	c #FC0000",
"G 	c #F40000",
"H 	c #E60000",
"I 	c #CA0000",
"J 	c #A70000",
"K 	c #4B0000",
"L 	c #640000",
"M 	c #990000",
"N 	c #FB0000",
"O 	c #980000",
"P 	c #470000",
"Q 	c #B80000",
"R 	c #EB0000",
"S 	c #D70000",
"T 	c #DC0000",
"U 	c #F20000",
"V 	c #F80000",
"W 	c #330000",
"X 	c #5E0000",
"Y 	c #E10000",
"Z 	c #D20000",
"` 	c #7A0000",
" .	c #5F0000",
"..	c #710000",
"+.	c #A90000",
"@.	c #E00000",
"#.	c #C30000",
"$.	c #E50000",
"%.	c #F60000",
"&.	c #CF0000",
"*.	c #A80000",
"=.	c #C50000",
"-.	c #B60000",
";.	c #9E0000",
">.	c #4C0000",
",.	c #8D0000",
"'.	c #4A0000",
").	c #960000",
"!.	c #580000",
"~.	c #BF0000",
"{.	c #4F0000",
"].	c #480000",
"^.	c #3E0000",
"/.	c #A50000",
"(.	c #660000",
"_.	c #9B0000",
":.	c #B20000",
"<.	c #720000",
"[.	c #970000",
"}.	c #8E0000",
"|.	c #920000",
"1.	c #B40000",
"2.	c #850000",
"3.	c #790000",
"4.	c #A60000",
"5.	c #880000",
"6.	c #530000",
"7.	c #150000",
"8.	c #C40000",
"9.	c #890000",
"0.	c #C00000",
"a.	c #D50000",
"b.	c #EF0000",
"c.	c #B00000",
"d.	c #D30000",
"e.	c #BD0000",
"f.	c #2D0000",
"g.	c #460000",
"h.	c #740000",
"i.	c #940000",
"j.	c #800000",
"k.	c #AA0000",
"l.	c #A30000",
"m.	c #C70000",
"n.	c #770000",
"o.	c #570000",
"p.	c #AE0000",
"q.	c #F90000",
"r.	c #C90000",
"s.	c #420000",
"t.	c #7F0000",
"u.	c #CE0000",
"v.	c #FC0101",
"w.	c #FB0202",
"x.	c #EA0101",
"y.	c #ED0000",
"z.	c #100000",
"A.	c #EE0000",
"B.	c #C40A0A",
"C.	c #DC2626",
"D.	c #F63737",
"E.	c #F23434",
"F.	c #DA2020",
"G.	c #F10000",
"H.	c #6E0000",
"I.	c #9C0000",
"J.	c #1D0000",
"K.	c #120000",
"L.	c #0A0000",
"M.	c #262222",
"N.	c #8B8989",
"O.	c #E2DADA",
"P.	c #EAD0D0",
"Q.	c #B68080",
"R.	c #080000",
"S.	c #E30000",
"T.	c #8B0000",
"U.	c #320000",
"V.	c #140000",
"W.	c #0E0000",
"X.	c #0B0000",
"Y.	c #2A2929",
"Z.	c #A3A2A2",
"`.	c #E8E6E6",
" +	c #DAD3D3",
".+	c #8D8080",
"++	c #160000",
"@+	c #230000",
"#+	c #2A0000",
"$+	c #390000",
"%+	c #820000",
"&+	c #C10000",
"*+	c #310000",
"=+	c #3C0000",
"-+	c #2B2B2B",
";+	c #ACACAC",
">+	c #E8E8E8",
",+	c #C4C4C4",
"'+	c #696969",
")+	c #1A0000",
"!+	c #2C0000",
"~+	c #3A0000",
"{+	c #BB0000",
"]+	c #3B0000",
"^+	c #202020",
"/+	c #828282",
"(+	c #ADADAD",
"_+	c #888888",
":+	c #404040",
"<+	c #220000",
"[+	c #1B0000",
"}+	c #040404",
"|+	c #080808",
"1+	c #6C0000",
"2+	c #810000",
"3+	c #0F0000",
"4+	c #010101",
"5+	c #020202",
"6+	c #0A0202",
"7+	c #210000",
"8+	c #6D0000",
"9+	c #200000",
"0+	c #610000",
"a+	c #E40000",
"b+	c #B10000",
"c+	c #D80000",
"d+	c #680000",
"e+	c #CC0000",
"f+	c #AF0000",
"g+	c #8A0000",
"h+	c #950000",
"i+	c #240000",
"j+	c #250000",
"k+	c #690000",
"l+	c #440000",
"m+	c #300000",
"n+	c #7E0000",
"o+	c #5D0000",
"p+	c #090000",
"q+	c #3D0000",
"r+	c #1E0000",
"s+	c #600000",
"t+	c #2E0000",
"u+	c #B30000",
"v+	c #170000",
"w+	c #550000",
"x+	c #280000",
"y+	c #2F0000",
"z+	c #630000",
"A+	c #DB0000",
"B+	c #D60000",
"C+	c #910000",
"D+	c #870000",
"E+	c #760000",
"F+	c #0D0000",
"G+	c #260000",
"H+	c #A10000",
"I+	c #AC0000",
"J+	c #430000",
"K+	c #B90000",
"L+	c #D00000",
"M+	c #DF0000",
"N+	c #860000",
"O+	c #560000",
"P+	c #E80000",
"Q+	c #9F0000",
"R+	c #8F0000",
"S+	c #A00000",
"T+	c #650000",
"U+	c #DD0000",
"V+	c #D10000",
"W+	c #7D0000",
"X+	c #BC0000",
"Y+	c #5C0000",
"Z+	c #840000",
"`+	c #290000",
"                                                                                                              . .               ",
"                                                                                                              .                 ",
"                                                                                                                                ",
"                                                                                                            . .                 ",
"                                                                        .                                   . .                 ",
"                                                                      . . .                                                     ",
"                                                                . . . . .   .                                                   ",
"                                                              . . .           .                                                 ",
"                                    .                         . .             . .                                   . .         ",
"                                    .                         . .             . .                                   . . .       ",
"                                    .   . .                   . .             . .                             . .     . .       ",
"                                                              . .   .         . .                             . .   . . .       ",
"                                                            . . .   .         . .                             . . . . .         ",
"                      . .                                   . . .             .                               . . . .           ",
"                . . . . . .                                 . . .   .   . . .                                                   ",
"                                    .                       .       . . .                     .                                 ",
"                                    .                       . .     . .                       . .                               ",
"                                                            . . .                             .                                 ",
"                                    . . . .                 . . .                       . . .                                   ",
"                                                      . + @ # $ . + % + . . . .                             .     .             ",
". . . .                                         . & * = - ; > , ' ) ! ~ { ] ^ / ( > _ : < % .               . . .               ",
". . . .                                       [ } | 1 2 3 4 5 ! 6 7 8 9 0 a b c d e f g h i j               . .                 ",
". . .       .                           . k l m n o p q r r r 8 s t r r r r r r r r r r u v w x | [                             ",
"    . . . . .                         [ : y z A B C q D r r r q E E r r r r r r r r r r F G H 0 I J K                           ",
"    . . . . .                       } L M 7 C N r r r r r r r r r r r r r r r r r r r r r r r r q 4 O P                         ",
"                                    1 Q R G B S T t r r p C U V q r r r r r r u t 5 C N r r r r r E R ) |                       ",
"                                W X Y V p Z `  ...+.r r @.#.7 $.%.r r r r r r &.*.w =.C r r r r r r r -.;.                      ",
"                              >.,.7 V q =.` '.( >._ r H ).h !.y ~.r r r r 9 b _ {.].^.Q C r r r r r r 9 /.1                     ",
"                            (._.7 V r r :.<.[.+.}.|.r 1.2.3.O 4.v r r r r 9 :.e ).5.6.w 0 r r r r r r D 7 5.7.                  ",
"                            6 @.D r r r 8.d p q H 0 r ,.9.0.D F q r r r r G a.b.F R c.+.d.r r r r r r r %.e.f.                  ",
"                        g.h.D r r r r r D q r r r r r i.j.k.F D r r r r r r r r r r r 5 b.r r r r r r r r T y                   ",
"                        2.l.r r r r r r r D r r r r r m.n.o.p.R r r r r r r r r r r r q.N r r r r r r r r U r.s.                ",
"                        t.u.r r r r r r r r r r D v.w.x.1.f Q y.r r r r r r r r r r r r r r r r r r r r r F U { i               ",
"                      z.n A.r r V t d.&.7 I a 8.0.B.C.D.E.F.3 a.4 t G.V q r r r r r r r r r r r r r r r r r r /.H.        .     ",
"                      i I.r r r 4 J ^ : ' , J.K.L.M.N.O.P.Q.o.g 6 *.m.$.%.D r r r r r r r r r r r r r r r r r H <.R.          . ",
"          .           H.-.r r S.T.U.V.z.W.X.l @ k Y.Z.`. +.+++< @+#+U.$+>.(.%+[.&+R r r r r r r r r r r r r r q.i.*+            ",
"                      d Z E y.f =+@ . . . . . . . -+;+>+,+'+. . . . . . L.)+!+~+( 2.{+R q r r r r r r r r r r r e =             ",
"                      A s b.~.]+R.. . . . . . . . ^+/+(+_+:+. . . . . . . . . . % < ( 4.S u r r r r r r r r r D f <+            ",
"    . . .           j r.r 0 _ [+. . . . . . . . . . . }+|+|+. . . . . . . . . . . . . V.1+u.r r r r r r r r r E 2+L.            ",
"                    K Z r u.=+3+. . . . . . . . . . . 4+5+6+7+<.6 8+K.% . . . . . . . @ 9+0+S 8 r r r r r r r a+b+              ",
"                    0+c+%.Q * & . . . . . . . . . . . . . [ s.{ I.p.d+)+. . . . . . . . $ 7+..&.%.r r r r r r e+3               ",
"                    h.T a+O k . . . . . . . . . . . . . . ++( $+n.{+f+!+. . . . . . . . . % K.g+c+D r r r r r c.h+              ",
"                . i+}.S.m._ . . . . . . . . . . . . . . . ++!.s.) 6 i.j+. . . . . . . . . . . i+).F r r r r r }.k+              ",
"                . j I.H c l+. . . . . . . . . . . . . . . # m+n+H.o+k.#+. . . . . . . . . . . p+8+0 r r r r r ! {.              ",
"                . , z s *.q+. . . . . . . . . . . R.r+l . % [ s+k+ .y J.. . . . . . . . . . . . / c r r r r r (.W               ",
"                . t+Q y.u+^ . . . . . . . . . . . v+!.* k . . <+].w+, X.. . . . . . . . . . . . x+! D r r D E h *               ",
"                . m+0.b.I g . . . . . . . . . . . !+c = & . . . . . . . . . . . . . . . . . . . p+>.E D r E 9 ]+.               ",
"                . = &.u Y |.. . . . . . . . . . . v+o+T.(.x+# < K.+ . . . . . . . . . . . . . . k ~+0 %.r U I                   ",
"                . m+o C U p.R.k . . . . . . . . . R.7+k+h.{ L d+]+L.. . . . . . . . . . . . . . l l+H q.r t *.                  ",
"                  y+e H q =.9+R.. . . . . . . . . . . } '.~ T.j.P W.. . . . . . . . . . . . . . * z+D r D A+h.                  ",
"                    ( B+r d.{.V.. . . . . . . . . . . . . . . . . . . . . . . . . . . . . . . . ' C+r r E 0.r+                  ",
"                    i+=.q Y D+i+k . . . . . . . . . . . . . . . . . . . . . . . . . . . . . . . !.8.r r 7 E+R.                  ",
"                    K.Q t U e+9.( *+R.k . . . . . . . . . . . . . . . . . . . . . . . . . . . # 3.t r t |.i .                   ",
"                      e e+r r A.#.9.'.*+[+F+# z.v+J.9+G+, G+[ % . . . . . . . . . . . . . . + = H+q.A.I+( l                     ",
"                      s+f+D r r r q %.-.1+' U.s.] <.j.O I+e J+[ . . . . . . . . . . . . . + % T.T A.K+' X.                      ",
"                        9.p.D r r D q y.0 7 e+L+B+T M+$.s H &.N+q+L.. . . . . . . . . . $ j+N+d.S w *+                          ",
"                        i O+p.P+q r r r r r r r r r r r r r D B+Q+(.i v+& . . . . . . p+U.3.c+&.|.>.%                           ",
"                          ++P I+$.q r r r r r r r r r r r r r r G.&.i.) ^.i+K.K.[+x+= '.5.A 4 R+J+$                             ",
"                            . ~+H+V r r r r r r r r r r r r r r r r r q L+}./ P 1+S+7 U D 4 6 j+$                               ",
"                                T+n+-.U+8 r r r r r r r r r r r r r r D u S.Z V+0 5 U N 7 W+@+                                  ",
"                                  l+^ k+2 ;.X+v 9 D r r r r r r r r r r r r r r r r D a > = .                                   ",
"                                    . . [ i Y+t.4.=.Z Y P+s P+a+4 @.U+A+T T T 0 S d.e+H.f..                                     ",
"                                      . .   . . R.r+/ D+d +.H+i.6 Z+n.g <.h...x s+1 ' W..                                       ",
"                                    .                 #+`+#+x+j+i           < [+G+                                              "};
