/* XPM */
static char * bearbeiten_ausfuehren_mini_xpm[] = {
"32 32 277 2",
"  	c None",
". 	c #FFB700",
"+ 	c #FFB600",
"@ 	c #383E49",
"# 	c #4A4F58",
"$ 	c #6E7177",
"% 	c #7F8287",
"& 	c #787B81",
"* 	c #474C56",
"= 	c #4A4E58",
"- 	c #87888C",
"; 	c #AEAEAE",
"> 	c #B3B3B3",
", 	c #B7B7B7",
"' 	c #BABABA",
") 	c #B5B5B6",
"! 	c #4C515B",
"~ 	c #52575F",
"{ 	c #9D9D9E",
"] 	c #A7A7A8",
"^ 	c #818488",
"/ 	c #82858B",
"( 	c #7B7F86",
"_ 	c #86888C",
": 	c #BBBBBB",
"< 	c #8B8D92",
"[ 	c #3A404A",
"} 	c #6B6D73",
"| 	c #6F7277",
"1 	c #898A8D",
"2 	c #6F7279",
"3 	c #C8C9CC",
"4 	c #EDEDEE",
"5 	c #E5E6E8",
"6 	c #80848B",
"7 	c #B2B2B2",
"8 	c #A6A7A9",
"9 	c #383E4A",
"0 	c #6F7176",
"a 	c #959595",
"b 	c #999999",
"c 	c #72757B",
"d 	c #E8E9EA",
"e 	c #FFFFFF",
"f 	c #E1E2E4",
"g 	c #E3E4E5",
"h 	c #A3A6AB",
"i 	c #ACACAD",
"j 	c #63666B",
"k 	c #8E8E8E",
"l 	c #929292",
"m 	c #88898A",
"n 	c #9C9FA4",
"o 	c #E6E6E8",
"p 	c #E3E4E6",
"q 	c #F6F7F7",
"r 	c #EAEAEB",
"s 	c #85888E",
"t 	c #B0B0B0",
"u 	c #959799",
"v 	c #4F535A",
"w 	c #868686",
"x 	c #8A8A8A",
"y 	c #6C6E73",
"z 	c #DADBDD",
"A 	c #EBECED",
"B 	c #DBDCDE",
"C 	c #C2C3C7",
"D 	c #7B7E82",
"E 	c #ADADAD",
"F 	c #797C81",
"G 	c #3D434D",
"H 	c #66686C",
"I 	c #727375",
"J 	c #797A7C",
"K 	c #6C6F73",
"L 	c #AAACB1",
"M 	c #F2F3F4",
"N 	c #FAFAFA",
"O 	c #ACAEB3",
"P 	c #848689",
"Q 	c #9C9C9D",
"R 	c #949597",
"S 	c #5D6065",
"T 	c #5F6266",
"U 	c #7F7F7F",
"V 	c #7E7F7F",
"W 	c #737477",
"X 	c #7B7C7E",
"Y 	c #5C6067",
"Z 	c #7F8389",
"` 	c #76797F",
" .	c #88898B",
"..	c #9E9E9E",
"+.	c #87888B",
"@.	c #7E8084",
"#.	c #3E444E",
"$.	c #737373",
"%.	c #787878",
"&.	c #7B7B7B",
"*.	c #828282",
"=.	c #696B6F",
"-.	c #78797C",
";.	c #8F8F8F",
">.	c #939393",
",.	c #969696",
"'.	c #9A9A9A",
").	c #8F9091",
"!.	c #5A5E66",
"~.	c #4D5158",
"{.	c #696A6B",
"].	c #747474",
"^.	c #7C7C7C",
"/.	c #757678",
"(.	c #838384",
"_.	c #76787A",
":.	c #979797",
"<.	c #848588",
"[.	c #393F4A",
"}.	c #56585D",
"|.	c #606264",
"1.	c #636467",
"2.	c #696A6C",
"3.	c #808080",
"4.	c #848484",
"5.	c #828283",
"6.	c #7A7B7E",
"7.	c #909090",
"8.	c #909091",
"9.	c #474D56",
"0.	c #717479",
"a.	c #808183",
"b.	c #606265",
"c.	c #515459",
"d.	c #636364",
"e.	c #686969",
"f.	c #6D6D6D",
"g.	c #646669",
"h.	c #77787A",
"i.	c #64676C",
"j.	c #838485",
"k.	c #5A5E65",
"l.	c #FEB700",
"m.	c #535861",
"n.	c #A5A5A6",
"o.	c #888888",
"p.	c #767676",
"q.	c #5A5C5F",
"r.	c #626262",
"s.	c #656565",
"t.	c #696969",
"u.	c #606164",
"v.	c #707070",
"w.	c #646568",
"x.	c #797979",
"y.	c #7D7D7D",
"z.	c #838383",
"A.	c #5B5E64",
"B.	c #404650",
"C.	c #AEAFB0",
"D.	c #C2C2C2",
"E.	c #AEAEAF",
"F.	c #9A9B9C",
"G.	c #7A7C7F",
"H.	c #606368",
"I.	c #52555A",
"J.	c #5E5E5E",
"K.	c #666666",
"L.	c #6A6A6A",
"M.	c #6E6E6E",
"N.	c #6F7070",
"O.	c #67686B",
"P.	c #63666A",
"Q.	c #696D74",
"R.	c #BEBEBE",
"S.	c #6B6E74",
"T.	c #3E434D",
"U.	c #56575B",
"V.	c #5D6067",
"W.	c #5C5D5F",
"X.	c #5E6063",
"Y.	c #626467",
"Z.	c #6E6F71",
"`.	c #575A60",
" +	c #6B6E76",
".+	c #B2B2B4",
"++	c #7C5E49",
"@+	c #FF963F",
"#+	c #D69248",
"$+	c #434852",
"%+	c #A7A8AA",
"&+	c #57595B",
"*+	c #686868",
"=+	c #656769",
"-+	c #434851",
";+	c #3C424C",
">+	c #7D8086",
",+	c #8E9094",
"'+	c #94755F",
")+	c #F9A146",
"!+	c #AA995A",
"~+	c #707375",
"{+	c #B4B4B6",
"]+	c #C1C1C1",
"^+	c #62666C",
"/+	c #5B5C5D",
"(+	c #5E5F60",
"_+	c #5E5F62",
":+	c #57595D",
"<+	c #F6923F",
"[+	c #9C8E59",
"}+	c #7C7E81",
"|+	c #A8A8A8",
"1+	c #AAABAC",
"2+	c #8C8E90",
"3+	c #866548",
"4+	c #393E49",
"5+	c #53575E",
"6+	c #777777",
"7+	c #6E6E6F",
"8+	c #E59646",
"9+	c #53565B",
"0+	c #7E7E7E",
"a+	c #919191",
"b+	c #A3A4A4",
"c+	c #8F8D63",
"d+	c #FD9C42",
"e+	c #555961",
"f+	c #50545C",
"g+	c #FF933D",
"h+	c #E6B355",
"i+	c #494C52",
"j+	c #676768",
"k+	c #707272",
"l+	c #DBC261",
"m+	c #6C7076",
"n+	c #939495",
"o+	c #5B5E65",
"p+	c #FE9B42",
"q+	c #F2DF6A",
"r+	c #A29D5D",
"s+	c #484C51",
"t+	c #4F5258",
"u+	c #A6975A",
"v+	c #FCA648",
"w+	c #956746",
"x+	c #82858A",
"y+	c #BDBDBD",
"z+	c #BCBCBC",
"A+	c #B6B6B6",
"B+	c #756F5D",
"C+	c #F5CA5D",
"D+	c #F1E36C",
"E+	c #E0C561",
"F+	c #DC984A",
"G+	c #FE963F",
"H+	c #CD7E40",
"I+	c #797C82",
"J+	c #BAB4A6",
"K+	c #645B3E",
"L+	c #F8BD56",
"M+	c #F4D061",
"N+	c #FBAC4C",
"O+	c #FF943D",
"P+	c #767A80",
"Q+	c #BDBAB3",
"R+	c #6A665A",
"S+	c #F8BC55",
"T+	c #F4CF60",
"U+	c #424752",
"V+	c #888A8F",
"W+	c #888A8E",
"X+	c #57595A",
"Y+	c #FAAE4D",
"Z+	c #FAAD4C",
"`+	c #FF943E",
" @	c #FE9840",
"                                                                ",
"                                  .                             ",
"                                +               @ @ @           ",
"                              .     .     @ # $ % & * @ @       ",
"                            .     .     = - ; > , ' ) ! @       ",
"                          .     +   @ ~ { ] ^ / ( _ : < @       ",
"                        .     .   [ } | 1 2 3 4 5 6 7 8 @       ",
"                  +   +     .   9 0 a b c d e f g h i 8 @       ",
"                +         .   @ j k l m n o p q r s t u @       ",
"              .               v w x k y z A B e C D E F @       ",
"            .               G H I J x K L M N O P Q R ~         ",
"          .               @ S T U V W X Y Z `  ...+.@.@         ",
"        .                 #.$.%.&.U *.=.-.;.>.,.'.).!.@         ",
"                        @ ~.{.].%.^.U /.(._.;.>.:.<.[.          ",
"                    @   @ }.|.1.2.%.^.3.4.5.6.7.8.#             ",
"              9.0.a./.b.c.d.e.f.b.g.%.^.3.h.i.j.k.        l.    ",
"            m.8 n.'.o.p.q.r.s.t.u.v.w.x.y.3.z.A.@       l.      ",
"          B.C.D.E.F.G.H.I.J.r.K.L.M.N.O.x.y.P.@       +         ",
"          Q.D.D.R.S.    T.U.V.W.K.L.X.Y.Z.`.        .   .       ",
"           +D.D..+++@+#+$+%+8 &+r.K.*+=+-+        .   . .       ",
"          ;+>+,+'+)+!+~+{+]+^+/+(+_+:+[.        .     .         ",
"                <+[+}+|+1+2+3+4+5+6+7+[             .           ",
"                8+9+0+a+b+c+d+  e+k o.f+          .             ",
"              g+h+i+j+&.k+l+g+  m+F.n+o+        .               ",
"              p+q+r+s+t+u+v+w+x+y+z+A+B+      .                 ",
"            g+C+D+D+E+F+G+H+I+D.D.D.J+K+                        ",
"            L+D+M+N+O+      P+D.D.Q+R+                          ",
"          S+T+v+g+          U+V+W+X+                            ",
"        Y+Z+g+                                                  ",
"      `+ @                                                      ",
"    g+                                                          ",
"                                                                "};
