/* XPM */
static char * bdp_hilfe_mini_xpm[] = {
"32 32 104 2",
"  	c None",
". 	c #2C0000",
"+ 	c #2F0000",
"@ 	c #590000",
"# 	c #750000",
"$ 	c #7C0000",
"% 	c #5D0000",
"& 	c #2B0000",
"* 	c #4A0000",
"= 	c #A60000",
"- 	c #F20000",
"; 	c #FF0000",
"> 	c #E80000",
", 	c #6E0000",
"' 	c #280000",
") 	c #390000",
"! 	c #A50000",
"~ 	c #FD0000",
"{ 	c #960000",
"] 	c #300000",
"^ 	c #2A0000",
"/ 	c #C20000",
"( 	c #FB0000",
"_ 	c #810000",
": 	c #650000",
"< 	c #FA0000",
"[ 	c #E30000",
"} 	c #E00000",
"| 	c #C00000",
"1 	c #640000",
"2 	c #290000",
"3 	c #CB0000",
"4 	c #DA0000",
"5 	c #A30000",
"6 	c #7D0000",
"7 	c #790000",
"8 	c #770000",
"9 	c #6F0000",
"0 	c #F70000",
"a 	c #D20000",
"b 	c #460000",
"c 	c #320000",
"d 	c #6B0000",
"e 	c #720000",
"f 	c #530000",
"g 	c #330000",
"h 	c #E20000",
"i 	c #CD0000",
"j 	c #630000",
"k 	c #2D0000",
"l 	c #B20000",
"m 	c #370000",
"n 	c #850000",
"o 	c #BB0000",
"p 	c #580000",
"q 	c #9D0000",
"r 	c #E60000",
"s 	c #7E0000",
"t 	c #380000",
"u 	c #930000",
"v 	c #F40000",
"w 	c #8B0000",
"x 	c #360000",
"y 	c #AB0000",
"z 	c #F30000",
"A 	c #8F0000",
"B 	c #5F0000",
"C 	c #BA0000",
"D 	c #E70000",
"E 	c #8A0000",
"F 	c #5E0000",
"G 	c #2E0000",
"H 	c #9C0000",
"I 	c #C90000",
"J 	c #7F0000",
"K 	c #780000",
"L 	c #7A0000",
"M 	c #8D0000",
"N 	c #710000",
"O 	c #3F0000",
"P 	c #D30000",
"Q 	c #490000",
"R 	c #6C0000",
"S 	c #6D0000",
"T 	c #310000",
"U 	c #500000",
"V 	c #570000",
"W 	c #3C0000",
"X 	c #270000",
"Y 	c #110000",
"Z 	c #830000",
"` 	c #D10000",
" .	c #CC0000",
"..	c #A00000",
"+.	c #3E0000",
"@.	c #DC0000",
"#.	c #6A0000",
"$.	c #E40000",
"%.	c #B60000",
"&.	c #BD0000",
"*.	c #CE0000",
"=.	c #4C0000",
"-.	c #660000",
";.	c #480000",
"                                                                ",
"                      . . . . . .                               ",
"                . . . + @ # $ % + . &                           ",
"            . . . * = - ; ; ; ; > , . . '                       ",
"          . . ) ! ~ ; ; ; ; ; ; ; ~ { ] .                       ",
"          ^ . / ; ; ; ; ; ; ; ; ; ; ( _ ] &                     ",
"            . : ; ; ; < [ } < ; ; ; ; | 1 . ^                   ",
"            2 . 3 4 5 6 7 8 9 0 ; ; ; a 7 b .                   ",
"              & c * d e f g . h ; ; ; i 7 j . ^                 ",
"                & & . k 2 . : ; ; ; ; l 7 9 . .                 ",
"                    2   & m [ ; ; ; ( n 7 d . .                 ",
"                      ^ k o ; ; ; ; / 7 7 p .                   ",
"                    . . q ; ; ; ; r s 7 8 t .                   ",
"                  . . u ; ; ; ; v w 7 7 f . ^                   ",
"                . x y ; ; ; ; z A 7 7 B k &                     ",
"                . C ; ; ; ; D E 7 7 F G &                       ",
"                . H ; ; ; I J 7 K f . &                         ",
"                . L ; ; ; M 7 N O . &                           ",
"                . p ; ; ; 5 7 % . &                             ",
"                . x < P 5 $ K , .                               ",
"                  . Q R 7 7 7 S T 2                             ",
"                    & G U V W . . ^                             ",
"                      ^ & . . . . X Y                           ",
"                        . Z `  .s x ^                           ",
"                      . M ; ; ; ; ..+.^                         ",
"                      . r ; ; ; ; @.#..                         ",
"                      . - ; ; ; ; $.7 k                         ",
"                      . %.; ; ; ; &.N .                         ",
"                      ^ W *.; ; a 6 =.^                         ",
"                        & G j 8 -.;.^                           ",
"                          & & & ^ 2                             ",
"                                                                "};
