/* XPM */
static char * c_xpm[] = {
"32 28 2 1",
" 	c None",
".	c #FF0000",
"        ..........              ",
"       ............             ",
"      ..............            ",
"     ................           ",
"    ..................          ",
"   ........      ....           ",
"  ........        ..            ",
" ........                       ",
"........                        ",
".......                         ",
"......                          ",
"......                          ",
"......                          ",
"......                          ",
"......                          ",
"......                          ",
"......                          ",
"......                          ",
".......                         ",
"........                        ",
" ........          .            ",
"  ........        ...           ",
"   ........      .....          ",
"    ...................         ",
"     .................          ",
"      ...............           ",
"       .............            ",
"        ...........             "};
