/* XPM */
static char * bug_buddy_xpm[] = {
"32 32 106 2",
"  	c None",
". 	c #000000",
"+ 	c #3A3C39",
"@ 	c #929292",
"# 	c #141413",
"$ 	c #080804",
"% 	c #2B2C2B",
"& 	c #0C0C0B",
"* 	c #1B1802",
"= 	c #484326",
"- 	c #342B0C",
"; 	c #BDBDBD",
"> 	c #10110E",
", 	c #524408",
"' 	c #999148",
") 	c #5E5112",
"! 	c #21221E",
"~ 	c #1C1C1B",
"{ 	c #171912",
"] 	c #4E5436",
"^ 	c #6F715B",
"/ 	c #696C60",
"( 	c #4D543A",
"_ 	c #464D29",
": 	c #919455",
"< 	c #242423",
"[ 	c #272825",
"} 	c #31352A",
"| 	c #6E7455",
"1 	c #A2A97D",
"2 	c #C5CBAC",
"3 	c #C5CAB2",
"4 	c #849474",
"5 	c #5A694C",
"6 	c #4F582B",
"7 	c #2E370D",
"8 	c #595D53",
"9 	c #B4B79E",
"0 	c #BFC1A8",
"a 	c #BBBEA5",
"b 	c #B6BA98",
"c 	c #ACB28B",
"d 	c #9DA47A",
"e 	c #7F8A67",
"f 	c #51593D",
"g 	c #24291D",
"h 	c #40443C",
"i 	c #C8CCB6",
"j 	c #A1A488",
"k 	c #999E79",
"l 	c #969C72",
"m 	c #7D835C",
"n 	c #393B35",
"o 	c #CDCFBB",
"p 	c #D4D6C3",
"q 	c #D6D9C4",
"r 	c #B3B7A1",
"s 	c #575B51",
"t 	c #A1A585",
"u 	c #858B62",
"v 	c #757B55",
"w 	c #2D3024",
"x 	c #979984",
"y 	c #D0D3BE",
"z 	c #D9DBCA",
"A 	c #797D6F",
"B 	c #535353",
"C 	c #3A3D2D",
"D 	c #B8BB9C",
"E 	c #C2C5AD",
"F 	c #D8DAC7",
"G 	c #A0A393",
"H 	c #3D4134",
"I 	c #51544C",
"J 	c #777F59",
"K 	c #5B6244",
"L 	c #0F100B",
"M 	c #7E8363",
"N 	c #BBBEAB",
"O 	c #54584F",
"P 	c #474A43",
"Q 	c #5E6354",
"R 	c #717753",
"S 	c #202217",
"T 	c #494C35",
"U 	c #B5B896",
"V 	c #8D946A",
"W 	c #69714E",
"X 	c #191B14",
"Y 	c #646855",
"Z 	c #646D4A",
"` 	c #484B3D",
" .	c #62664D",
"..	c #454B34",
"+.	c #404530",
"@.	c #6A6E52",
"#.	c #494C44",
"$.	c #3E403B",
"%.	c #313524",
"&.	c #4E5349",
"*.	c #3E422E",
"=.	c #292B25",
"-.	c #4C4D4B",
";.	c #35392A",
">.	c #333332",
",.	c #2E3129",
"                    . + @           .                           ",
"                    . # $           .                           ",
"                  . # # . .       .                             ",
"                  . % & . .       .                         .   ",
"                  . $ . . * = - . . . . . .     ;         .     ",
"                  > # . $ , ' ) $ $ * $ . . . . ! +   . .       ",
". . . . . .       & ~ . { ] ^ / ( _ : _ . . . < ~ . .           ",
"            .     # [ } | 1 2 3 4 5 6 7 . . . < . .             ",
"            .     $ 8 9 0 a b c d e f g $ . . & $ .             ",
"              . . h a i 3 3 0 j k l m f & . # & . . .           ",
"  .       . . . n 9 o p q p r s t d u v w & # . . . .           ",
".   .   $ ~ . . x 3 y q z q A h c d u v f { . . . . .           ",
"      . B < . C D E o p F G H I c d m J K { . . . .       .     ",
"    < ! ~ . L M b a i o N O P Q c d m R K S . . . .   . .   .   ",
"    & & . . T k c U a E / + B Q 1 V m W f S . . . . .         . ",
"    # X . . v V 1 c U j } P 8 Y l u R Z f X . . . .             ",
"  % ~ & . { v m V k k ` n 8 I  .u v W K ..{ . . . .             ",
"  & $ . & +.W R m u @.< P Q #.5 v W K ( H L . . . .             ",
"  . . . % C f 5 W | w } 8 O $.K 5 K ( ..} $ # . . .             ",
"> . . X ! %.] f K ( ! + 8 &.n f f ( ..*.< . # $ . .             ",
". . $ ~ $ w H ....=.=.#.-.h } ] ..+.C ;.{ . $ & . . .           ",
". . ~ & . g ;.*.;.~ >.&.P + ,.H *.;.} w $ . . $ . . . . . .     ",
"  . # & . { ,.,.< X n P + [ =.;.%.,.=.# . . & $ . .         .   ",
"  . # . . & =.w ~ S >.$.} < [ ,.=.=.g & . . & . . .         .   ",
"  . % . . . # < # # [ ,.< X =.[ [ < # $ . . . . .             . ",
"  . $ . . . . & . $ { ~ > # [ < < # & $ . . . .               . ",
"        . . . . . . . . . X ! ~ $ . & $ . . . .                 ",
"          . . . . . . . . > $ . . & X . . . . . .               ",
"            . . . . . . . . . . $ < . . . . .     . . .         ",
"              . . . . . . . . . . & . . . .           .         ",
"                    $ . . . . . . . . .               .         ",
"                        & . . . . .                   .         "};
