/* XPM */
static char * designer_mini_xpm[] = {
"32 32 322 2",
"  	c None",
". 	c #000040",
"+ 	c #0B2665",
"@ 	c #275991",
"# 	c #3C76A5",
"$ 	c #41709E",
"% 	c #192460",
"& 	c #010141",
"* 	c #021254",
"= 	c #07377D",
"- 	c #1A4E8B",
"; 	c #2D659A",
"> 	c #407DAA",
", 	c #4C77A5",
"' 	c #060948",
") 	c #050644",
"! 	c #304371",
"~ 	c #5A80A2",
"{ 	c #6B9BBF",
"] 	c #73A9D6",
"^ 	c #5784BE",
"/ 	c #21488C",
"( 	c #002F77",
"_ 	c #0A3C7F",
": 	c #1D538E",
"< 	c #316A9D",
"[ 	c #4776A5",
"} 	c #131A57",
"| 	c #000033",
"1 	c #000031",
"2 	c #3D5272",
"3 	c #97CFCB",
"4 	c #9CD9DA",
"5 	c #91CCDA",
"6 	c #84BEDA",
"7 	c #78B0DA",
"8 	c #6BA3DA",
"9 	c #5F95DA",
"0 	c #2E60AC",
"a 	c #013078",
"b 	c #0E4082",
"c 	c #225791",
"d 	c #426295",
"e 	c #020242",
"f 	c #00002A",
"g 	c #09090E",
"h 	c #4E4E4E",
"i 	c #555555",
"j 	c #1A1C1B",
"k 	c #587871",
"l 	c #9EDBD9",
"m 	c #93CEDA",
"n 	c #86C0DA",
"o 	c #71A6CA",
"p 	c #496F93",
"q 	c #3C5D88",
"r 	c #4672B3",
"s 	c #1C4D98",
"t 	c #023279",
"u 	c #2A5590",
"v 	c #1D2964",
"w 	c #00002B",
"x 	c #343434",
"y 	c #E5E5E5",
"z 	c #FFFFFF",
"A 	c #F4F4F4",
"B 	c #575757",
"C 	c #4C6A6A",
"D 	c #527483",
"E 	c #1C1E20",
"F 	c #6B6B6B",
"G 	c #7A7A7A",
"H 	c #373737",
"I 	c #112139",
"J 	c #113A79",
"K 	c #31487F",
"L 	c #06060E",
"M 	c #E0E0E0",
"N 	c #F8F8F8",
"O 	c #232424",
"P 	c #54767D",
"Q 	c #393939",
"R 	c #EDEDED",
"S 	c #898989",
"T 	c #0E1425",
"U 	c #020342",
"V 	c #000036",
"W 	c #404040",
"X 	c #C8C8C8",
"Y 	c #C9C9C9",
"Z 	c #717171",
"` 	c #040505",
" .	c #DEDEDE",
"..	c #414141",
"+.	c #2A446C",
"@.	c #000030",
"#.	c #505050",
"$.	c #D0D0D0",
"%.	c #777777",
"&.	c #767676",
"*.	c #D1D1D1",
"=.	c #818181",
"-.	c #2F2F2F",
";.	c #B9B9B9",
">.	c #808080",
",.	c #ACACAC",
"'.	c #8F8F8F",
").	c #588C9B",
"!.	c #131E58",
"~.	c #00003B",
"{.	c #1C1C1D",
"].	c #FBFBFB",
"^.	c #191919",
"/.	c #181818",
"(.	c #4A4A4A",
"_.	c #353535",
":.	c #494949",
"<.	c #C0C0C0",
"[.	c #3F3F3F",
"}.	c #969696",
"|.	c #4F7E8B",
"1.	c #5283A6",
"2.	c #020D4E",
"3.	c #061F60",
"4.	c #0A2060",
"5.	c #03071F",
"6.	c #878787",
"7.	c #B4B4B4",
"8.	c #B5B5B5",
"9.	c #B7B7B7",
"0.	c #1C272D",
"a.	c #141A1D",
"b.	c #EBEBEB",
"c.	c #9A9A9A",
"d.	c #0C0C0C",
"e.	c #848484",
"f.	c #535353",
"g.	c #416B85",
"h.	c #6CB2CC",
"i.	c #0D1551",
"j.	c #010242",
"k.	c #1A2B62",
"l.	c #243B6E",
"m.	c #0D1550",
"n.	c #030949",
"o.	c #1B4F8B",
"p.	c #245B94",
"q.	c #2E679B",
"r.	c #346B9A",
"s.	c #101F28",
"t.	c #606060",
"u.	c #BCBCBC",
"v.	c #C4C4C4",
"w.	c #797979",
"x.	c #182024",
"y.	c #6C9DBC",
"z.	c #44647C",
"A.	c #AFAFAF",
"B.	c #121D2D",
"C.	c #3E6A9A",
"D.	c #5C9FC0",
"E.	c #2B4A7C",
"F.	c #091857",
"G.	c #33699A",
"H.	c #4886B0",
"I.	c #5697BB",
"J.	c #5A9ABB",
"K.	c #050948",
"L.	c #091654",
"M.	c #3C78A6",
"N.	c #4583AE",
"O.	c #4E8EB5",
"P.	c #589ABC",
"Q.	c #61A2C3",
"R.	c #496C89",
"S.	c #2A3E4D",
"T.	c #283B48",
"U.	c #446479",
"V.	c #74AACF",
"W.	c #76AEDA",
"X.	c #6FA6D9",
"Y.	c #2D455E",
"Z.	c #323232",
"`.	c #979797",
" +	c #A5A5A5",
".+	c #636363",
"++	c #121B28",
"@+	c #4169AE",
"#+	c #2E5687",
"$+	c #4A8AB2",
"%+	c #346798",
"&+	c #053379",
"*+	c #0D3F82",
"=+	c #275E96",
"-+	c #356FA1",
";+	c #111E59",
">+	c #030645",
",+	c #4985AD",
"'+	c #65AAC7",
")+	c #6FB6CF",
"!+	c #76BED4",
"~+	c #79C1D8",
"{+	c #6DA4DA",
"]+	c #71A9DA",
"^+	c #73ACDA",
"/+	c #74ACDA",
"(+	c #72AADA",
"_+	c #6EA5DA",
":+	c #689FDA",
"<+	c #6197DA",
"[+	c #4772AF",
"}+	c #2B466E",
"|+	c #273F64",
"1+	c #385B8F",
"2+	c #5387D6",
"3+	c #3C62AE",
"4+	c #285388",
"5+	c #3974A4",
"6+	c #184C8A",
"7+	c #033279",
"8+	c #154684",
"9+	c #050A48",
"0+	c #12205A",
"a+	c #558BAE",
"b+	c #7BC4D8",
"c+	c #7CC6D9",
"d+	c #619BB9",
"e+	c #649AD9",
"f+	c #6AA2DA",
"g+	c #6BA2DA",
"h+	c #69A0DA",
"i+	c #659CDA",
"j+	c #6096DA",
"k+	c #5A8FDA",
"l+	c #558ADA",
"m+	c #304E97",
"n+	c #20508A",
"o+	c #275F96",
"p+	c #1D528E",
"q+	c #002B72",
"r+	c #002A71",
"s+	c #021052",
"t+	c #020343",
"u+	c #5181C7",
"v+	c #6298DA",
"w+	c #5D93DA",
"x+	c #588EDA",
"y+	c #243E85",
"z+	c #134686",
"A+	c #164988",
"B+	c #184D8A",
"C+	c #010444",
"D+	c #000546",
"E+	c #000647",
"F+	c #3F65B0",
"G+	c #578CDA",
"H+	c #598EDA",
"I+	c #578DDA",
"J+	c #568BDA",
"K+	c #3B557B",
"L+	c #1E232B",
"M+	c #496B9E",
"N+	c #133076",
"O+	c #05357B",
"P+	c #06296C",
"Q+	c #000141",
"R+	c #2A448B",
"S+	c #5487D3",
"T+	c #435C82",
"U+	c #5081D0",
"V+	c #012369",
"W+	c #00195D",
"X+	c #001659",
"Y+	c #111B5E",
"Z+	c #476592",
"`+	c #5889D3",
" @	c #365DA8",
".@	c #002E76",
"+@	c #002268",
"@@	c #002C74",
"#@	c #001D62",
"$@	c #4067B3",
"%@	c #5589D7",
"&@	c #5887CE",
"*@	c #5782C3",
"=@	c #577BB2",
"-@	c #5A8BD4",
";@	c #5488D8",
">@	c #0F327A",
",@	c #001D61",
"'@	c #002970",
")@	c #002066",
"!@	c #0D1658",
"~@	c #5082D1",
"{@	c #26448C",
"]@	c #002369",
"^@	c #000B4C",
"/@	c #0C2E6E",
"(@	c #0F4183",
"_@	c #0A2C6D",
":@	c #0F185B",
"<@	c #446EBB",
"[@	c #4D7DCB",
"}@	c #1F3278",
"|@	c #000445",
"1@	c #11205B",
"2@	c #3E7BA8",
"3@	c #24477D",
"4@	c #131F63",
"5@	c #284189",
"6@	c #2B468E",
"7@	c #263D84",
"8@	c #162469",
"9@	c #020344",
"0@	c #4E80A5",
"a@	c #63A3C1",
"b@	c #3D6691",
"c@	c #6EB4CE",
"d@	c #284375",
"e@	c #426991",
"f@	c #365682",
"g@	c #060947",
"                                                                ",
"                                                                ",
"                                      . . . . .                 ",
"                            . . . . . + @ # $ % .               ",
"                      . . . . . & . * = - ; > , '               ",
"                    . . ) ! ~ { ] ^ / ( _ : < [ } .             ",
"                  | 1 2 3 4 5 6 7 8 9 0 a b c d e               ",
"            . f g h i j k l m n o p q r s t u v .               ",
"          . w x y z z A B C m D E F G H I J K . .               ",
"          . L M z z z z N O P Q R z z z S T U .                 ",
"          V W z z z X Y z Z `  .z z z z z ..+..                 ",
"          @.#.z z $.%.&.*.=.-.z z ;.>.,.z '.).!..               ",
"          ~.{.].z Y ^./.Y (._.z z :.<.[.z }.|.1..               ",
"      2.3.4.5.6.z z 7.8.9.0.a.b.z c.d.e.z f.g.h.i.. j.k.l.m.    ",
"    n.o.p.q.r.s.t.u.v.w.x.y.z.i ].z z z A.B.C.D.E.F.G.H.I.J.K.  ",
"    L.M.N.O.P.Q.R.S.T.U.V.W.X.Y.Z.`. +.+++@+#+$+%+&+*+- =+-+;+  ",
"    >+,+'+)+!+~+{+]+^+/+(+_+:+<+[+}+|+1+2+3+4+5+6+( ( ( 7+8+9+  ",
"    . 0+a+b+c+d+e+:+f+g+h+i+j+k+l+l+l+l+l+m+n+o+p+q+( ( r+s+    ",
"        . t+& . u+j+v+v+j+w+x+l+l+l+l+l+l+y+z+A+B+C+D+E+.       ",
"            . . F+G+H+H+I+J+l+l+l+K+L+M+l+N+7+O+P+Q+.           ",
"              . R+l+l+l+l+l+l+l+l+S+T+l+U+V+( ( W+X+.           ",
"              . Y+l+l+l+l+l+l+l+l+Z+`+l+ @.@( +@@@#@.           ",
"                . $@l+l+l+%@&@*@=@-@l+;@>@( ,@'@( )@.           ",
"                . !@~@l+l+l+l+l+l+l+l+{@]@^@/@(@(@_@.           ",
"                  . :@<@l+l+l+l+l+[@}@|@. 1@2@2@2@3@.           ",
"                    . . 4@5@6@7@8@9@. . . 0@a@b@c@d@.           ",
"                        . . . . .       . e@m.& f@g@            ",
"                                        . . . . . .             ",
"                                                                ",
"                                                                ",
"                                                                ",
"                                                                "};
