/* XPM */
static char * information_mini_xpm[] = {
"32 32 475 2",
"  	c None",
". 	c #AB9021",
"+ 	c #C4A731",
"@ 	c #E8C842",
"# 	c #DABD48",
"$ 	c #E7C94E",
"% 	c #F8D64D",
"& 	c #D7BA43",
"* 	c #B89F38",
"= 	c #97822B",
"- 	c #7F690E",
"; 	c #CEAF31",
"> 	c #FEDC52",
", 	c #FEDF5F",
"' 	c #FEE066",
") 	c #CBC095",
"! 	c #E2E2E2",
"~ 	c #D6D5D5",
"{ 	c #D8CA90",
"] 	c #FEE064",
"^ 	c #FEDF61",
"/ 	c #FEDF5E",
"( 	c #F7D756",
"_ 	c #AF983C",
": 	c #BFA125",
"< 	c #FEDD54",
"[ 	c #FEE063",
"} 	c #FEE477",
"| 	c #FEE88A",
"1 	c #E4D697",
"2 	c #F1F1F0",
"3 	c #E8E8E8",
"4 	c #D0D0D0",
"5 	c #B4B4B3",
"6 	c #EBD781",
"7 	c #FEE26A",
"8 	c #FEE168",
"9 	c #EED057",
"0 	c #928038",
"a 	c #DEBD35",
"b 	c #FEE065",
"c 	c #DDCD8B",
"d 	c #D6D1BD",
"e 	c #D9D0AC",
"f 	c #FAE89B",
"g 	c #D8CEA2",
"h 	c #ECECEC",
"i 	c #D8D8D8",
"j 	c #C5C5C5",
"k 	c #B0B0B0",
"l 	c #CAC196",
"m 	c #FEE474",
"n 	c #FEE371",
"o 	c #FEE26D",
"p 	c #FEE269",
"q 	c #FEDF60",
"r 	c #B49E48",
"s 	c #E6C53D",
"t 	c #FEE478",
"u 	c #F7E493",
"v 	c #E0DFDE",
"w 	c #E7E7E7",
"x 	c #CFCFCF",
"y 	c #C0B99D",
"z 	c #CDC292",
"A 	c #E0E0E0",
"B 	c #BBBBBB",
"C 	c #A7A7A7",
"D 	c #C0B999",
"E 	c #FEE781",
"F 	c #FEE67A",
"G 	c #FEE576",
"H 	c #FEE372",
"I 	c #FEE26C",
"J 	c #FEE167",
"K 	c #FEE061",
"L 	c #BCA74F",
"M 	c #D8B834",
"N 	c #FEE166",
"O 	c #FEE57A",
"P 	c #F4DC77",
"Q 	c #CACAC9",
"R 	c #D6D6D6",
"S 	c #BFBFBF",
"T 	c #A6A6A5",
"U 	c #BFB790",
"V 	c #B2B2B2",
"W 	c #9E9E9E",
"X 	c #C8C09C",
"Y 	c #FEE988",
"Z 	c #FEE882",
"` 	c #FEE77E",
" .	c #FEE36E",
"..	c #FEE062",
"+.	c #AA984E",
"@.	c #AD9120",
"#.	c #FEE370",
"$.	c #FEE577",
"%.	c #B9B291",
"&.	c #CACACA",
"*.	c #B5B5B5",
"=.	c #DED49F",
"-.	c #ABA797",
";.	c #A8A8A8",
">.	c #989794",
",.	c #F0E3A4",
"'.	c #FEEB8F",
").	c #FEEA8B",
"!.	c #FEE987",
"~.	c #FEE881",
"{.	c #FEE67C",
"].	c #FEE476",
"^.	c #FEE36F",
"/.	c #F8DB60",
"(.	c #FBDA51",
"_.	c #CABE8D",
":.	c #C7C2AD",
"<.	c #D9CB8A",
"[.	c #F2DE81",
"}.	c #ADA78D",
"|.	c #A0A0A0",
"1.	c #A7A598",
"2.	c #FBEDA7",
"3.	c #EEE095",
"4.	c #B5AF91",
"5.	c #B4B09C",
"6.	c #E2D8A7",
"7.	c #FEEE9E",
"8.	c #FEED98",
"9.	c #FEEC93",
"0.	c #FEE989",
"a.	c #FEE883",
"b.	c #FEE475",
"c.	c #D0B95A",
"d.	c #B69A28",
"e.	c #C5C0AC",
"f.	c #DDDDDD",
"g.	c #C4C4C4",
"h.	c #D4C99A",
"i.	c #FEEC92",
"j.	c #F6E696",
"k.	c #FDEFA1",
"l.	c #F7EA9E",
"m.	c #CFC695",
"n.	c #C8C3A8",
"o.	c #C4C0AC",
"p.	c #C6C1A6",
"q.	c #D6CD99",
"r.	c #FEEFA0",
"s.	c #FEEE9C",
"t.	c #FEED96",
"u.	c #FEEB90",
"v.	c #FEEA89",
"w.	c #FEE67B",
"x.	c #FEE473",
"y.	c #FEE26B",
"z.	c #FDDF63",
"A.	c #F5D348",
"B.	c #FEE169",
"C.	c #CDBE7B",
"D.	c #C1C1C1",
"E.	c #B8B8B8",
"F.	c #A4A39E",
"G.	c #FEEFA4",
"H.	c #FEEF9F",
"I.	c #D6CC99",
"J.	c #CCCAC3",
"K.	c #E1E1E1",
"L.	c #DADADA",
"M.	c #D0CAAC",
"N.	c #FEF0A4",
"O.	c #FEEF9D",
"P.	c #FEED97",
"Q.	c #FEE780",
"R.	c #FEE578",
"S.	c #C7B25D",
"T.	c #8F760E",
"U.	c #FDD428",
"V.	c #FEE05E",
"W.	c #FEE77D",
"X.	c #C4B77E",
"Y.	c #9C9A93",
"Z.	c #A2A096",
"`.	c #FDF1AC",
" +	c #CFC79D",
".+	c #F1F1F1",
"++	c #EBEBEB",
"@+	c #E4E4E4",
"#+	c #D7D7D7",
"$+	c #BBBBB8",
"%+	c #FEF3B5",
"&+	c #FEF0A3",
"*+	c #FEEC94",
"=+	c #FEEA8C",
"-+	c #FEE884",
";+	c #E5CB5F",
">+	c #AF9112",
",+	c #FDD424",
"'+	c #FDD732",
")+	c #C6B56A",
"!+	c #CAC197",
"~+	c #DCCD88",
"{+	c #FCED9D",
"]+	c #DACF98",
"^+	c #EBEBEA",
"/+	c #F4F4F4",
"(+	c #EEEEEE",
"_+	c #D4D4D4",
":+	c #CDCDCD",
"<+	c #BCBCBC",
"[+	c #F4ECB9",
"}+	c #FEF1A9",
"|+	c #FEF0A1",
"1+	c #FEEE98",
"2+	c #FEE77F",
"3+	c #BD9C15",
"4+	c #FDD427",
"5+	c #F7D232",
"6+	c #B4B3B2",
"7+	c #D3D3D3",
"8+	c #BDBDBD",
"9+	c #CDC59D",
"0+	c #FDEE9E",
"a+	c #CFCDC0",
"b+	c #F8F8F8",
"c+	c #F2F2F2",
"d+	c #DEDEDE",
"e+	c #B8B8B5",
"f+	c #FCF4C0",
"g+	c #FEF2AD",
"h+	c #FEEA8A",
"i+	c #AD9F64",
"j+	c #C6A417",
"k+	c #FDD835",
"l+	c #9D946D",
"m+	c #929292",
"n+	c #80807F",
"o+	c #C3B988",
"p+	c #EFEFEF",
"q+	c #F5F5F5",
"r+	c #CDCBB8",
"s+	c #FEF6BD",
"t+	c #FEF3B0",
"u+	c #FEF1A6",
"v+	c #FEE679",
"w+	c #B7A868",
"x+	c #CAA817",
"y+	c #FDD529",
"z+	c #FDD836",
"A+	c #E6C73D",
"B+	c #7B7556",
"C+	c #585858",
"D+	c #2F2F2F",
"E+	c #A29A72",
"F+	c #DCDCDC",
"G+	c #C2C2C2",
"H+	c #CDCBBB",
"I+	c #FDF7C8",
"J+	c #FEF6B9",
"K+	c #FEF1A7",
"L+	c #FEEF9E",
"M+	c #FEEC95",
"N+	c #BAAA69",
"O+	c #C09F16",
"P+	c #FDDB42",
"Q+	c #FBDC4E",
"R+	c #C7B148",
"S+	c #D1BD57",
"T+	c #BEB272",
"U+	c #D5D5D5",
"V+	c #CBCBCB",
"W+	c #AEAEA2",
"X+	c #E1DEB3",
"Y+	c #FEF7B6",
"Z+	c #FEF5AE",
"`+	c #E6DC9E",
" @	c #B4AE8A",
".@	c #AEA88B",
"+@	c #BCB58D",
"@@	c #EADB8F",
"#@	c #FEE579",
"$@	c #B4A56A",
"%@	c #B59614",
"&@	c #FDD426",
"*@	c #FDD733",
"=@	c #FDDA40",
"-@	c #FDDE4C",
";@	c #FDE159",
">@	c #FDE466",
",@	c #BEAF62",
"'@	c #E5E5E5",
")@	c #D9D9D9",
"!@	c #C3C3C3",
"~@	c #B0AFA2",
"{@	c #FDF7BB",
"]@	c #FEF7AF",
"^@	c #FEF5A8",
"/@	c #C9C081",
"(@	c #585853",
"_@	c #7D7D7D",
":@	c #8E8E8E",
"<@	c #9A9A9A",
"[@	c #969692",
"}@	c #EBDB90",
"|@	c #FEE165",
"1@	c #9F8310",
"2@	c #FDD323",
"3@	c #FDD630",
"4@	c #FDDA3C",
"5@	c #FDDD49",
"6@	c #FDE055",
"7@	c #FDE361",
"8@	c #D3C05B",
"9@	c #CBCBCA",
"0@	c #A9A9A9",
"a@	c #B8B394",
"b@	c #FEF4A6",
"c@	c #FEF3A3",
"d@	c #FEF29D",
"e@	c #6F6C56",
"f@	c #7C7C7C",
"g@	c #808080",
"h@	c #767676",
"i@	c #717171",
"j@	c #828282",
"k@	c #C3BB98",
"l@	c #F4D762",
"m@	c #FDD21F",
"n@	c #FDD52C",
"o@	c #FDD838",
"p@	c #FDDC44",
"q@	c #FDDE50",
"r@	c #FDE15B",
"s@	c #FCE466",
"t@	c #A4A293",
"u@	c #AFAFAF",
"v@	c #A1A1A1",
"w@	c #A19B72",
"x@	c #FEF097",
"y@	c #FEF096",
"z@	c #FEEF91",
"A@	c #53524C",
"B@	c #848484",
"C@	c #6D6D6D",
"D@	c #5C5C5C",
"E@	c #666666",
"F@	c #5F5F5F",
"G@	c #A89F76",
"H@	c #FEE472",
"I@	c #D0BB61",
"J@	c #CDAA16",
"K@	c #FDDA3E",
"L@	c #FDE054",
"M@	c #FDE25E",
"N@	c #B0A366",
"O@	c #B6B6B6",
"P@	c #9B9B9B",
"Q@	c #7A786F",
"R@	c #EEDE81",
"S@	c #FEED88",
"T@	c #D9C972",
"U@	c #525252",
"V@	c #555555",
"W@	c #3C3C3C",
"X@	c #282828",
"Y@	c #9E8D41",
"Z@	c #FDDB44",
"`@	c #FEDE56",
" #	c #B0A05D",
".#	c #8E750E",
"+#	c #FDD320",
"@#	c #FDD837",
"##	c #FDDB41",
"$#	c #DBC452",
"%#	c #A5A4A4",
"&#	c #A2A2A2",
"*#	c #949494",
"=#	c #878787",
"-#	c #78735B",
";#	c #B1A45C",
">#	c #68634A",
",#	c #515151",
"'#	c #434343",
")#	c #363636",
"!#	c #1A1A1A",
"~#	c #0D0D0D",
"{#	c #CEB132",
"]#	c #FDD834",
"^#	c #DDB81C",
"/#	c #D0AC16",
"(#	c #FDD62F",
"_#	c #FDD939",
":#	c #9B9267",
"<#	c #9C9C9C",
"[#	c #818181",
"}#	c #737373",
"|#	c #4A4A4A",
"1#	c #3D3D3D",
"2#	c #222222",
"3#	c #141414",
"4#	c #3E3613",
"5#	c #FDD62C",
"6#	c #FDD322",
"7#	c #89710F",
"8#	c #F4CA1B",
"9#	c #CFB745",
"0#	c #929291",
"a#	c #959595",
"b#	c #888888",
"c#	c #7A7A7A",
"d#	c #444444",
"e#	c #292929",
"f#	c #1B1B1B",
"g#	c #12110E",
"h#	c #C8AA2A",
"i#	c #FDD62E",
"j#	c #C09F15",
"k#	c #88700D",
"l#	c #FCD11D",
"m#	c #95884C",
"n#	c #8F8F8F",
"o#	c #747474",
"p#	c #4B4B4B",
"q#	c #303030",
"r#	c #998220",
"s#	c #FDD62D",
"t#	c #D8B318",
"u#	c #90770D",
"v#	c #FBD01B",
"w#	c #FDD324",
"x#	c #FDD52B",
"y#	c #EECD39",
"z#	c #777156",
"A#	c #7B7B7B",
"B#	c #606060",
"C#	c #373737",
"D#	c #201F19",
"E#	c #A0881F",
"F#	c #D9B417",
"G#	c #80690B",
"H#	c #ECC317",
"I#	c #E5C32E",
"J#	c #726945",
"K#	c #646464",
"L#	c #595959",
"M#	c #4C4C4C",
"N#	c #3E3E3E",
"O#	c #2D2C2B",
"P#	c #5C501D",
"Q#	c #D7B523",
"R#	c #FDD21E",
"S#	c #C4A113",
"T#	c #B79710",
"U#	c #FBCF19",
"V#	c #FAD228",
"W#	c #AF9424",
"X#	c #85742C",
"Y#	c #7E6E28",
"Z#	c #D8B41F",
"`#	c #FDD21D",
" $	c #E3BC16",
".$	c #91770D",
"+$	c #AE8E0E",
"@$	c #DFB714",
"#$	c #FDD118",
"$$	c #FDD11B",
"%$	c #FDD21C",
"&$	c #FDD11A",
"*$	c #F7CC18",
"=$	c #C4A111",
"-$	c #977C0C",
";$	c #866E0A",
">$	c #997D0B",
",$	c #9E820C",
"'$	c #92780B",
"                                                                ",
"                      . + @ # $ % & * =                         ",
"                - ; > , ' ) ! ~ { ] ^ / ( _                     ",
"              : < [ } | 1 2 3 4 5 6 7 8 ] ^ 9 0                 ",
"            a b c d e f g h i j k l m n o p ] q r               ",
"          s t u v w x y z A x B C D E F G H I J K L             ",
"        M N O P Q R S T U 4 j V W X Y Z ` F m  .8 ..+.          ",
"      @.K p #.$.%.&.*.W =.-.B ;.>.,.'.).!.~.{.].^.8 /.          ",
"      (.8 _.:.<.[.}.|.1.2.3.4.5.6.7.8.9.'.0.a.{.b. .N c.        ",
"    d.b o e.f.g.h.i.j.k.l.m.n.o.p.q.r.s.t.u.v.Z w.x.y.z.        ",
"    A.B.n C.D.E.F.G.H.I.J.h w K.L.4 M.N.O.P.'.Y Q.R.^.J S.      ",
"  T.U.V.b.W.X.Y.Z.`. +w .+++@+f.#+4 $+%+&+s.*+=+-+w.x.7 ;+      ",
"  >+,+'+)+!+~+i.{+]+^+/+(+w K.L._+:+<+[+}+|+1+u.!.2+G o ]       ",
"  3+4+5+6+7+8+9+0+a+b+c+++@+d+#+4 &.e+f+g+N.s.9.h+~.R.^.N i+    ",
"  j+U.k+l+;.m+n+o+p+q+(+3 K.L._+:+j r+s+t+u+O.*+).Z v+#.J w+    ",
"  x+y+z+A+B+C+D+E+/+(+w K.F+R 4 G+H+I+J+t+K+L+M+=+Z F #.J N+    ",
"  O+U.k+P+Q+R+S+T+h w d+U+V+S W+X+Y+Z+`+ @.@+@@@).Z #@#.J $@    ",
"  %@&@*@=@-@;@>@,@'@F+)@&.!@~@{@]@^@/@(@_@:@<@[@}@Q.$. .|@      ",
"  1@2@3@4@5@6@7@8@9@4 !@*.0@a@b@c@d@e@f@g@h@i@j@k@E b.I l@      ",
"    m@n@o@p@q@r@s@t@&.8+u@v@w@x@y@z@A@B@C@D@E@F@G@E H@p I@      ",
"    J@&@'+K@5@L@M@N@g.O@;.P@Q@R@S@T@U@V@W@D+X@D+Y@Z@`@]  #      ",
"    .#+#n@@###-@6@$#%#k &#*#=#-#;#>#,#'#)#X@!#~#{#]#y+^#        ",
"      /#,+(#_#P+-@L@:#0@<#:@[#}#E@C+|#1#D+2#3#4#@#5#6#7#        ",
"        8#&@3@_###5@9#0#a#b#c#C@F@U@d#)#e#f#g#h#i#,+j#          ",
"        k#l#&@i#z+K@p@m#n#[#o#E@C+p#1#q#2#3#r#s#,+t#            ",
"          u#v#w#x#'+o@y#z#A#C@B#U@d#C#e#D#E#y+6#F#              ",
"            G#H#m@&@x#3@I#J#K#L#M#N#O#P#Q#,+R#S#                ",
"                T#U#R#6#&@V#W#X#Y#r#Z#6#`# $.$                  ",
"                    +$@$#$$$%$%$%$&$*$=$-$                      ",
"                          ;$>$,$'$                              ",
"                                                                ",
"                                                                "};
