/* XPM */
static char * einstellungen_mini_xpm[] = {
"32 32 247 2",
"  	c None",
". 	c #000000",
"+ 	c #1B1B1B",
"@ 	c #444444",
"# 	c #030303",
"$ 	c #1E1E1E",
"% 	c #999898",
"& 	c #A0A0A0",
"* 	c #7F7F7F",
"= 	c #0D0D0D",
"- 	c #0E0E0E",
"; 	c #6A6A6A",
"> 	c #A9A9A9",
", 	c #050505",
"' 	c #202020",
") 	c #939292",
"! 	c #7E7D7D",
"~ 	c #8B8A8A",
"{ 	c #A2A2A2",
"] 	c #AAAAAA",
"^ 	c #343434",
"/ 	c #0C0C0C",
"( 	c #656565",
"_ 	c #B2B2B2",
": 	c #ABABAB",
"< 	c #BBBBBB",
"[ 	c #4A4A4A",
"} 	c #818181",
"| 	c #838282",
"1 	c #888787",
"2 	c #979696",
"3 	c #A6A5A5",
"4 	c #B5B4B4",
"5 	c #C2C2C2",
"6 	c #6E6E6E",
"7 	c #010101",
"8 	c #0A0A0A",
"9 	c #616161",
"0 	c #AEAEAE",
"a 	c #BCBCBC",
"b 	c #949393",
"c 	c #B1B0B0",
"d 	c #C0C0C0",
"e 	c #CECDCD",
"f 	c #C4C4C4",
"g 	c #6B6B6B",
"h 	c #B3B3B3",
"i 	c #A8A8A8",
"j 	c #B9B9B9",
"k 	c #A7A7A7",
"l 	c #111111",
"m 	c #636363",
"n 	c #AFAFAF",
"o 	c #ADADAD",
"p 	c #CACACA",
"q 	c #C6C6C6",
"r 	c #141414",
"s 	c #151515",
"t 	c #060606",
"u 	c #A6A6A6",
"v 	c #BBBABA",
"w 	c #C7C7C7",
"x 	c #C6C5C5",
"y 	c #1C1C1C",
"z 	c #686868",
"A 	c #B1B1B1",
"B 	c #BFBFBF",
"C 	c #8B8B8B",
"D 	c #2E2E2E",
"E 	c #363636",
"F 	c #C3C3C3",
"G 	c #C5C5C5",
"H 	c #3F3F3F",
"I 	c #666666",
"J 	c #383838",
"K 	c #252525",
"L 	c #787878",
"M 	c #020202",
"N 	c #858585",
"O 	c #7C7C7C",
"P 	c #767676",
"Q 	c #C8C8C8",
"R 	c #DBDBDB",
"S 	c #353535",
"T 	c #7A7A7A",
"U 	c #BDBDBD",
"V 	c #999999",
"W 	c #3C3C3C",
"X 	c #D6D6D6",
"Y 	c #6D6D6D",
"Z 	c #C9C9C9",
"` 	c #BABABA",
" .	c #727272",
"..	c #464646",
"+.	c #D9D9D9",
"@.	c #9F9F9F",
"#.	c #A4A4A4",
"$.	c #404040",
"%.	c #505050",
"&.	c #3A3A3A",
"*.	c #484848",
"=.	c #424242",
"-.	c #9D9D9D",
";.	c #191919",
">.	c #030201",
",.	c #554724",
"'.	c #807865",
").	c #040403",
"!.	c #5B5B5B",
"~.	c #DDDDDD",
"{.	c #230503",
"].	c #2E0704",
"^.	c #242424",
"/.	c #515151",
"(.	c #555555",
"_.	c #040404",
":.	c #29210E",
"<.	c #C8AF71",
"[.	c #E9DFC8",
"}.	c #B39759",
"|.	c #72491B",
"1.	c #010000",
"2.	c #DED9D9",
"3.	c #CB5F59",
"4.	c #E42C21",
"5.	c #F29792",
"6.	c #7E2621",
"7.	c #76622F",
"8.	c #F7E6B8",
"9.	c #FFECBB",
"0.	c #FFBB4C",
"a.	c #E08536",
"b.	c #B2672B",
"c.	c #422610",
"d.	c #8A3833",
"e.	c #B11911",
"f.	c #CF1F14",
"g.	c #F07036",
"h.	c #F69D4D",
"i.	c #9A672D",
"j.	c #29220F",
"k.	c #C8AE6B",
"l.	c #FFF3D6",
"m.	c #FFD578",
"n.	c #FFA63D",
"o.	c #FF933D",
"p.	c #BC6F2F",
"q.	c #1B1008",
"r.	c #AA1810",
"s.	c #B01911",
"t.	c #DC6029",
"u.	c #FFB43E",
"v.	c #FFCF54",
"w.	c #FFEDBF",
"x.	c #9D7F32",
"y.	c #010100",
"z.	c #030302",
"A.	c #77622D",
"B.	c #F8E3B0",
"C.	c #FFEAB4",
"D.	c #FFBB49",
"E.	c #FF983D",
"F.	c #B87032",
"G.	c #160F07",
"H.	c #5D0D09",
"I.	c #BB2B17",
"J.	c #FE923D",
"K.	c #FFD15A",
"L.	c #FFEEC1",
"M.	c #8C712C",
"N.	c #2A220F",
"O.	c #C8AC65",
"P.	c #F6EED9",
"Q.	c #FCD478",
"R.	c #FFA73D",
"S.	c #F28E3C",
"T.	c #67411E",
"U.	c #8D3819",
"V.	c #FF943D",
"W.	c #FFB53E",
"X.	c #FFD361",
"Y.	c #FFEEC3",
"Z.	c #7A6326",
"`.	c #342B12",
" +	c #F8D06C",
".+	c #C5C4C3",
"++	c #B7B6B6",
"@+	c #D3AB8A",
"#+	c #C17432",
"$+	c #21160B",
"%+	c #040301",
"&+	c #B0682A",
"*+	c #FFB63E",
"=+	c #FFD569",
"-+	c #FFEEC4",
";+	c #695521",
">+	c #806622",
",+	c #FDD163",
"'+	c #CBCACA",
")+	c #DB9C69",
"!+	c #F7903D",
"~+	c #724720",
"{+	c #070402",
"]+	c #B76C2C",
"^+	c #FFB73E",
"/+	c #FFD771",
"(+	c #FDEDC4",
"_+	c #59481C",
":+	c #58481D",
"<+	c #FFC83D",
"[+	c #F0BB5F",
"}+	c #EC9753",
"|+	c #CA7833",
"1+	c #281A0D",
"2+	c #090602",
"3+	c #BF712E",
"4+	c #FFB83E",
"5+	c #FFDA7A",
"6+	c #FAEAC2",
"7+	c #4A3C17",
"8+	c #745D23",
"9+	c #B98E33",
"0+	c #754920",
"a+	c #0C0803",
"b+	c #C87630",
"c+	c #FFE8AF",
"d+	c #F6D172",
"e+	c #3D300F",
"f+	c #100A04",
"g+	c #D07A32",
"h+	c #FFB33F",
"i+	c #FDA33D",
"j+	c #D78034",
"k+	c #231408",
"l+	c #150D05",
"m+	c #D77E34",
"n+	c #834C1F",
"o+	c #1C1107",
"p+	c #DF8235",
"q+	c #FF963D",
"r+	c #4F2D13",
"s+	c #241609",
"t+	c #D67E33",
"u+	c #925423",
"v+	c #090502",
"w+	c #482A11",
"x+	c #28170A",
"                                                                ",
"            . .                               .                 ",
"          . + @ . .                         . # .               ",
"        . $ % & * = .                   . - ; > ,               ",
"      . ' ) ! ~ { ] ^ . .           . / ( _ : < [ .             ",
"      . } | 1 2 3 4 5 6 7 .     . 8 9 _ > 0 a { - .             ",
"      . $ 0 b { c d e f / .     . g h i j a k l .               ",
"        . m n o a p q 5 r .     . ; h < a : s         .         ",
"        . t u v w x 5 5 y .     . z A < B C .   . . / D .       ",
"          . E F G 5 5 5 H .     . I 0 < < G J . K L < 0 M       ",
"            . z N O P Q R S . . 7 T a 0 < U o V B A A B S .     ",
"            . . . . . W X R E . Y Z Z : j < ` n _ < d  ., .     ",
"                      . ..+.R J = @.Q f #.A ` < U j $.. .       ",
"                      . . %.R R &./ *.=.6 a d f -.;..           ",
"                  . >.,.'.).!.~.R W {.].. ^./.(._..             ",
"                . :.<.[.}.|.1.I 2.3.4.5.6.1.. . .               ",
"            . >.7.8.9.0.a.b.c.. d.e.f.g.h.i.>..                 ",
"          . j.k.l.m.n.o.o.p.q.. r.s.t.u.v.w.x.y..               ",
"        z.A.B.C.D.E.o.o.F.G.. . H.I.J.o.u.K.L.M.. .             ",
"    . N.O.P.Q.R.o.o.S.T.. . . . . U.o.o.V.W.X.Y.Z.. .           ",
"  . `. +.+++@+o.o.#+$+.     .   . %+&+o.o.V.*+=+-+;+.           ",
"  . >+,+j '+)+!+~+1..             . {+]+o.o.V.^+/+(+_+.         ",
"  . :+<+[+}+|+1+.                   . 2+3+o.o.V.4+5+6+7+.       ",
"  . . 8+9+0+>..                       . a+b+o.o.V.4+c+d+e+.     ",
"    . . . .                             . f+g+o.o.V.h+i+j+k+.   ",
"                                          . l+m+o.o.o.o.o.n+.   ",
"                                            . o+p+q+o.o.o.r+.   ",
"                                              . s+t+o.o.u+. .   ",
"                                                . v+w+x+. .     ",
"                                                  . . . .       ",
"                                                                ",
"                                                                "};
