/* XPM */
static char * faq_mini_xpm[] = {
"32 32 201 2",
"  	c None",
". 	c #000000",
"+ 	c #06090E",
"@ 	c #00060F",
"# 	c #0A1A34",
"$ 	c #1C355C",
"% 	c #335487",
"& 	c #6481AC",
"* 	c #5C759B",
"= 	c #253855",
"- 	c #0A0F17",
"; 	c #000205",
"> 	c #010F24",
", 	c #062048",
"' 	c #10356E",
") 	c #264E8B",
"! 	c #627FAB",
"~ 	c #4D6EA0",
"{ 	c #607DAA",
"] 	c #6F89B2",
"^ 	c #90A5C4",
"/ 	c #4B6C9F",
"( 	c #3A5E95",
"_ 	c #2C4771",
": 	c #142135",
"< 	c #020305",
"[ 	c #000204",
"} 	c #00102A",
"| 	c #002050",
"1 	c #043074",
"2 	c #244D8A",
"3 	c #325892",
"4 	c #7790B7",
"5 	c #859CBE",
"6 	c #839ABD",
"7 	c #5070A2",
"8 	c #29518D",
"9 	c #1F4988",
"0 	c #234C8A",
"a 	c #274E8C",
"b 	c #2A528D",
"c 	c #2E548F",
"d 	c #2D5086",
"e 	c #1B3152",
"f 	c #080E18",
"g 	c #000B1B",
"h 	c #002B6E",
"i 	c #002F77",
"j 	c #3B5F96",
"k 	c #ABBBD2",
"l 	c #728CB4",
"m 	c #9CAECA",
"n 	c #254D8A",
"o 	c #184284",
"p 	c #05337A",
"q 	c #033279",
"r 	c #06347A",
"s 	c #09377C",
"t 	c #0C387D",
"u 	c #0D3A7E",
"v 	c #0E3A7E",
"w 	c #103C80",
"x 	c #143F82",
"y 	c #1A4485",
"z 	c #224A88",
"A 	c #1D3B69",
"B 	c #0D1B2F",
"C 	c #010203",
"D 	c #00112B",
"E 	c #001A41",
"F 	c #00255D",
"G 	c #002E75",
"H 	c #0B387D",
"I 	c #023078",
"J 	c #0A377C",
"K 	c #0F3774",
"L 	c #0B2142",
"M 	c #03060C",
"N 	c #001638",
"O 	c #001535",
"P 	c #001637",
"Q 	c #001F4F",
"R 	c #002A6B",
"S 	c #002E74",
"T 	c #042E6E",
"U 	c #021736",
"V 	c #001B43",
"W 	c #001940",
"X 	c #00183C",
"Y 	c #001639",
"Z 	c #001A42",
"` 	c #002E76",
" .	c #002A6A",
"..	c #00265F",
"+.	c #00245A",
"@.	c #062B62",
"#.	c #102E5C",
"$.	c #000F26",
"%.	c #000E25",
"&.	c #001E4C",
"*.	c #001C48",
"=.	c #001B44",
"-.	c #00183D",
";.	c #00173A",
">.	c #001F50",
",.	c #002D73",
"'.	c #001D4A",
").	c #00193E",
"!.	c #0B2751",
"~.	c #4F698D",
"{.	c #9CB1C8",
"].	c #E3F0F7",
"^.	c #55585A",
"/.	c #000001",
"(.	c #000C1D",
"_.	c #001B45",
":.	c #002153",
"<.	c #001D48",
"[.	c #00183E",
"}.	c #00245C",
"|.	c #002E73",
"1.	c #002155",
"2.	c #001536",
"3.	c #000F25",
"4.	c #0F2443",
"5.	c #546C88",
"6.	c #A0B6CA",
"7.	c #E5F3FA",
"8.	c #F1FCFF",
"9.	c #4F5C6B",
"0.	c #00050C",
"a.	c #000A19",
"b.	c #001A43",
"c.	c #002358",
"d.	c #002154",
"e.	c #001E4D",
"f.	c #001D49",
"g.	c #001B46",
"h.	c #00193F",
"i.	c #000916",
"j.	c #0D1A2A",
"k.	c #557088",
"l.	c #9AB9CE",
"m.	c #D4F0F9",
"n.	c #DDF5FC",
"o.	c #E2F6FD",
"p.	c #E7F9FE",
"q.	c #ECFAFE",
"r.	c #F0FCFF",
"s.	c #EEF9FC",
"t.	c #3C5F8F",
"u.	c #002C6E",
"v.	c #000C1F",
"w.	c #000815",
"x.	c #00245B",
"y.	c #002051",
"z.	c #001F4D",
"A.	c #050C17",
"B.	c #A6CEE1",
"C.	c #C8EDFA",
"D.	c #CDEFFA",
"E.	c #D2F1FB",
"F.	c #D7F3FC",
"G.	c #DCF5FC",
"H.	c #C8DCE5",
"I.	c #8FA3B5",
"J.	c #526A8A",
"K.	c #153667",
"L.	c #002865",
"M.	c #002B6D",
"N.	c #001029",
"O.	c #000610",
"P.	c #00255E",
"Q.	c #002359",
"R.	c #002255",
"S.	c #1B2937",
"T.	c #BDE9F8",
"U.	c #C2EBF8",
"V.	c #BFE4EF",
"W.	c #92ADBA",
"X.	c #5D7486",
"Y.	c #243A56",
"Z.	c #011B43",
"`.	c #00050D",
" +	c #002661",
".+	c #00040A",
"++	c #4F6773",
"@+	c #334452",
"#+	c #061326",
"$+	c #001433",
"%+	c #001331",
"&+	c #000A1A",
"*+	c #000101",
"=+	c #001C47",
"-+	c #000408",
";+	c #000712",
">+	c #000D21",
",+	c #001028",
"'+	c #000D20",
")+	c #000308",
"!+	c #000309",
"                                                                ",
"                                                                ",
"                                                                ",
"                                                                ",
"                                                                ",
"                                                                ",
"                                                                ",
"                                                                ",
"                                                                ",
"                                                                ",
"                                                                ",
"                            .                                   ",
"                    . . . . + . . .                             ",
"              . . . @ # $ % & * = - . .                         ",
"        . . ; > , ' ) ! ~ { ] ^ / ( _ : < . .                   ",
"    . [ } | 1 2 3 4 5 6 ~ 7 8 9 0 a b c d e f . .               ",
"  . g h i j k l m n o p q r s t u u v w x y z A B C . .         ",
"  . D E F G i H i i i i i i i i i i i i i i i I J K L M .       ",
"  . N N O P Q R i i i i i i i i i i i i i i i i i i S T U .     ",
"  . N V W X Y O Z F S i i i i i i i i i i i `  ...+.@.#.$..     ",
"  . %.Q &.*.=.E -.;.;.>. .i i i i i i ,.F '.).!.~.{.].^.. .     ",
"  . /.(._.:.>.&.<._.E [.;.=.}.|.S 1.2.3.4.5.6.7.8.8.8.9.0..     ",
"      . . a.b.c.d.| e.f.g.Z h.2.i.j.k.l.m.n.o.p.q.r.s.t.u.v..   ",
"          . . w.W x.c.d.y.z.'.v.A.B.C.D.E.F.G.H.I.J.K.L.M.N..   ",
"              . . O.[.P.}.Q.R.a.S.T.U.V.W.X.Y.Z.&.R.x.b.v..     ",
"                  . . `.X  + +$..+++@+#+} $+=.Z %+&+*+. .       ",
"                      . . .+;.=+-+;+>+D ,+'+.+. . .             ",
"                          . . )+w.O.!+. . . .                   ",
"                              . . . .                           ",
"                                                                ",
"                                                                ",
"                                                                "};
