/* XPM */
static char * importieren_mini_xpm[] = {
"32 35 225 2",
"  	c None",
". 	c #0B3106",
"+ 	c #092B05",
"@ 	c #0A3006",
"# 	c #082705",
"$ 	c #0C3907",
"% 	c #0D3A07",
"& 	c #0D3C07",
"* 	c #0C3A07",
"= 	c #0B3206",
"- 	c #0B3406",
"; 	c #0D3B07",
"> 	c #0C3606",
", 	c #072104",
"' 	c #0B3306",
") 	c #0E4108",
"! 	c #13550B",
"~ 	c #12520A",
"{ 	c #0B3506",
"] 	c #0D3D07",
"^ 	c #114E0A",
"/ 	c #218913",
"( 	c #2AA719",
"_ 	c #269E15",
": 	c #13530A",
"< 	c #0B2F06",
"[ 	c #13540B",
"} 	c #249714",
"| 	c #34B223",
"1 	c #60C352",
"2 	c #30B11F",
"3 	c #239014",
"4 	c #114B09",
"5 	c #082704",
"6 	c #14580B",
"7 	c #259B15",
"8 	c #2AAF18",
"9 	c #30B11E",
"0 	c #A1DC99",
"a 	c #8BD381",
"b 	c #2EB01C",
"c 	c #208512",
"d 	c #0F4308",
"e 	c #218D12",
"f 	c #27A616",
"g 	c #5DC24F",
"h 	c #E6F5E4",
"i 	c #84D17A",
"j 	c #30AE1F",
"k 	c #1C7810",
"l 	c #0C3706",
"m 	c #114E09",
"n 	c #1E8210",
"o 	c #208C11",
"p 	c #219112",
"q 	c #28A616",
"r 	c #33B221",
"s 	c #A6DD9F",
"t 	c #EDF8EB",
"u 	c #80CF75",
"v 	c #2EAB1D",
"w 	c #165F0C",
"x 	c #0C3807",
"y 	c #196C0D",
"z 	c #219212",
"A 	c #28AA17",
"B 	c #43B833",
"C 	c #D7F0D3",
"D 	c #EDF8EC",
"E 	c #7BCE70",
"F 	c #269E16",
"G 	c #13510A",
"H 	c #0A2E06",
"I 	c #155F0B",
"J 	c #208B11",
"K 	c #239513",
"L 	c #29AA17",
"M 	c #5CC24E",
"N 	c #DFF3DD",
"O 	c #F5FBF4",
"P 	c #6FC963",
"Q 	c #269317",
"R 	c #114A09",
"S 	c #0F4408",
"T 	c #1C790F",
"U 	c #208D11",
"V 	c #239814",
"W 	c #29AC18",
"X 	c #2DB01B",
"Y 	c #6EC962",
"Z 	c #E5F5E3",
"` 	c #E4F5E2",
" .	c #65C359",
"..	c #228614",
"+.	c #0C3806",
"@.	c #0E3E07",
"#.	c #114D09",
"$.	c #1E8410",
"%.	c #249C14",
"&.	c #2AAE18",
"*.	c #6BC75F",
"=.	c #F1FAF0",
"-.	c #DBF1D8",
";.	c #57BE49",
">.	c #1B730F",
",.	c #0E3F07",
"'.	c #18680D",
").	c #18670D",
"!.	c #1F8610",
"~.	c #26A216",
"{.	c #61C454",
"].	c #D9F1D6",
"^.	c #DEF3DC",
"/.	c #49B73A",
"(.	c #1B7210",
"_.	c #0E4008",
":.	c #239314",
"<.	c #2AAD18",
"[.	c #229013",
"}.	c #17650C",
"|.	c #208A11",
"1.	c #2CB01A",
"2.	c #58C04A",
"3.	c #C1E7BB",
"4.	c #BAE5B4",
"5.	c #3DAF2D",
"6.	c #0E4208",
"7.	c #0F4208",
"8.	c #17630D",
"9.	c #259C15",
"0.	c #239514",
"a.	c #1A710E",
"b.	c #229413",
"c.	c #29AB17",
"d.	c #3CB62C",
"e.	c #99D991",
"f.	c #76CC6A",
"g.	c #29AB18",
"h.	c #208712",
"i.	c #208612",
"j.	c #28A917",
"k.	c #2AAF19",
"l.	c #249614",
"m.	c #1C780F",
"n.	c #239713",
"o.	c #2BAF19",
"p.	c #31B11F",
"q.	c #3FB72F",
"r.	c #37B426",
"s.	c #239214",
"t.	c #1C7C0F",
"u.	c #25A015",
"v.	c #2FB11E",
"w.	c #A5DD9E",
"x.	c #FAFDF9",
"y.	c #61C353",
"z.	c #228F13",
"A.	c #1E8510",
"B.	c #218F12",
"C.	c #2EB11C",
"D.	c #ADE0A6",
"E.	c #FFFFFE",
"F.	c #79CC6D",
"G.	c #218C13",
"H.	c #0D3E07",
"I.	c #1F8911",
"J.	c #249A14",
"K.	c #66C659",
"L.	c #F9FCF8",
"M.	c #82D077",
"N.	c #208912",
"O.	c #186C0D",
"P.	c #3BB52B",
"Q.	c #D6F0D3",
"R.	c #87D27D",
"S.	c #1F8312",
"T.	c #0A2C05",
"U.	c #1F8811",
"V.	c #229312",
"W.	c #2FB11D",
"X.	c #9EDB96",
"Y.	c #88D37F",
"Z.	c #1D7C10",
"`.	c #0D3907",
" +	c #0F4508",
".+	c #1C7A0F",
"++	c #26A015",
"@+	c #62C455",
"#+	c #81D076",
"$+	c #2BAE19",
"%+	c #1B750F",
"&+	c #0A3105",
"*+	c #19700D",
"=+	c #34B323",
"-+	c #6CC85F",
";+	c #2AAC18",
">+	c #1A6E0F",
",+	c #15600B",
"'+	c #1F8A11",
")+	c #40B730",
"!+	c #0C3707",
"~+	c #104809",
"{+	c #1D800F",
"]+	c #26A215",
"^+	c #29A917",
"/+	c #16610C",
"(+	c #124F09",
"_+	c #259E15",
":+	c #28A817",
"<+	c #145A0B",
"[+	c #14590B",
"}+	c #1B760F",
"|+	c #1F8611",
"1+	c #229212",
"2+	c #239813",
"3+	c #28A517",
"4+	c #1D7E10",
"5+	c #1F8711",
"6+	c #229213",
"7+	c #229313",
"8+	c #249913",
"9+	c #27A316",
"0+	c #124E0A",
"a+	c #13520A",
"b+	c #124F0A",
"                                                                ",
"                                                                ",
"                                                                ",
"                    . + @                                       ",
"              # $ % & & & * =                                   ",
"            - ; & & & & & & ; >                                 ",
"        , ' & & & & ) ! ~ & & & -                               ",
"        { & & & ] ^ / ( _ : & & ; <                             ",
"      $ & & & ] [ } | 1 2 3 4 & & $ 5                           ",
"    = & & & & 6 7 8 9 0 a b c d & & %                           ",
"    ; & & & ~ e f 8 8 g h i j k ] & & l                         ",
"  $ & & & m n o p q 8 r s t u v w ] & & '                 > x   ",
"  & & & & y o o o z A 8 B C D E F G & & & H           ' % & &   ",
"  & & & & I J o o o K L 8 M N O P Q R & & & .     + l ; & & &   ",
"    & & & S T o o o U V W X Y Z `  ...) & & & x +.; & ] @.& &   ",
"    & & & & #.$.o o o U %.&.X *.=.-.;.>.,.& & & & & ) '.).] &   ",
"      & & & & 6 !.o o o U ~.&.8 {.].^./.(._.& & ] ~ :.<.[.@.&   ",
"        & & & ,.}.|.o o o p f 8 1.2.3.4.5.>.6.7.8.9.&.8 0.,.&   ",
"          & & & ) a.J o o o b.c.8 8 d.e.f.g.h.i.j.k.8 8 l.,.&   ",
"            & & & 6.m.o o o o n.&.8 8 o.p.8 8 8 q.a r.8 s.@.&   ",
"              & & & 4 t.o o o U u.&.8 8 8 8 8 v.w.x.y.8 z.@.&   ",
"                & & & ~ A.o o o B.f 8 8 8 8 8 C.D.E.F.8 G.H.&   ",
"                  $ & ] 6 I.o o o J.&.8 8 8 8 8 K.L.M.8 N.H.&   ",
"                  + & & H.O.J o U ~.8 8 8 8 8 8 P.Q.R.o.S.] &   ",
"                  T.& & & 6 U.o V.c.8 8 8 8 8 8 W.X.Y.o.Z.] &   ",
"                  `.& &  +.+o o ++8 8 8 8 8 8 8 8 @+#+$+%+] &   ",
"                &+& & 6.*+J o o q 8 8 8 8 8 8 8 8 =+-+;+>+& &   ",
"                $ & ] ,+'+o o o ~.8 8 8 8 8 8 8 8 o.)+g.).& &   ",
"              !+& & ~+{+o o o o p ]+&.8 8 8 8 8 8 8 o.^+/+& &   ",
"            $ & & & (+!.o o o o o U V._+f c.8 8 8 8 8 :+<+& &   ",
"            & & & & _.[+}+|+|.o U U o U B.1+2+++f c.&.3+[ & &   ",
"          & & & & & & & ,.4 [+'.%+4+5+e 6+7+1+p V.8+^+9+0+& &   ",
"              & & & & & & & & ] ] H.@.,.,.6.~+0+: a+b+ +] & &   ",
"                        & & & & & & & & & & & & & & & & & & &   ",
"                                                                "};
