/* XPM */
static char * klasse_loeschen_mini_xpm[] = {
"32 32 267 2",
"  	c None",
". 	c #4F647D",
"+ 	c #7189A2",
"@ 	c #7491AA",
"# 	c #7590A7",
"$ 	c #7290A7",
"% 	c #708CA4",
"& 	c #5D758B",
"* 	c #5E768C",
"= 	c #5F7790",
"- 	c #3D4E67",
"; 	c #41526C",
"> 	c #C3A4B6",
", 	c #FE0405",
"' 	c #DB848A",
") 	c #FA994B",
"! 	c #E1B282",
"~ 	c #3BB434",
"{ 	c #50BC56",
"] 	c #BAE6FF",
"^ 	c #7E888E",
"/ 	c #C3C3C3",
"( 	c #C1C1C1",
"_ 	c #7D8F99",
": 	c #6A859E",
"< 	c #40516A",
"[ 	c #B9A7BB",
"} 	c #F71B1E",
"| 	c #D5949E",
"1 	c #F4A05C",
"2 	c #DDB995",
"3 	c #48B248",
"4 	c #325E19",
"5 	c #5C4D56",
"6 	c #AED2E9",
"7 	c #B8E2FB",
"8 	c #757784",
"9 	c #787B88",
"0 	c #B2D9F1",
"a 	c #7C8A92",
"b 	c #A7A7A7",
"c 	c #A4A4A4",
"d 	c #8096A2",
"e 	c #637C95",
"f 	c #4C5C74",
"g 	c #44566F",
"h 	c #688097",
"i 	c #7C93A9",
"j 	c #788DA2",
"k 	c #4D2E34",
"l 	c #A30D01",
"m 	c #B71508",
"n 	c #49262A",
"o 	c #74879B",
"p 	c #798FA5",
"q 	c #54404A",
"r 	c #AB1004",
"s 	c #A60D00",
"t 	c #4B262A",
"u 	c #75889D",
"v 	c #7A91A6",
"w 	c #788EA4",
"x 	c #52667F",
"y 	c #7C8798",
"z 	c #FAFAFB",
"A 	c #FFFFFF",
"B 	c #9E8A8A",
"C 	c #9F0C00",
"D 	c #FF4C3C",
"E 	c #FFDFDC",
"F 	c #C13227",
"G 	c #623938",
"H 	c #F1EEEE",
"I 	c #FAF9F9",
"J 	c #7F5D5C",
"K 	c #B92317",
"L 	c #FFCBC6",
"M 	c #FF6052",
"N 	c #A70C00",
"O 	c #897171",
"P 	c #DEE1E5",
"Q 	c #48586F",
"R 	c #C9CED5",
"S 	c #866D6D",
"T 	c #A30C00",
"U 	c #FF1601",
"V 	c #FF958C",
"W 	c #FFE2E0",
"X 	c #BD2E22",
"Y 	c #633C3B",
"Z 	c #E4E9F0",
"` 	c #EBF0F7",
" .	c #7A5554",
"..	c #C0271A",
"+.	c #FFD7D3",
"@.	c #FFB9B3",
"#.	c #FF1E09",
"$.	c #B30E00",
"%.	c #5E3C3C",
"&.	c #FEFEFE",
"*.	c #7A8697",
"=.	c #D0D4DA",
"-.	c #FCFDFE",
";.	c #CAD5E4",
">.	c #C7D4E8",
",.	c #433245",
"'.	c #B20E00",
").	c #FF1702",
"!.	c #FF9E96",
"~.	c #FFDDDA",
"{.	c #B9291D",
"].	c #3C293D",
"^.	c #433249",
"/.	c #C52B1E",
"(.	c #FFDAD7",
"_.	c #FFB4AE",
":.	c #FF1C08",
"<.	c #BA0E00",
"[.	c #4E2221",
"}.	c #DFD9D9",
"|.	c #818C9C",
"1.	c #F5F9FD",
"2.	c #AAC6E4",
"3.	c #ABC8E6",
"4.	c #84B0DD",
"5.	c #4E323A",
"6.	c #B80E00",
"7.	c #FF1904",
"8.	c #FFA79F",
"9.	c #B82519",
"0.	c #C92E22",
"a.	c #FFDCD9",
"b.	c #FFAFA8",
"c.	c #FF1C07",
"d.	c #B60E00",
"e.	c #441E21",
"f.	c #C5C8D2",
"g.	c #FAFBFD",
"h.	c #C9CBCD",
"i.	c #98A0AA",
"j.	c #9AA3AE",
"k.	c #AEB0B6",
"l.	c #5A3332",
"m.	c #BD0E00",
"n.	c #FF1B06",
"o.	c #FFB0A8",
"p.	c #FFD5D1",
"q.	c #FFAAA2",
"r.	c #B10D00",
"s.	c #4B2222",
"t.	c #C6C1C0",
"u.	c #E6EAF0",
"v.	c #BBBEC2",
"w.	c #617288",
"x.	c #66788F",
"y.	c #A4AFBA",
"z.	c #D4D2D2",
"A.	c #5B3130",
"B.	c #C40F00",
"C.	c #FF1D09",
"D.	c #FF9B92",
"E.	c #FF8F85",
"F.	c #FF1A06",
"G.	c #AD0D00",
"H.	c #502828",
"I.	c #CEC9C9",
"J.	c #E1E1E1",
"K.	c #DEDEDE",
"L.	c #CECBCC",
"M.	c #663331",
"N.	c #D41100",
"O.	c #FF1500",
"P.	c #F10F00",
"Q.	c #F21000",
"R.	c #AC0D00",
"S.	c #613E3E",
"T.	c #D8D7D7",
"U.	c #D0CDCD",
"V.	c #64302F",
"W.	c #D71100",
"X.	c #E90C00",
"Y.	c #CE0100",
"Z.	c #ED0E00",
"`.	c #A40C00",
" +	c #694A49",
".+	c #DAD9D9",
"++	c #CECACA",
"@+	c #662F2D",
"#+	c #DA1100",
"$+	c #E80C00",
"%+	c #930600",
"&+	c #B90900",
"*+	c #EF0F00",
"=+	c #9D0B00",
"-+	c #6F5252",
";+	c #E2E6EB",
">+	c #F6F8FB",
",+	c #C9D5E2",
"'+	c #BEC2CD",
")+	c #662D2B",
"!+	c #DD1200",
"~+	c #CE0200",
"{+	c #890600",
"]+	c #4F3137",
"^+	c #502225",
"/+	c #BD0900",
"(+	c #F11000",
"_+	c #960B00",
":+	c #7D6365",
"<+	c #FCFCFC",
"[+	c #6B3735",
"}+	c #E01200",
"|+	c #E70B00",
"1+	c #850500",
"2+	c #674747",
"3+	c #F5F3F3",
"4+	c #E7E3E3",
"5+	c #5B2827",
"6+	c #BF0800",
"7+	c #F31000",
"8+	c #FE1500",
"9+	c #880A00",
"0+	c #A69393",
"a+	c #7B4745",
"b+	c #F31400",
"c+	c #CD0200",
"d+	c #800500",
"e+	c #6A4B4B",
"f+	c #F6F4F4",
"g+	c #E4DFDF",
"h+	c #5A2423",
"i+	c #C10800",
"j+	c #CF0200",
"k+	c #F51100",
"l+	c #A28E8E",
"m+	c #CFD4DA",
"n+	c #E0DADA",
"o+	c #83211B",
"p+	c #D60D00",
"q+	c #7E0500",
"r+	c #6D4F4F",
"s+	c #F7F5F5",
"t+	c #5A211F",
"u+	c #BD0800",
"v+	c #B30A00",
"w+	c #551E1C",
"x+	c #ECE9E9",
"y+	c #B0B7C1",
"z+	c #6D4A4A",
"A+	c #775B5B",
"B+	c #F8F6F6",
"C+	c #DDD6D6",
"D+	c #684646",
"E+	c #846B6B",
"F+	c #E2DCDC",
"G+	c #627084",
"H+	c #4C5C75",
"I+	c #495971",
"J+	c #A0A8B4",
"K+	c #B4BBC5",
"L+	c #B4BAC4",
"M+	c #B2B9C3",
"N+	c #6A7A91",
"O+	c #3B4B63",
"P+	c #51627A",
"Q+	c #52637B",
"R+	c #56677F",
"                                                                ",
"                                                                ",
"                                                                ",
"                                                                ",
"                                                                ",
"                                                                ",
"        . + @ # @ $ @ @ @ @ @ @ @ @ @ @ @ @ @ @ % & * = -       ",
"      ; > , ' ) ! ~ { ] ] ] ] ] ] ] ] ] ] ] ] ] ^ / ( _ :       ",
"      < [ } | 1 2 3 4 5 6 ] ] ] ] ] ] 7 8 9 0 ] a b c d e f     ",
"      - g h i i j k l m n o i i i i p q r s t u i v w x - f     ",
"      - y z A A B C D E F G H A A I J K L M N O A A A P Q f     ",
"      - R A A A S T U V W X Y Z `  ...+.@.#.$.%.&.A A A *.f     ",
"      - =.A -.;.>.,.'.).!.~.{.].^./.(._.:.<.[.}.A A A A |.f     ",
"      - =.A 1.2.3.4.5.6.7.8.+.9.0.a.b.c.d.e.f.A A A A A |.f     ",
"      - =.A g.h.i.j.k.l.m.n.o.p.E q.n.r.s.t.u.A A A A A |.f     ",
"      - =.A g.v.w.x.y.z.A.B.C.D.E.F.G.H.I.J.u.A A A A A |.f     ",
"      - =.A g.K.K.K.K.L.M.N.O.P.Q.O.R.S.T.K.u.A A A A A |.f     ",
"      - =.A g.K.K.K.U.V.W.O.X.Y.Y.Z.O.`. +.+u.A A A A A |.f     ",
"      - =.A g.K.K.++@+#+O.$+Y.%+&+Y.*+O.=+-+;+A A A A A |.f     ",
"      - =.A >+,+'+)+!+O.$+~+{+]+^+/+Y.(+O._+:+<+A A A A |.f     ",
"      - =.A A <+[+}+O.|+Y.1+2+3+4+5+6+Y.7+8+9+0+A A A A |.f     ",
"      - =.A A &.a+b+$+c+d+e+f+A A g+h+i+j+k+`.l+A A A A |.f     ",
"      - m+A A A n+o+p+q+r+s+A A A A n+t+u+v+w+x+A A A A |.f     ",
"      - y+A A A A n+z+A+B+A A A A A A C+D+E+F+A A A A &.G+H+    ",
"        I+J+K+K+K+K+L+L+K+K+K+K+K+K+K+K+K+K+K+K+K+K+M+y - N+    ",
"        O+P+P+P+P+P+P+P+P+P+P+P+P+P+P+P+P+P+P+P+P+P+P+Q+R+      ",
"                                                                ",
"                                                                ",
"                                                                ",
"                                                                ",
"                                                                ",
"                                                                "};
