/* XPM */
static char * bearbeiten_kompilieren_mini_xpm[] = {
"32 32 282 2",
"  	c None",
". 	c #132605",
"+ 	c #1F3111",
"@ 	c #4C5A41",
"# 	c #5F6C55",
"$ 	c #59664F",
"% 	c #404F34",
"& 	c #192C0B",
"* 	c #1B2E0E",
"= 	c #9CA496",
"- 	c #FAFAF9",
"; 	c #FFFFFF",
"> 	c #FAFAFA",
", 	c #D0D4CE",
"' 	c #8F9888",
") 	c #48563D",
"! 	c #142706",
"~ 	c #B4BAB0",
"{ 	c #DFE2DD",
"] 	c #737F6B",
"^ 	c #3F4E34",
"/ 	c #889281",
"( 	c #305D0E",
"_ 	c #3D7612",
": 	c #162B06",
"< 	c #2C3D20",
"[ 	c #F2F3F2",
"} 	c #FCFCFC",
"| 	c #BEC3BA",
"1 	c #8C9585",
"2 	c #7E8876",
"3 	c #9DA597",
"4 	c #C8CCC5",
"5 	c #354C24",
"6 	c #56A719",
"7 	c #4B9316",
"8 	c #182E08",
"9 	c #192B0B",
"0 	c #1C3708",
"a 	c #57644D",
"b 	c #F7F8F6",
"c 	c #CCD0C9",
"d 	c #364929",
"e 	c #2C560C",
"f 	c #3C7411",
"g 	c #3F7C12",
"h 	c #386E10",
"i 	c #2C530F",
"j 	c #58684D",
"k 	c #355C19",
"l 	c #5CB31B",
"m 	c #448514",
"n 	c #5E6B54",
"o 	c #3B4A2F",
"p 	c #274C0B",
"q 	c #33640F",
"r 	c #445538",
"s 	c #DADDD8",
"t 	c #F4F5F4",
"u 	c #2A4317",
"v 	c #52A018",
"w 	c #54A419",
"x 	c #2D590D",
"y 	c #2E5611",
"z 	c #D1D5CE",
"A 	c #3A4A2E",
"B 	c #142805",
"C 	c #27470F",
"D 	c #7B8673",
"E 	c #E4E6E2",
"F 	c #385423",
"G 	c #5BB11B",
"H 	c #4C9416",
"I 	c #2E5A0D",
"J 	c #304C1B",
"K 	c #284811",
"L 	c #386D10",
"M 	c #59AD1A",
"N 	c #4C9516",
"O 	c #498F15",
"P 	c #90998A",
"Q 	c #C6CBC3",
"R 	c #253718",
"S 	c #717D69",
"T 	c #969F90",
"U 	c #526048",
"V 	c #23440A",
"W 	c #3B7411",
"X 	c #3C7612",
"Y 	c #2A4F0F",
"Z 	c #627057",
"` 	c #7C8774",
" .	c #3E542D",
"..	c #6D7865",
"+.	c #9FA29E",
"@.	c #BBBBBB",
"#.	c #DBDCDB",
"$.	c #99A193",
"%.	c #284711",
"&.	c #56A819",
"*.	c #707B67",
"=.	c #FEFEFE",
"-.	c #172A0A",
";.	c #132606",
">.	c #838D7B",
",.	c #F8F9F8",
"'.	c #858F7E",
").	c #1D3A08",
"!.	c #33630E",
"~.	c #428213",
"{.	c #315F0E",
"].	c #1D330D",
"^.	c #74806C",
"/.	c #EBEBEB",
"(.	c #BEBEBE",
"_.	c #B3B3B3",
":.	c #C1C1C1",
"<.	c #A0A59C",
"[.	c #23400D",
"}.	c #8F9889",
"|.	c #E5E7E4",
"1.	c #798471",
"2.	c #FDFEFD",
"3.	c #435238",
"4.	c #122405",
"5.	c #122505",
"6.	c #162C06",
"7.	c #2B540C",
"8.	c #3E7A12",
"9.	c #25490A",
"0.	c #6A7661",
"a.	c #F9F9F9",
"b.	c #CACACA",
"c.	c #777E72",
"d.	c #22430A",
"e.	c #519E18",
"f.	c #395C1E",
"g.	c #EBEDEA",
"h.	c #7E8977",
"i.	c #C7CCC4",
"j.	c #3C7611",
"k.	c #DFDFDF",
"l.	c #B9B9B9",
"m.	c #787F72",
"n.	c #4E5D44",
"o.	c #D0D4CD",
"p.	c #B5BBB0",
"q.	c #182D09",
"r.	c #EDEEEC",
"s.	c #66735D",
"t.	c #193207",
"u.	c #438313",
"v.	c #1D3908",
"w.	c #63705A",
"x.	c #EEEFED",
"y.	c #ECECEC",
"z.	c #F9F9F8",
"A.	c #8E9787",
"B.	c #203B0C",
"C.	c #264C0B",
"D.	c #F2F3F1",
"E.	c #DDE0DB",
"F.	c #204009",
"G.	c #214209",
"H.	c #122305",
"I.	c #284E0B",
"J.	c #418013",
"K.	c #183006",
"L.	c #243617",
"M.	c #717C68",
"N.	c #9BA395",
"O.	c #2F4121",
"P.	c #2A530C",
"Q.	c #32630E",
"R.	c #132705",
"S.	c #E0E3DF",
"T.	c #929E89",
"U.	c #57A91A",
"V.	c #55A619",
"W.	c #24311B",
"X.	c #192B0C",
"Y.	c #24470A",
"Z.	c #274D0B",
"`.	c #31610E",
" +	c #417F13",
".+	c #2C560D",
"++	c #102104",
"@+	c #C6CAC2",
"#+	c #668550",
"$+	c #54A319",
"%+	c #60675C",
"&+	c #D8D8D7",
"*+	c #9EA698",
"=+	c #27381A",
"-+	c #142905",
";+	c #2A520C",
">+	c #3B7311",
",+	c #3D7712",
"'+	c #112305",
")+	c #B7BDB2",
"!+	c #7C8B71",
"~+	c #758768",
"{+	c #86907E",
"]+	c #B9BFB5",
"^+	c #F7F7F6",
"/+	c #597E3E",
"(+	c #478A15",
"_+	c #6D7369",
":+	c #E0E0E0",
"<+	c #CDD1CB",
"[+	c #132505",
"}+	c #66725C",
"|+	c #8B9683",
"1+	c #458714",
"2+	c #58AB1A",
"3+	c #375F19",
"4+	c #7D8874",
"5+	c #5A7E40",
"6+	c #366B10",
"7+	c #828680",
"8+	c #E6E6E6",
"9+	c #FDFDFD",
"0+	c #1A2D0B",
"a+	c #233516",
"b+	c #4E6A39",
"c+	c #5CB21B",
"d+	c #366A0F",
"e+	c #397011",
"f+	c #787D74",
"g+	c #F0F0F0",
"h+	c #1E380B",
"i+	c #838C7C",
"j+	c #394B2C",
"k+	c #2E481B",
"l+	c #30491E",
"m+	c #294E0F",
"n+	c #55A519",
"o+	c #3C4A32",
"p+	c #CBCFC8",
"q+	c #5A6750",
"r+	c #E7E7E7",
"s+	c #D5D5D5",
"t+	c #D3D3D3",
"u+	c #D2D2D2",
"v+	c #BFC0BE",
"w+	c #535B4D",
"x+	c #428113",
"y+	c #31600E",
"z+	c #5F6C56",
"A+	c #376D10",
"B+	c #142707",
"C+	c #D7DAD4",
"D+	c #EFEFEF",
"E+	c #44523B",
"F+	c #438314",
"G+	c #34650F",
"H+	c #A0A79A",
"I+	c #29510C",
"J+	c #376C10",
"K+	c #112104",
"L+	c #505E46",
"M+	c #E6E6E5",
"N+	c #586053",
"O+	c #1F380C",
"P+	c #65725B",
"Q+	c #929B8C",
"R+	c #274C0C",
"S+	c #478B15",
"T+	c #E6E7E5",
"U+	c #4E5F42",
"V+	c #305E0E",
"W+	c #488D15",
"X+	c #D2D6CF",
"Y+	c #949D8E",
"Z+	c #4A5A3E",
"`+	c #284E0C",
" @	c #1C2F0F",
".@	c #152807",
"+@	c #1F3E09",
"@@	c #34660F",
"#@	c #32620E",
"$@	c #264B0B",
"                                                                ",
"                            . . . .                             ",
"                      . + @ # $ % & . . . .                     ",
"                  . * = - ; ; ; ; > , ' ) ! . .                 ",
"                  . ~ ; ; ; ; ; ; ; ; ; ; { ] . . .             ",
"                . ^ ; ; ; ; ; ; ; ; ; ; ; ; / ( _ : .           ",
"                . < [ ; ; ; ; ; ; } | 1 2 3 4 5 6 7 8 9 .       ",
"                . 0 a b ; ; ; ; c d e f g h i j k l m n o .     ",
"                . p q r s ; ; t u v l l l l l w x g l y z A .   ",
"      . . . . . . B h g C D E } F G H I J K L M l N l O P Q .   ",
"    . . R S T P U . . V W X Y Z `  ...+.@.#.$.%.w l l &.*.=.-.. ",
"    ;.>.,.; ; ; ; '.. . . ).!.~.{.].^./.(._.:.<.[.&.l N }.|.. . ",
"  . 1.; ; ; ; ; ; 2.3.. 4.5.. 6.7.8.9.0.a.b._._.c.d.e.f.g.h.. 5.",
"  . i.; ; ; ; ; ; ; 4 ! 4.    4.. 6.j.9.1.=.k.l._.m.n.o.p.q..   ",
"  . r.; ; ; ; ; ; ; ; s..         . t.u.v.w.x.} y.> z.A.B.C.5.  ",
"  . D.; ; ; ; ; ; ; ; E.F.G.H.      . I.J.K.L.M.N.2 O.P.Q.R.    ",
"  . S.; ; ; ; ; ; ; ; T.U.V.W.X.5.  4.. h ~.P.Y.Z.`. +.+. ++    ",
"  . @+; ; ; ; ; ; ; ; #+l $+%+&+*+=+5.4.-+;+>+ +,+I t.. '+      ",
"  . $.; )+!+~+{+]+^+; /+l (+_+:+; <+. '+[+. . . . . 5.          ",
"  [+}+|+1+l l 2+m 3+4+5+l 6+7+8+; 9+0+. ++4.4..                 ",
"  5.a+b+c+l l l l l e.d+l e+f+g+; 9+h+. 4.                      ",
"  4.. i+j+k+l+l+m+m l l l n+o+} ; p+p . H.                      ",
"    . q+r+s+t+u+v+w+x+l l l y+c ; z+A+. 5.                      ",
"    5.B+C+; ; ; ; D+E+F+l l G+| H+I+J+.                         ",
"    K+. L+=.; ; ; ; M+N+O+Z.P+Q+R+S+G.4.                        ",
"      5.. A.; ; ; ; ; a.T+*+U+V+W+`.[+                          ",
"        . ! P D.; > X+Y+Z+`+J.1+P..                             ",
"          5.. .  @.@. +@@@#@$@: [+                              ",
"              4.. . . . . . 4.                                  ",
"                    5.4.                                        ",
"                                                                ",
"                                                                "};
