/* XPM */
static char * bearbeiten_alle_kompilieren_mini_xpm[] = {
"32 32 279 2",
"  	c None",
". 	c #000000",
"+ 	c #020202",
"@ 	c #333333",
"# 	c #595959",
"$ 	c #525252",
"% 	c #1E1E1E",
"& 	c #080808",
"* 	c #636363",
"= 	c #868686",
"- 	c #878787",
"; 	c #888888",
"> 	c #898989",
", 	c #434343",
"' 	c #191919",
") 	c #2F2F2F",
"! 	c #303030",
"~ 	c #313131",
"{ 	c #323232",
"] 	c #343434",
"^ 	c #353535",
"/ 	c #0C0C0C",
"( 	c #080000",
"_ 	c #3D0000",
": 	c #680000",
"< 	c #7F0000",
"[ 	c #840000",
"} 	c #740000",
"| 	c #500000",
"1 	c #180000",
"2 	c #0C0000",
"3 	c #6B0000",
"4 	c #BA0202",
"5 	c #CE2424",
"6 	c #C74B4B",
"7 	c #C55B5B",
"8 	c #DC5A5A",
"9 	c #DB4949",
"0 	c #D42121",
"a 	c #CD0101",
"b 	c #910000",
"c 	c #270000",
"d 	c #2E0000",
"e 	c #AF0606",
"f 	c #D75555",
"g 	c #EAA3A3",
"h 	c #E3B8B8",
"i 	c #B9B8B8",
"j 	c #B8B8B8",
"k 	c #CFB8B8",
"l 	c #F2B8B8",
"m 	c #EE9E9E",
"n 	c #DF4E4E",
"o 	c #CE0303",
"p 	c #630000",
"q 	c #010000",
"r 	c #380000",
"s 	c #C01717",
"t 	c #E38C8C",
"u 	c #EBA5A5",
"v 	c #ECA5A5",
"w 	c #D8A5A5",
"x 	c #A5A5A5",
"y 	c #A4A4A4",
"z 	c #BEA4A4",
"A 	c #F0A4A4",
"B 	c #EA8383",
"C 	c #D51212",
"D 	c #7B0000",
"E 	c #1F0000",
"F 	c #BA0C0C",
"G 	c #E18484",
"H 	c #E69292",
"I 	c #E79292",
"J 	c #E99292",
"K 	c #EA9292",
"L 	c #C49292",
"M 	c #B99191",
"N 	c #E59090",
"O 	c #EF9090",
"P 	c #EE9090",
"Q 	c #E97A7A",
"R 	c #D40808",
"S 	c #5E0000",
"T 	c #940000",
"U 	c #C04E4E",
"V 	c #987F7F",
"W 	c #A87E7E",
"X 	c #E37E7E",
"Y 	c #E67E7E",
"Z 	c #E87E7E",
"` 	c #EA7E7E",
" .	c #EB7E7E",
"..	c #ED7D7D",
"+.	c #EE7D7D",
"@.	c #EF7D7D",
"#.	c #ED7C7C",
"$.	c #EC7C7C",
"%.	c #E04444",
"&.	c #CC0000",
"*.	c #1D0000",
"=.	c #360000",
"-.	c #C00101",
";.	c #896868",
">.	c #6C6C6C",
",.	c #6B6B6B",
"'.	c #BF6A6A",
").	c #E36A6A",
"!.	c #E66A6A",
"~.	c #E86A6A",
"{.	c #EA6A6A",
"].	c #EC6A6A",
"^.	c #9A6A6A",
"/.	c #806A6A",
"(.	c #C96969",
"_.	c #EC6868",
":.	c #EA6868",
"<.	c #E65E5E",
"[.	c #D40000",
"}.	c #810000",
"|.	c #C20909",
"1.	c #905858",
"2.	c #585858",
"3.	c #5C5858",
"4.	c #CA5858",
"5.	c #E05858",
"6.	c #E35858",
"7.	c #E65858",
"8.	c #E95757",
"9.	c #EB5656",
"0.	c #C65656",
"a.	c #565656",
"b.	c #775656",
"c.	c #E85656",
"d.	c #E65555",
"e.	c #D60303",
"f.	c #C80000",
"g.	c #B20000",
"h.	c #C00202",
"i.	c #D04343",
"j.	c #AC4444",
"k.	c #C24444",
"l.	c #DA4444",
"m.	c #DD4444",
"n.	c #E34444",
"o.	c #E64343",
"p.	c #EA4343",
"q.	c #DC4343",
"r.	c #4E4343",
"s.	c #424242",
"t.	c #8F4242",
"u.	c #EA4242",
"v.	c #E74242",
"w.	c #E33D3D",
"x.	c #D60000",
"y.	c #D20000",
"z.	c #120000",
"A.	c #C00000",
"B.	c #C92222",
"C.	c #D03232",
"D.	c #D33131",
"E.	c #D63030",
"F.	c #BC3030",
"G.	c #7E3030",
"H.	c #B23030",
"I.	c #E43030",
"J.	c #E73030",
"K.	c #EA3030",
"L.	c #DD3030",
"M.	c #C63030",
"N.	c #EA2F2F",
"O.	c #E72E2E",
"P.	c #E32E2E",
"Q.	c #601C1C",
"R.	c #0E0000",
"S.	c #730000",
"T.	c #580000",
"U.	c #C10404",
"V.	c #CA1C1C",
"W.	c #CE1D1D",
"X.	c #D21D1D",
"Y.	c #381D1D",
"Z.	c #1D1D1D",
"`.	c #221D1D",
" +	c #D11C1C",
".+	c #E31C1C",
"++	c #E61C1C",
"@+	c #E81C1C",
"#+	c #E31B1B",
"$+	c #C51919",
"%+	c #030303",
"&+	c #100000",
"*+	c #640000",
"=+	c #C40303",
"-+	c #C90A0A",
";+	c #CC0A0A",
">+	c #290A0A",
",+	c #0A0A0A",
"'+	c #100A0A",
")+	c #CC0909",
"!+	c #DE0808",
"~+	c #E00808",
"{+	c #E20808",
"]+	c #D60202",
"^+	c #2B0000",
"/+	c #4F0000",
"(+	c #590000",
"_+	c #030000",
":+	c #BA0000",
"<+	c #C10000",
"[+	c #C50000",
"}+	c #C90000",
"|+	c #AC0000",
"1+	c #A10000",
"2+	c #D70000",
"3+	c #D90000",
"4+	c #DB0000",
"5+	c #DC0000",
"6+	c #DA0000",
"7+	c #D10000",
"8+	c #B60000",
"9+	c #400000",
"0+	c #8D0000",
"a+	c #C30000",
"b+	c #C70000",
"c+	c #CA0000",
"d+	c #CE0000",
"e+	c #D30000",
"f+	c #D80000",
"g+	c #BB0000",
"h+	c #BC0000",
"i+	c #4C0000",
"j+	c #B70000",
"k+	c #CD0000",
"l+	c #D00000",
"m+	c #C30607",
"n+	c #930000",
"o+	c #020000",
"p+	c #9A0000",
"q+	c #CB0000",
"r+	c #060000",
"s+	c #AD0000",
"t+	c #340000",
"u+	c #632C34",
"v+	c #B20C0E",
"w+	c #5D0000",
"x+	c #660000",
"y+	c #3B0000",
"z+	c #C60000",
"A+	c #A90D10",
"B+	c #383E49",
"C+	c #6C282F",
"D+	c #AE0000",
"E+	c #2A0000",
"F+	c #B10000",
"G+	c #7E0000",
"H+	c #280000",
"I+	c #C20000",
"J+	c #602C34",
"K+	c #3A3D48",
"L+	c #B60809",
"M+	c #C40000",
"N+	c #9B0000",
"O+	c #BE0000",
"P+	c #A30D10",
"Q+	c #752329",
"R+	c #8F0000",
"S+	c #310000",
"T+	c #5F2C34",
"U+	c #3D3943",
"V+	c #B60202",
"W+	c #520000",
"X+	c #330000",
"Y+	c #600000",
"Z+	c #060607",
"`+	c #0E1013",
" @	c #121417",
".@	c #0D0E11",
"+@	c #070000",
"                                                                ",
"                    .             .                             ",
"                    .           .                               ",
"                    . . . . . . .                               ",
"                  . . + @ # $ % . .                             ",
"                . . & * = - ; > , . .                           ",
"                . . ' ) ! ~ { ] ^ / . .                         ",
"              . . . . . . . . . . . . .                         ",
"              . . . ( _ : < [ } | 1 . . .                       ",
"              . 2 3 4 5 6 7 8 9 0 a b c .                       ",
"            . d e f g h i j k l l m n o p q                     ",
"          . r s t u v w x y z A A A A B C D .                   ",
"          E F G H I J K L M N O O O O P Q R S .                 ",
"        . T U V W X Y Z `  ...+.@.@.+.#.$.%.&.*.                ",
"        =.-.;.>.,.'.).!.~.{.].].^./.(._.:.<.[.}..               ",
"      . < |.1.2.3.4.5.6.7.8.9.0.a.a.b.9.c.d.e.f.(               ",
"      . g.h.i.j.k.l.m.%.n.o.p.q.r.s.t.u.v.w.x.y.=.              ",
"      z.A.A.B.C.D.E.F.G.H.I.J.K.L.M.N.O.P.Q.R.S.T..             ",
"      *.A.A.U.V.W.X.Y.Z.`. +.+++@+@+++#+$+%+. &+*+.             ",
"      z.A.A.A.=+-+;+>+,+'+)+!+~+{+{+~+!+]+^+. /+(+.             ",
"      _+:+A.A.<+[+}+|+p 1+2+3+4+5+5+4+6+2+7+8+&.9+.             ",
"      . 0+A.A.A.a+b+c+d+7+e+x.2+f+f+g+h+[.7+d+c+&+              ",
"      . i+A.A.A.<+j+b a+k+l+m+e+[.n+o+_+p+d+q+b .               ",
"        r+s+A.A.g+1 . t+c+&.u+v+l+w+. . x+c+b+t+.               ",
"        . y+A.A.s+. . R.z+A+B+C+&.D+E+d F+z+G+.                 ",
"          . p A.A.x+H+G+I+J+B+K+L+b+z+z+M+N+(                   ",
"            . S O+A.A.A.P+B+B+B+Q+I+I+I+R+2                     ",
"              . S+N+A.A.T+B+B+B+U+V+g.W+o+                      ",
"                . q X+Y+Z+`+ @.@%+H++@.                         ",
"                      .     .     .                             ",
"                                                                ",
"                                                                "};
