/* XPM */
static char * bearbeiten_linken_mini_xpm[] = {
"32 32 228 2",
"  	c None",
". 	c #080C10",
"+ 	c #1E303F",
"@ 	c #0B1218",
"# 	c #0C141A",
"$ 	c #5B7A95",
"% 	c #4C7396",
"& 	c #3E6180",
"* 	c #000000",
"= 	c #566E83",
"- 	c #6284A3",
"; 	c #476F93",
"> 	c #466E91",
", 	c #000101",
"' 	c #111B23",
") 	c #446684",
"! 	c #131E28",
"~ 	c #0D141A",
"{ 	c #6586A4",
"] 	c #33506A",
"^ 	c #385774",
"/ 	c #3B5C7A",
"( 	c #4E6172",
"_ 	c #557A9B",
": 	c #35536D",
"< 	c #15212B",
"[ 	c #1E2F3E",
"} 	c #1D2E3C",
"| 	c #526576",
"1 	c #4A7194",
"2 	c #3A5B79",
"3 	c #0A1015",
"4 	c #466D91",
"5 	c #101A22",
"6 	c #2E475E",
"7 	c #010202",
"8 	c #0A0F14",
"9 	c #354E65",
"0 	c #17232F",
"a 	c #172430",
"b 	c #273C50",
"c 	c #0F171F",
"d 	c #1B2A37",
"e 	c #7E9AB4",
"f 	c #131E27",
"g 	c #010203",
"h 	c #0E161C",
"i 	c #7692AC",
"j 	c #2E4860",
"k 	c #020304",
"l 	c #060A0D",
"m 	c #030506",
"n 	c #446A8D",
"o 	c #283F53",
"p 	c #1F3040",
"q 	c #395A77",
"r 	c #476F94",
"s 	c #487196",
"t 	c #3D607F",
"u 	c #375773",
"v 	c #2E475F",
"w 	c #0E161D",
"x 	c #020303",
"y 	c #3D5F7F",
"z 	c #466E92",
"A 	c #24313D",
"B 	c #6E6E6E",
"C 	c #636363",
"D 	c #233444",
"E 	c #1F3242",
"F 	c #010102",
"G 	c #141E26",
"H 	c #141F29",
"I 	c #040608",
"J 	c #314D66",
"K 	c #323C44",
"L 	c #2F3A44",
"M 	c #283C4F",
"N 	c #CBCBCB",
"O 	c #FFFFFF",
"P 	c #AAAAAA",
"Q 	c #2E4960",
"R 	c #131D27",
"S 	c #080D11",
"T 	c #71879B",
"U 	c #8DA5BC",
"V 	c #708FAB",
"W 	c #4A6D8C",
"X 	c #111A23",
"Y 	c #040609",
"Z 	c #365571",
"` 	c #727374",
" .	c #FEFEFE",
"..	c #FBFBFB",
"+.	c #5C6062",
"@.	c #5A5E62",
"#.	c #404A54",
"$.	c #2F4A63",
"%.	c #16222D",
"&.	c #416586",
"*.	c #2C445B",
"=.	c #1C2C3A",
"-.	c #253A4C",
";.	c #2B4359",
">.	c #2E4254",
",.	c #F3F3F3",
"'.	c #D4D4D4",
").	c #E0E0E0",
"!.	c #E2E2E2",
"~.	c #848484",
"{.	c #FCFCFC",
"].	c #B6B6B6",
"^.	c #808080",
"/.	c #F2F2F2",
"(.	c #666A6E",
"_.	c #34526C",
":.	c #1C2B3A",
"<.	c #34516C",
"[.	c #375671",
"}.	c #1E2E3D",
"|.	c #080D12",
"1.	c #556069",
"2.	c #6A6A6A",
"3.	c #7E7E7E",
"4.	c #8D8D8D",
"5.	c #DADADA",
"6.	c #2C2C2C",
"7.	c #1C1C1C",
"8.	c #BCBCBC",
"9.	c #5D6368",
"0.	c #233748",
"a.	c #253A4E",
"b.	c #7493AF",
"c.	c #686F75",
"d.	c #222222",
"e.	c #484848",
"f.	c #FAFAFA",
"g.	c #393A3A",
"h.	c #F9F9F9",
"i.	c #363636",
"j.	c #212121",
"k.	c #E4E4E4",
"l.	c #2E3D4B",
"m.	c #3F6384",
"n.	c #05080A",
"o.	c #A8BBCD",
"p.	c #516679",
"q.	c #BFBFBF",
"r.	c #F8F8F8",
"s.	c #A3A3A3",
"t.	c #7C7D7D",
"u.	c #F4F4F4",
"v.	c #5F6061",
"w.	c #35536F",
"x.	c #0D151B",
"y.	c #5C80A0",
"z.	c #ADC0D0",
"A.	c #4D7599",
"B.	c #2D3C4A",
"C.	c #8B8B8B",
"D.	c #818181",
"E.	c #2C4051",
"F.	c #304C64",
"G.	c #232C34",
"H.	c #202B34",
"I.	c #24394B",
"J.	c #6D8EAB",
"K.	c #92AAC0",
"L.	c #3B5D7B",
"M.	c #203242",
"N.	c #0C1218",
"O.	c #6B8CAA",
"P.	c #7F9BB6",
"Q.	c #456C8F",
"R.	c #101921",
"S.	c #6084A4",
"T.	c #819DB7",
"U.	c #4C7193",
"V.	c #87A2BA",
"W.	c #4B7397",
"X.	c #3E6181",
"Y.	c #020203",
"Z.	c #7594B0",
"`.	c #5B80A1",
" +	c #35536E",
".+	c #17242F",
"++	c #0E161E",
"@+	c #15212C",
"#+	c #6588A7",
"$+	c #497296",
"%+	c #2A4359",
"&+	c #436A8C",
"*+	c #385671",
"=+	c #5D81A2",
"-+	c #4E769A",
";+	c #406485",
">+	c #263B4F",
",+	c #304252",
"'+	c #3C5E7D",
")+	c #182532",
"!+	c #0A1016",
"~+	c #476E90",
"{+	c #4A7297",
"]+	c #456D90",
"^+	c #788086",
"/+	c #747474",
"(+	c #4D5358",
"_+	c #22303D",
":+	c #203243",
"<+	c #334657",
"[+	c #2B3D4C",
"}+	c #6E7984",
"|+	c #080909",
"1+	c #354F65",
"2+	c #4A4A4A",
"3+	c #727272",
"4+	c #7B7B7B",
"5+	c #111B24",
"6+	c #223241",
"7+	c #ABABAB",
"8+	c #686868",
"9+	c #414141",
"0+	c #030303",
"a+	c #1E2E3E",
"b+	c #35546F",
"c+	c #2C465C",
"d+	c #2D343A",
"e+	c #141617",
"                                                                ",
"                                      . + @                     ",
"                                    # $ % & *                   ",
"                        * *       * = - ; > ,                   ",
"                      ' ) !       ~ { ] ^ / *                   ",
"                      ( _ :       < ; [ ; }                     ",
"                      | 1 2 *     3 4 5 6 7                     ",
"          8 9 0       a ; b       * c @ ,                       ",
"          d e > f     * @ g     *   *                           ",
"          h i ; j       * * * k l m * * *                       ",
"            d n o     * k p q r s t u v w *                     ",
"              x *   * # y s s z A B C D ; E *                   ",
"    F G H I       * w J K L 2 M N O O P Q s R                   ",
"  S T U V W X     Y Z `  ...+.@.O O O O #.s $.*                 ",
"  %.; &.*.=.-.* * ;.>.,.'.).!.~.{.].^./.(.s _.*                 ",
"  * :.<.[.}.*   |.r 1...2.3.O 4.5.6.7.8.9.s 0.*                 ",
"              * a.b.c. .d.e.f.g.h.i.j.k.l.m.n.*                 ",
"              * / o.p.q./.r.s.a.t.{.u.v.w.x.*                   ",
"              k y.z.A.B.C.D.E.s F.G.H.I.S *                     ",
"              8 J.K.s s L.t s s s z M., *                       ",
"              N.O.P.s s s s s s Q.R.* *                         ",
"              . S.T.s s s s s s j *                             ",
"              F U.V.W.s s s s s X.Y.* * * *                     ",
"              * ] Z.`.s s s s s s  +a ! .+++* *                 ",
"                @+`.#+$+s Z %+&+s s s s s s ' *                 ",
"                * *+=+-+;+>+,+'+s s s s s s )+*                 ",
"                  !+~+{+]+s ^+/+(+_+:+<+[+}+|+                  ",
"                  * < z s s 1+2+O O 3+O s.4+*                   ",
"                    * 5+m.s s 6+7+O 8+h.9+0+                    ",
"                      * k a+b+&+c+d+e+7.* *                     ",
"                          * * * 7 , * *                         ",
"                                                                "};
