/* XPM */
static char * meldungsfenster_mini_xpm[] = {
"32 32 298 2",
"  	c None",
". 	c #000000",
"+ 	c #16181C",
"@ 	c #313640",
"# 	c #424A56",
"$ 	c #444B58",
"% 	c #363C46",
"& 	c #14161A",
"* 	c #010101",
"= 	c #262A32",
"- 	c #414855",
"; 	c #3F4652",
"> 	c #393F4A",
", 	c #383E49",
"' 	c #3C434E",
") 	c #4A5361",
"! 	c #343943",
"~ 	c #010202",
"{ 	c #21252C",
"] 	c #3B414C",
"^ 	c #383E48",
"/ 	c #353B45",
"( 	c #323842",
"_ 	c #333942",
": 	c #3D434F",
"< 	c #0E0F12",
"[ 	c #3B414D",
"} 	c #39404A",
"| 	c #373D47",
"1 	c #343A44",
"2 	c #323841",
"3 	c #333943",
"4 	c #48505D",
"5 	c #2D323A",
"6 	c #282C34",
"7 	c #3D4450",
"8 	c #383E4A",
"9 	c #3A414B",
"0 	c #373E48",
"a 	c #555E6E",
"b 	c #0D0E11",
"c 	c #060607",
"d 	c #3C424E",
"e 	c #414955",
"f 	c #3F4752",
"g 	c #3D444F",
"h 	c #3A414C",
"i 	c #373E47",
"j 	c #333A43",
"k 	c #3E4551",
"l 	c #131519",
"m 	c #444D59",
"n 	c #424B57",
"o 	c #404853",
"p 	c #323942",
"q 	c #596374",
"r 	c #060608",
"s 	c #382227",
"t 	c #3B424D",
"u 	c #48515E",
"v 	c #464E5B",
"w 	c #434B57",
"x 	c #3C444F",
"y 	c #383F4A",
"z 	c #343B44",
"A 	c #4D5564",
"B 	c #262A31",
"C 	c #070000",
"D 	c #940000",
"E 	c #7B2C34",
"F 	c #4C5663",
"G 	c #4B5462",
"H 	c #49525F",
"I 	c #565E68",
"J 	c #909398",
"K 	c #5B616A",
"L 	c #363D47",
"M 	c #454C59",
"N 	c #430000",
"O 	c #C02222",
"P 	c #F79494",
"Q 	c #746971",
"R 	c #3F4550",
"S 	c #525C69",
"T 	c #525B68",
"U 	c #58606B",
"V 	c #97999D",
"W 	c #A5A5A5",
"X 	c #AAABAB",
"Y 	c #464D57",
"Z 	c #576171",
"` 	c #140000",
" .	c #600000",
"..	c #C02121",
"+.	c #F26868",
"@.	c #F69E9E",
"#.	c #F69797",
"$.	c #7A5B62",
"%.	c #434954",
"&.	c #6A717B",
"*.	c #6A707A",
"=.	c #696F78",
"-.	c #9A9B9C",
";.	c #979797",
">.	c #8A8A8A",
",.	c #6E7278",
"'.	c #3B424C",
").	c #5D6778",
"!.	c #020200",
"~.	c #755C1D",
"{.	c #C29930",
"].	c #E4B438",
"^.	c #F0BD3B",
"/.	c #EA972F",
"(.	c #EA3C3B",
"_.	c #EE6161",
":.	c #EF6E6E",
"<.	c #ED5757",
"[.	c #EA4040",
"}.	c #EA3D3D",
"|.	c #834249",
"1.	c #404651",
"2.	c #757A83",
"3.	c #747982",
"4.	c #737880",
"5.	c #949495",
"6.	c #9E9E9E",
"7.	c #858585",
"8.	c #76797D",
"9.	c #5B6576",
"0.	c #040405",
"a.	c #7A601E",
"b.	c #D26525",
"c.	c #C8501F",
"d.	c #C9501F",
"e.	c #F6B63A",
"f.	c #EF6420",
"g.	c #E63636",
"h.	c #E42626",
"i.	c #E00B0B",
"j.	c #DF0000",
"k.	c #DE0000",
"l.	c #991A1F",
"m.	c #3A404C",
"n.	c #3A404B",
"o.	c #7C8188",
"p.	c #7E8288",
"q.	c #7D8187",
"r.	c #878889",
"s.	c #A0A0A0",
"t.	c #878787",
"u.	c #6E7074",
"v.	c #3E4651",
"w.	c #050607",
"x.	c #DBAA35",
"y.	c #E38A2E",
"z.	c #E0842D",
"A.	c #E38B2F",
"B.	c #FFC93F",
"C.	c #E63E14",
"D.	c #DB0202",
"E.	c #DA0000",
"F.	c #B60E10",
"G.	c #777A80",
"H.	c #87898E",
"I.	c #86898D",
"J.	c #838487",
"K.	c #909090",
"L.	c #868686",
"M.	c #64686D",
"N.	c #404753",
"O.	c #353C45",
"P.	c #343A43",
"Q.	c #010102",
"R.	c #ECB73A",
"S.	c #DF812C",
"T.	c #DC7B2A",
"U.	c #FFC83F",
"V.	c #E0300F",
"W.	c #D60000",
"X.	c #D30101",
"Y.	c #463943",
"Z.	c #63676E",
"`.	c #8E9093",
" +	c #8E9092",
".+	c #8E8F91",
"++	c #838384",
"@+	c #7A7B7C",
"#+	c #4F5661",
"$+	c #414954",
"%+	c #3B434D",
"&+	c #353C46",
"*+	c #505968",
"=+	c #D9A134",
"-+	c #CD5722",
";+	c #CC5422",
">+	c #CF5A23",
",+	c #FFBD3F",
"'+	c #DF3813",
")+	c #D10000",
"!+	c #D00000",
"~+	c #77242B",
"{+	c #434953",
"]+	c #949496",
"^+	c #8D8F92",
"/+	c #6D747F",
"(+	c #57606D",
"_+	c #47505C",
":+	c #424A55",
"<+	c #3F4753",
"[+	c #A77629",
"}+	c #FFB33E",
"|+	c #FFB23E",
"1+	c #FFB03E",
"2+	c #FFAE3E",
"3+	c #E6571F",
"4+	c #CC0000",
"5+	c #B6090B",
"6+	c #3B3E49",
"7+	c #696C73",
"8+	c #626C7C",
"9+	c #586272",
"0+	c #525C6B",
"a+	c #4D5664",
"b+	c #383F49",
"c+	c #4F5766",
"d+	c #1C1F24",
"e+	c #3F290F",
"f+	c #F79E3C",
"g+	c #FFA23E",
"h+	c #FFA03E",
"i+	c #FF9E3E",
"j+	c #F78434",
"k+	c #C80201",
"l+	c #C80000",
"m+	c #C70000",
"n+	c #71252C",
"o+	c #566070",
"p+	c #586373",
"q+	c #535D6C",
"r+	c #4D5765",
"s+	c #3D4550",
"t+	c #4E5665",
"u+	c #030404",
"v+	c #221508",
"w+	c #553214",
"x+	c #6D3F1A",
"y+	c #7A471D",
"z+	c #8F5A33",
"A+	c #A94C54",
"B+	c #AB2637",
"C+	c #B2121C",
"D+	c #BE0000",
"E+	c #C30000",
"F+	c #C20000",
"G+	c #BB0304",
"H+	c #4B3640",
"I+	c #3E4450",
"J+	c #515B6A",
"K+	c #21252B",
"L+	c #06070A",
"M+	c #97B5E4",
"N+	c #91B3E7",
"O+	c #7798C9",
"P+	c #465164",
"Q+	c #A3ACD2",
"R+	c #250000",
"S+	c #390000",
"T+	c #560000",
"U+	c #7D0000",
"V+	c #960A0C",
"W+	c #424A57",
"X+	c #464F5C",
"Y+	c #48505E",
"Z+	c #ABB3BE",
"`+	c #D7E3F6",
" @	c #BBC9DE",
".@	c #676B72",
"+@	c #DAE4F2",
"@@	c #010000",
"#@	c #1F090A",
"$@	c #2D3039",
"%@	c #404854",
"&@	c #434B58",
"*@	c #313740",
"=@	c #848484",
"-@	c #FFFFFF",
";@	c #EFEFF0",
">@	c #7D7D7D",
",@	c #F9F9F9",
"'@	c #121417",
")@	c #23272E",
"!@	c #2B3039",
"~@	c #2D2D2D",
"{@	c #9C9C9C",
"]@	c #B3B3B3",
"^@	c #2F2F2F",
"/@	c #3A3A3A",
"                                                                ",
"                                        .                       ",
"                                  . . . . . . .                 ",
"                                . . + @ # $ % & .               ",
"                              . * = - ; > , ' ) ! ~ .           ",
"                            . . { ; ] ^ / ( _ / $ : *           ",
"                            . < [ ' > } | 1 2 2 3 4 5 .         ",
"                            . 6 7 8 7 ' 9 0 1 2 2 1 a b .       ",
"                          . c > d ' e f g h i j 2 2 k ; .       ",
"                          . l [ > # m n o 7 9 % p 2 3 q r .     ",
"                          . s t 8 u 4 v w o x y z 2 2 A B .     ",
"                      . C D E [ ] F G H I J K t L _ 2 d M .     ",
"                  . . N O P Q ] R S T U V W X Y } 1 2 1 Z .     ",
"      . . . . . `  ...+.@.#.$.] %.&.*.=.-.;.>.,.'.% 2 3 ).* .   ",
"    !.~.{.].^./.(._.:.<.[.}.|.h 1.2.3.4.5.6.7.8.x ^ _ _ 9.0..   ",
"  . a.b.c.d.e.f.g.h.i.j.j.k.l.m.n.o.p.q.r.s.t.u.v.} 1 _ q w..   ",
"  . x.y.z.A.B.C.D.E.E.E.E.E.F.> n.G.H.I.J.K.L.M.N.h O.P.Z Q..   ",
"  . R.S.T.z.U.V.W.W.W.W.W.W.X.Y.[ Z.`. +.+++@+#+$+%+L &+*+.     ",
"  . =+-+;+>+,+'+)+)+)+)+)+!+!+~+t {+]+^+/+(+F _+:+x 0 <+n..     ",
"  . [+}+|+1+2+3+4+4+4+4+4+4+4+5+6+[ 7+8+9+0+a+4 # g b+c+d+.     ",
"  . e+f+g+h+i+j+k+l+l+l+m+m+m+m+n+d m.o+p+q+r+u w s+t t+u+.     ",
"    . v+w+x+y+z+A+B+C+D+E+F+F+F+G+H+I+d J+q+r+u w ' A K+.       ",
"      . . . . L+M+N+O+P+Q+R+S+T+U+V+Y.; ] W+X+w ' Y+% ~ .       ",
"              . Z+`+ @.@+@. . . . @@#@$@; - %@&@Y+*@u+.         ",
"              . =@-@;@>@,@.       . . . '@)@!@B '@. .           ",
"                ~@{@]@^@/@.           . . . . . . .             ",
"                . . . . .                                       ",
"                                                                ",
"                                                                ",
"                                                                ",
"                                                                ",
"                                                                "};
