/* XPM */
static char * neu_klasse_allgemein_mini_xpm[] = {
"32 32 186 2",
"  	c None",
". 	c #3D4E67",
"+ 	c #4A5E77",
"@ 	c #A294A9",
"# 	c #D26D7A",
"$ 	c #B9CFE0",
"% 	c #D4B495",
"& 	c #B5D1D7",
"* 	c #6DC186",
"= 	c #9AD3CF",
"- 	c #B2DDF6",
"; 	c #B1DCF5",
"> 	c #778C99",
", 	c #82929B",
"' 	c #788893",
") 	c #7D9CB2",
"! 	c #41536C",
"~ 	c #6A859E",
"{ 	c #E45A64",
"] 	c #FF0000",
"^ 	c #E8866D",
"/ 	c #FF933D",
"( 	c #B4AD5F",
"_ 	c #29AD17",
": 	c #62C372",
"< 	c #BAE6FF",
"[ 	c #A3C9DF",
"} 	c #BEBEBE",
"| 	c #FFFFFF",
"1 	c #FDFDFD",
"2 	c #79919E",
"3 	c #536982",
"4 	c #43556E",
"5 	c #8E8EA5",
"6 	c #B97181",
"7 	c #A5C1D5",
"8 	c #BCA895",
"9 	c #A4C1D0",
"0 	c #6CB38C",
"a 	c #92C2C8",
"b 	c #A1C8E1",
"c 	c #6A808F",
"d 	c #6A7A86",
"e 	c #60717E",
"f 	c #7491A8",
"g 	c #3F5069",
"h 	c #5D6B80",
"i 	c #AEB5BF",
"j 	c #B7BEC7",
"k 	c #B0B7C1",
"l 	c #657286",
"m 	c #E2E5E8",
"n 	c #F0ECEA",
"o 	c #E7DBD2",
"p 	c #E7DBD3",
"q 	c #E8DED8",
"r 	c #E8DDD6",
"s 	c #E4DCD6",
"t 	c #F8F6F5",
"u 	c #F1F2F4",
"v 	c #40516A",
"w 	c #59697E",
"x 	c #5F6C80",
"y 	c #3E4F68",
"z 	c #C5C1BC",
"A 	c #969182",
"B 	c #948E80",
"C 	c #989084",
"D 	c #978F84",
"E 	c #979083",
"F 	c #979084",
"G 	c #99968B",
"H 	c #A09C91",
"I 	c #A0998C",
"J 	c #A0988C",
"K 	c #A0978C",
"L 	c #A09A8C",
"M 	c #A69E97",
"N 	c #EBE7E5",
"O 	c #505F76",
"P 	c #687A8D",
"Q 	c #738D9E",
"R 	c #6B7D92",
"S 	c #9E999A",
"T 	c #242B24",
"U 	c #202A20",
"V 	c #1E221E",
"W 	c #221922",
"X 	c #1B161B",
"Y 	c #251E25",
"Z 	c #212521",
"` 	c #212821",
" .	c #202020",
"..	c #1C2A1C",
"+.	c #1C221C",
"@.	c #001C00",
"#.	c #000B00",
"$.	c #001D00",
"%.	c #1E241B",
"&.	c #EAE6E4",
"*.	c #506076",
"=.	c #ABC2E0",
"-.	c #667B89",
";.	c #74899E",
">.	c #A593A1",
",.	c #311031",
"'.	c #321132",
").	c #2C0F2C",
"!.	c #341234",
"~.	c #2A0E2A",
"{.	c #391339",
"].	c #2F102F",
"^.	c #2B0E2B",
"/.	c #3A133A",
"(.	c #321032",
"_.	c #1A091A",
":.	c #290E29",
"<.	c #000000",
"[.	c #1E1D1B",
"}.	c #506171",
"|.	c #758DA0",
"1.	c #67768B",
"2.	c #AD95A9",
"3.	c #471847",
"4.	c #441744",
"5.	c #3C143C",
"6.	c #481848",
"7.	c #4C194C",
"8.	c #331133",
"9.	c #411641",
"0.	c #491849",
"a.	c #1F0A1F",
"b.	c #469051",
"c.	c #578B6A",
"d.	c #66758A",
"e.	c #8E958A",
"f.	c #042704",
"g.	c #062606",
"h.	c #041D04",
"i.	c #071307",
"j.	c #064106",
"k.	c #060206",
"l.	c #040104",
"m.	c #080308",
"n.	c #050205",
"o.	c #030103",
"p.	c #0A030A",
"q.	c #359C32",
"r.	c #6A7D8C",
"s.	c #8D8A89",
"t.	c #57836D",
"u.	c #8C8A89",
"v.	c #1E1D1C",
"w.	c #928F8D",
"x.	c #0E0C0B",
"y.	c #0C0B09",
"z.	c #0C0A09",
"A.	c #2A2826",
"B.	c #E9E6E4",
"C.	c #3E4E67",
"D.	c #F9FAFA",
"E.	c #4A5A71",
"F.	c #A5ADB8",
"G.	c #B5BCC5",
"H.	c #39A035",
"I.	c #4A5A72",
"J.	c #546279",
"K.	c #4C5C73",
"L.	c #446366",
"M.	c #30AD21",
"N.	c #313E53",
"O.	c #526278",
"P.	c #528E64",
"Q.	c #479152",
"R.	c #3B933F",
"S.	c #2DAA1F",
"T.	c #43AA3F",
"U.	c #40A63B",
"V.	c #658183",
"W.	c #5B8A70",
"X.	c #36AB2B",
"Y.	c #2FAD20",
"Z.	c #48994E",
"`.	c #657489",
" +	c #66768A",
".+	c #657488",
"                                                                ",
"                                                                ",
"      . . . . . . . . . . . . . . . . . . . . . . .             ",
"  + @ # $ % & * = - - - - - - - - - - - - ; > , ' ) !           ",
"  ~ { ] ^ / ( _ : < < < < < < < < < < < < [ } | 1 2 3           ",
"  4 5 6 7 8 9 0 a b b b b b b b b b b b b b c d e f g           ",
"  . h i j j j j j j j j j j j j j j j j j j j j k l .           ",
"  . m | n o o o o o p q r o o o o o o s t | | | | u v w x       ",
"  y | | z A B C D E F G H I J K L I K M N | | | | | O P Q R     ",
"  y | | S T U V W X Y Z `  ...+.@.#.$.%.&.| | | | | *.=.-.;.    ",
"  y | | >.,.'.).!.~.{.~.].^./.(._.:.<.[.&.| | | | | *.}.|.1.    ",
"  y | | 2.3.4.5.6.{.7.8.9.!.'.0._.a.<.[.&.| | | | | *.b.c.d.    ",
"  y | | e.f.g.h.i.j.k.l.m.n.o.k.l.p.<.[.&.| | | | | *.q._ r.    ",
"  y | | s.<.<.<.<.<.<.<.<.<.<.<.<.<.<.[.&.| | | | | *.q._ t.    ",
"  y | | u.<.<.<.<.<.<.<.<.<.<.<.<.<.<.[.&.| | | | | *.q._ t.    ",
"  y | | s.<.<.<.<.<.<.<.<.<.<.<.<.<.<.v.&.| | | | | *.q._ t.    ",
"  y | | w.x.x.x.x.y.z.x.x.x.x.x.x.x.x.A.B.| | | | | *.q._ t.    ",
"  y | | | | | | | | | | | | | | | | | | | | | | | | *.q._ t.    ",
"  y | | | | | | | | | | | | | | | | | | | | | | | | *.q._ t.    ",
"  C.D.| | | | | | | | | | | | | | | | | | | | | | | E.q._ t.    ",
"  . F.| | | | | | | | | | | | | | | | | | | | | | G.. H._ t.    ",
"  . . I.J.J.J.J.J.J.J.J.J.J.J.J.J.J.J.J.J.J.J.J.K.. L.M._ t.    ",
"      N.O.P.Q.Q.Q.Q.Q.Q.Q.Q.Q.Q.Q.Q.Q.Q.Q.Q.Q.Q.Q.R.S._ _ t.    ",
"        d.T._ _ _ _ _ _ _ _ _ _ _ _ _ _ _ _ _ _ _ _ _ _ _ t.    ",
"        d.U._ _ _ _ _ _ _ _ _ _ _ _ _ _ _ _ _ _ _ _ _ _ _ V.    ",
"        d.W.X._ _ _ _ _ _ _ _ _ _ _ _ _ _ _ _ _ _ _ _ Y.Z.d.    ",
"          `.d. + + + + + + + + + + + + + + + + + + + +d.d..+    ",
"                                                                ",
"                                                                ",
"                                                                ",
"                                                                ",
"                                                                "};
