/* XPM */
static char * neu_klasse_grafisch_mini_xpm[] = {
"32 32 142 2",
"  	c None",
". 	c #4F647D",
"+ 	c #7189A2",
"@ 	c #7491AA",
"# 	c #7590A7",
"$ 	c #7290A7",
"% 	c #708CA4",
"& 	c #5D758B",
"* 	c #5E768C",
"= 	c #5F7790",
"- 	c #3D4E67",
"; 	c #41526C",
"> 	c #C3A4B6",
", 	c #FE0405",
"' 	c #DB848A",
") 	c #FA994B",
"! 	c #E1B282",
"~ 	c #3BB434",
"{ 	c #50BC56",
"] 	c #BAE6FF",
"^ 	c #7E888E",
"/ 	c #C3C3C3",
"( 	c #C1C1C1",
"_ 	c #7D8F99",
": 	c #6A859E",
"< 	c #40516A",
"[ 	c #B9A7BB",
"} 	c #F71B1E",
"| 	c #D5949E",
"1 	c #F4A05C",
"2 	c #DDB995",
"3 	c #49BA4B",
"4 	c #5FC26E",
"5 	c #7C8A92",
"6 	c #A7A7A7",
"7 	c #A4A4A4",
"8 	c #8096A2",
"9 	c #637C95",
"0 	c #4C5C74",
"a 	c #44566F",
"b 	c #688097",
"c 	c #7C93A9",
"d 	c #7A91A6",
"e 	c #788EA4",
"f 	c #52667F",
"g 	c #7C8798",
"h 	c #FAFAFB",
"i 	c #FFFFFF",
"j 	c #DEE1E5",
"k 	c #48586F",
"l 	c #C9CED5",
"m 	c #F7FBFF",
"n 	c #EEF7FF",
"o 	c #F1F8FF",
"p 	c #7A8697",
"q 	c #D0D4DA",
"r 	c #FCFDFE",
"s 	c #CAD5E4",
"t 	c #CEDEF2",
"u 	c #66ACF2",
"v 	c #407DBA",
"w 	c #72AFEC",
"x 	c #79B0E8",
"y 	c #79B1E8",
"z 	c #80B4E8",
"A 	c #60A6ED",
"B 	c #4BA0F6",
"C 	c #BBD7F6",
"D 	c #E1E9F8",
"E 	c #C3CDDB",
"F 	c #D1DEF1",
"G 	c #C0C9D6",
"H 	c #EBF2F9",
"I 	c #818C9C",
"J 	c #F5F9FD",
"K 	c #AAC6E4",
"L 	c #ABC8E6",
"M 	c #84B6E7",
"N 	c #68A1D8",
"O 	c #69A6E1",
"P 	c #69A6E2",
"Q 	c #6CA8E2",
"R 	c #A5C4E3",
"S 	c #97B0CA",
"T 	c #9AB4CF",
"U 	c #A3BFDD",
"V 	c #9DB7D2",
"W 	c #D8E5F2",
"X 	c #FAFBFD",
"Y 	c #C9CBCD",
"Z 	c #98A0AA",
"` 	c #9AA3AE",
" .	c #B8BCC2",
"..	c #D4D4D4",
"+.	c #CECECE",
"@.	c #D0D0D0",
"#.	c #D3D3D4",
"$.	c #DADADA",
"%.	c #E6EAF0",
"&.	c #BBBEC2",
"*.	c #617288",
"=.	c #66788F",
"-.	c #A4AFBA",
";.	c #E0E0E0",
">.	c #D1D1D1",
",.	c #B3B3B3",
"'.	c #CDCDCD",
").	c #E1E1E1",
"!.	c #DEDEDE",
"~.	c #D9D9DA",
"{.	c #D8D9DA",
"].	c #D9D9D9",
"^.	c #D9DAE1",
"/.	c #E3E3EB",
"(.	c #C4C4CB",
"_.	c #C5C5CC",
":.	c #ECECF5",
"<.	c #CBCED6",
"[.	c #C7CAD0",
"}.	c #BEC3CC",
"|.	c #B9BEC6",
"1.	c #BFC4CD",
"2.	c #BFC4CE",
"3.	c #BFC3CC",
"4.	c #F6F8FB",
"5.	c #C9D5E2",
"6.	c #CAD5E2",
"7.	c #DDE5EE",
"8.	c #CFD4DA",
"9.	c #B0B7C1",
"0.	c #FEFEFE",
"a.	c #627084",
"b.	c #4C5C75",
"c.	c #495971",
"d.	c #A0A8B4",
"e.	c #B4BBC5",
"f.	c #B2B9C3",
"g.	c #6A7A91",
"h.	c #3B4B63",
"i.	c #51627A",
"j.	c #52637B",
"k.	c #56677F",
"                                                                ",
"                                                                ",
"                                                                ",
"                                                                ",
"                                                                ",
"                                                                ",
"        . + @ # @ $ @ @ @ @ @ @ @ @ @ @ @ @ @ @ % & * = -       ",
"      ; > , ' ) ! ~ { ] ] ] ] ] ] ] ] ] ] ] ] ] ^ / ( _ :       ",
"      < [ } | 1 2 3 4 ] ] ] ] ] ] ] ] ] ] ] ] ] 5 6 7 8 9 0     ",
"      - a b c c c c c c c c c c c c c c c c c c c d e f - 0     ",
"      - g h i i i i i i i i i i i i i i i i i i i i i j k 0     ",
"      - l i i i i m n n n n n n o i i i i i i i i i i i p 0     ",
"      - q i r s t u v w x y z A B C D E F G H i i i i i I 0     ",
"      - q i J K L M N O O O O P Q R S T U V W i i i i i I 0     ",
"      - q i X Y Z `  .....+.( @.#.#.......$.%.i i i i i I 0     ",
"      - q i X &.*.=.-.;.;.>.,.'.;.;.;.;.;.).%.i i i i i I 0     ",
"      - q i X !.!.!.!.~.{.{.{.].$.!.!.!.!.!.%.i i i i i I 0     ",
"      - q i X !.!.!.!.^./.(._.:.<.!.!.!.!.!.%.i i i i i I 0     ",
"      - q i X !.!.!.!.[.}.|.1.2.3.!.!.!.!.!.%.i i i i i I 0     ",
"      - q i 4.5.6.6.6.6.6.6.6.6.6.6.6.6.6.6.7.i i i i i I 0     ",
"      - q i i i i i i i i i i i i i i i i i i i i i i i I 0     ",
"      - q i i i i i i i i i i i i i i i i i i i i i i i I 0     ",
"      - 8.i i i i i i i i i i i i i i i i i i i i i i i I 0     ",
"      - 9.i i i i i i i i i i i i i i i i i i i i i i 0.a.b.    ",
"        c.d.e.e.e.e.e.e.e.e.e.e.e.e.e.e.e.e.e.e.e.e.f.g - g.    ",
"        h.i.i.i.i.i.i.i.i.i.i.i.i.i.i.i.i.i.i.i.i.i.i.j.k.      ",
"                                                                ",
"                                                                ",
"                                                                ",
"                                                                ",
"                                                                ",
"                                                                "};
