/* XPM */
static char * projekt_schliessen_mini_xpm[] = {
"32 32 292 2",
"  	c None",
". 	c #000000",
"+ 	c #000001",
"@ 	c #000711",
"# 	c #001638",
"$ 	c #000103",
"% 	c #000205",
"& 	c #061D40",
"* 	c #012B6B",
"= 	c #00060F",
"- 	c #041328",
"; 	c #1C4077",
"> 	c #09367B",
", 	c #000E23",
"' 	c #010814",
") 	c #203C67",
"! 	c #3A5E96",
"~ 	c #05337A",
"{ 	c #001C47",
"] 	c #000308",
"^ 	c #062048",
"/ 	c #224376",
"( 	c #335892",
"_ 	c #28508C",
": 	c #09367C",
"< 	c #002F77",
"[ 	c #001F4F",
"} 	c #13376E",
"| 	c #2B528E",
"1 	c #184384",
"2 	c #013077",
"3 	c #002E74",
"4 	c #000712",
"5 	c #000D20",
"6 	c #1C427E",
"7 	c #2C538F",
"8 	c #1A4485",
"9 	c #013078",
"0 	c #00183D",
"a 	c #00050E",
"b 	c #021736",
"c 	c #254D89",
"d 	c #1B4585",
"e 	c #023178",
"f 	c #002968",
"g 	c #03060B",
"h 	c #0C1F3D",
"i 	c #113368",
"j 	c #0B387D",
"k 	c #033178",
"l 	c #113D80",
"m 	c #033179",
"n 	c #000F26",
"o 	c #04142E",
"p 	c #1E447E",
"q 	c #395E95",
"r 	c #44679B",
"s 	c #375C94",
"t 	c #1C4586",
"u 	c #002F76",
"v 	c #001028",
"w 	c #060502",
"x 	c #243544",
"y 	c #0A377D",
"z 	c #2F5590",
"A 	c #5373A3",
"B 	c #6985AF",
"C 	c #5070A2",
"D 	c #2C528E",
"E 	c #08357B",
"F 	c #002E75",
"G 	c #080703",
"H 	c #B6A14A",
"I 	c #2E5074",
"J 	c #033279",
"K 	c #1D4786",
"L 	c #385C94",
"M 	c #43669A",
"N 	c #365B94",
"O 	c #345783",
"P 	c #0E3977",
"Q 	c #002D73",
"R 	c #000917",
"S 	c #8E7E3A",
"T 	c #FFE268",
"U 	c #4D6572",
"V 	c #023078",
"W 	c #0A377C",
"X 	c #15407E",
"Y 	c #818A72",
"Z 	c #8D814C",
"` 	c #88877F",
" .	c #989898",
"..	c #6F757E",
"+.	c #0F2951",
"@.	c #00235A",
"#.	c #221E0E",
"$.	c #FBDF66",
"%.	c #D9C86A",
"&.	c #365574",
"*.	c #6E7D71",
"=.	c #DCC969",
"-.	c #7E7653",
";.	c #EDEDED",
">.	c #FFFFFF",
",.	c #DDDDDD",
"'.	c #192F52",
").	c #635828",
"!.	c #A69447",
"~.	c #DFDFDE",
"{.	c #FEFEFE",
"].	c #A6A6A6",
"^.	c #737373",
"/.	c #CECECE",
"(.	c #9FA0A1",
"_.	c #002B6C",
":.	c #001330",
"<.	c #584E24",
"[.	c #CDB553",
"}.	c #CEB654",
"|.	c #F8DB65",
"1.	c #FFE067",
"2.	c #918760",
"3.	c #A0A0A0",
"4.	c #B5B5B5",
"5.	c #767676",
"6.	c #E8E8E8",
"7.	c #DFDFDF",
"8.	c #002153",
"9.	c #001D4A",
"0.	c #191406",
"a.	c #7E6420",
"b.	c #C49D3B",
"c.	c #C0972F",
"d.	c #7B6222",
"e.	c #BEA24A",
"f.	c #FFD963",
"g.	c #FFD863",
"h.	c #938869",
"i.	c #6D6D6D",
"j.	c #5C5C5C",
"k.	c #323232",
"l.	c #C1C1C1",
"m.	c #D6D6D6",
"n.	c #002257",
"o.	c #002660",
"p.	c #261D09",
"q.	c #D8AC48",
"r.	c #FFDD91",
"s.	c #FFCE64",
"t.	c #FFC23F",
"u.	c #FFC13F",
"v.	c #71561E",
"w.	c #E3BC55",
"x.	c #FFD25F",
"y.	c #907B46",
"z.	c #FBFBFB",
"A.	c #C5C5C5",
"B.	c #090909",
"C.	c #2C2C2C",
"D.	c #F6F6F6",
"E.	c #94918A",
"F.	c #1F406E",
"G.	c #002C70",
"H.	c #A2792B",
"I.	c #FFC760",
"J.	c #FFBE4A",
"K.	c #FFB93E",
"L.	c #FFB83E",
"M.	c #FFB73E",
"N.	c #E7A539",
"O.	c #82672D",
"P.	c #FFCB5C",
"Q.	c #E5B652",
"R.	c #908C84",
"S.	c #E3E3E3",
"T.	c #BBBBBB",
"U.	c #F5F5F5",
"V.	c #C9C9C9",
"W.	c #A88642",
"X.	c #696E6B",
"Y.	c #00040A",
"Z.	c #1E1507",
"`.	c #FCB13E",
" +	c #FFB23E",
".+	c #FFB03E",
"++	c #FFAF3E",
"@+	c #FFAE3E",
"#+	c #FFAD3E",
"$+	c #FFAC3E",
"%+	c #8B6529",
"&+	c #FFC458",
"*+	c #D2A148",
"=+	c #85775E",
"-+	c #ACACAC",
";+	c #8B8375",
">+	c #AC843E",
",+	c #FFC156",
"'+	c #7C7667",
")+	c #000918",
"!+	c #684619",
"~+	c #FFA93E",
"{+	c #FFA83E",
"]+	c #FFA73E",
"^+	c #FFA63E",
"/+	c #FFA53E",
"(+	c #FFA43E",
"_+	c #E79538",
":+	c #795825",
"<+	c #FFBD54",
"[+	c #FFBC53",
"}+	c #ECAE4D",
"|+	c #E5A94B",
"1+	c #FFBB53",
"2+	c #FDBA53",
"3+	c #4F5C6C",
"4+	c #3B506F",
"5+	c #00122E",
"6+	c #885821",
"7+	c #FF9F3E",
"8+	c #FB9C3C",
"9+	c #B9772D",
"0+	c #B37B2C",
"a+	c #BA812E",
"b+	c #B47C2C",
"c+	c #845920",
"d+	c #62451D",
"e+	c #FFB751",
"f+	c #FFB650",
"g+	c #FFB550",
"h+	c #FFB54F",
"i+	c #FFB44F",
"j+	c #123A75",
"k+	c #00255E",
"l+	c #002C6E",
"m+	c #002A6B",
"n+	c #00040B",
"o+	c #674019",
"p+	c #965B24",
"q+	c #241709",
"r+	c #503C14",
"s+	c #5E4417",
"t+	c #BD812E",
"u+	c #D68734",
"v+	c #5F411C",
"w+	c #FFB04D",
"x+	c #FFAF4C",
"y+	c #FFAE4C",
"z+	c #FFAE4B",
"A+	c #FFAD4B",
"B+	c #1C3E73",
"C+	c #000C1F",
"D+	c #000104",
"E+	c #00173B",
"F+	c #000204",
"G+	c #412A11",
"H+	c #8A5B27",
"I+	c #ED9D44",
"J+	c #FFA949",
"K+	c #FFA848",
"L+	c #FFA748",
"M+	c #E39641",
"N+	c #092550",
"O+	c #000409",
"P+	c #382611",
"Q+	c #FFA346",
"R+	c #FFA245",
"S+	c #FFA145",
"T+	c #FFA144",
"U+	c #FFA044",
"V+	c #794E22",
"W+	c #00050D",
"X+	c #001331",
"Y+	c #3C2711",
"Z+	c #FD9C42",
"`+	c #AA6C2E",
" @	c #503517",
".@	c #FF9B42",
"+@	c #FF9B41",
"@@	c #C67B34",
"#@	c #3F2A12",
"$@	c #C07833",
"%@	c #FF9940",
"&@	c #2D1E0D",
"*@	c #1B1208",
"=@	c #25180A",
"-@	c #E58A3A",
";@	c #875323",
">@	c #050402",
",@	c #010100",
"'@	c #603D1A",
")@	c #1F1409",
"                                                                ",
"                                            . +                 ",
"                                          @ # $                 ",
"                                      % & * =                   ",
"                                  . - ; > ,                     ",
"                                ' ) ! ~ { $ .                   ",
"                              ] ^ / ( _ : < [ .                 ",
"                                @ } | 1 2 3 4                   ",
"                              5 6 7 8 9 < 0 .                   ",
"                        . a b c 7 d e < f %                     ",
"                    g h i j k j l m < < n                       ",
"                . o p q r s t e < < < u v .                     ",
"              w x y z A B C D E < < < < F ,                     ",
"            G H I J K L M N O P F < < < < Q R                   ",
"          . S T U < V W X Y Z `  ...+.< < < @..                 ",
"          #.$.T %.&.I *.=.-.;.>.>.>.,.'.< < < =                 ",
"          ).T T T T T T !.~.{.].^./.>.(._.< < :.                ",
"          <.[.}.|.1.1.1.2.>.3.. 4.5.6.7.8.< < 9..               ",
"        0.a.b.c.d.e.f.g.h.>.i.. j.k.l.m.n.< < o..               ",
"      p.q.r.s.t.u.v.w.x.y.z.A.B.. C.D.E.F.< < G..               ",
"      H.I.J.K.L.M.N.O.P.Q.R.>.S.T.U.V.W.X.< < < Y.              ",
"    Z.`. +.+++@+#+$+%+&+&+*+=+].-+;+>+,+'+< < < )+              ",
"    !+~+{+]+^+/+(+_+:+<+<+<+[+}+|+1+2+3+4+< < < 5+              ",
"    6+7+8+9+0+a+b+c+d+e+f+f+f+g+g+h+i+j+< < k+l+m+n+            ",
"    o+p+q+r+s+t+(+u+v+w+w+x+x+y+y+z+A+B+< < C+D+v E+F+          ",
"                G+H+I+J+J+K+K+L+K+L+M+N+F < O+    . .           ",
"                P+Q+Q+R+R+R+S+T+T+U+V+. W+X+.                   ",
"                Y+Z+`+ @.@+@@@#@$@%@&@                          ",
"                *@=@. . -@;@>@  ,@'@.                           ",
"                        )@.                                     ",
"                                                                ",
"                                                                "};
