/* XPM */
static char * projekt_neu_mini_xpm[] = {
"32 32 349 2",
"  	c None",
". 	c #3D4E67",
"+ 	c #3F5069",
"@ 	c #4A5A71",
"# 	c #3E4F68",
"$ 	c #606E82",
"% 	c #EFF0F2",
"& 	c #F2F6FC",
"* 	c #F0F3F9",
"= 	c #D4D8DD",
"- 	c #A2AAB6",
"; 	c #667487",
"> 	c #CDD3DC",
", 	c #BFD4F1",
"' 	c #ADC8ED",
") 	c #ACC7ED",
"! 	c #B4CDEE",
"~ 	c #C9DBF3",
"{ 	c #DFE9F8",
"] 	c #E1E6EC",
"^ 	c #ACB4BE",
"/ 	c #6E7B8E",
"( 	c #405069",
"_ 	c #747474",
": 	c #767676",
"< 	c #455366",
"[ 	c #758193",
"} 	c #CEDEF4",
"| 	c #B3CCEE",
"1 	c #B2CBEE",
"2 	c #B1CAEE",
"3 	c #B0CAEE",
"4 	c #AFC9ED",
"5 	c #AEC8ED",
"6 	c #BBD1F0",
"7 	c #D2E1F5",
"8 	c #DBE3EE",
"9 	c #B3B9C4",
"0 	c #717D90",
"a 	c #656565",
"b 	c #434343",
"c 	c #40454E",
"d 	c #5E5F62",
"e 	c #B8BCC2",
"f 	c #A5BEDD",
"g 	c #87A4C1",
"h 	c #89A6C4",
"i 	c #A3BDDE",
"j 	c #B4CCEE",
"k 	c #B1CBEE",
"l 	c #AFC9EE",
"m 	c #AEC9ED",
"n 	c #B5CDEF",
"o 	c #CFDFF4",
"p 	c #D7E0EC",
"q 	c #AAB2BD",
"r 	c #686868",
"s 	c #4E5A6A",
"t 	c #777B80",
"u 	c #BED3F1",
"v 	c #BDD2F0",
"w 	c #BCD2F0",
"x 	c #B7CEED",
"y 	c #9BB5D2",
"z 	c #88A4C1",
"A 	c #87A3C1",
"B 	c #8EAAC8",
"C 	c #AAC3E4",
"D 	c #B3CBEE",
"E 	c #F8FAFD",
"F 	c #8690A0",
"G 	c #737373",
"H 	c #6E6F71",
"I 	c #445266",
"J 	c #ACB3BD",
"K 	c #616263",
"L 	c #B1C7E2",
"M 	c #90ABC5",
"N 	c #ADC4E0",
"O 	c #BDD3F1",
"P 	c #B3CAE9",
"Q 	c #94AFCC",
"R 	c #88A5C1",
"S 	c #94AFCE",
"T 	c #B0C8EA",
"U 	c #B4CDEF",
"V 	c #B6CEEF",
"W 	c #FDFEFE",
"X 	c #414141",
"Y 	c #40454C",
"Z 	c #5F6163",
"` 	c #A9AAAD",
" .	c #7C828C",
"..	c #C7D9F3",
"+.	c #C2D6EF",
"@.	c #A3BAD4",
"#.	c #8FA9C2",
"$.	c #8DA8C2",
"%.	c #98B1CC",
"&.	c #B8CDE9",
"*.	c #C0D4F1",
"=.	c #BDD3F0",
"-.	c #ADC5E2",
";.	c #8FAAC7",
">.	c #B6C8DC",
",.	c #EFF1F3",
"'.	c #405169",
").	c #727E90",
"!.	c #59677D",
"~.	c #5B6470",
"{.	c #84888D",
"].	c #CDDDF4",
"^.	c #CCDDF4",
"/.	c #CBDCF4",
"(.	c #CADBF3",
"_.	c #C8DAF3",
":.	c #BBCFE9",
"<.	c #99B1CB",
"[.	c #8EA8C2",
"}.	c #A3BBD6",
"|.	c #BED3EF",
"1.	c #C0D5F1",
"2.	c #EAF1FA",
"3.	c #B2B8C2",
"4.	c #C8D3E1",
"5.	c #D1D5DB",
"6.	c #757575",
"7.	c #686B6F",
"8.	c #404F65",
"9.	c #B9BDC3",
"0.	c #6E7072",
"a.	c #B6C9DE",
"b.	c #96AEC4",
"c.	c #ACC1D7",
"d.	c #CBDBF1",
"e.	c #CADBF4",
"f.	c #C9DBF4",
"g.	c #B1C6DF",
"h.	c #93ACC5",
"i.	c #91ABC5",
"j.	c #B8CCE6",
"k.	c #FDFEFF",
"l.	c #737F91",
"m.	c #4E607A",
"n.	c #A6AEB9",
"o.	c #646464",
"p.	c #41464D",
"q.	c #67696B",
"r.	c #B2B3B4",
"s.	c #90969E",
"t.	c #D7E4F6",
"u.	c #D6E3F6",
"v.	c #BDCFE2",
"w.	c #9CB2C8",
"x.	c #97AFC4",
"y.	c #98B0C6",
"z.	c #B5C8DE",
"A.	c #C5D7F0",
"B.	c #D3DFEE",
"C.	c #F7F8F9",
"D.	c #43536C",
"E.	c #6A7E97",
"F.	c #FEFEFF",
"G.	c #677488",
"H.	c #3B4C64",
"I.	c #4C4C4C",
"J.	c #707070",
"K.	c #525963",
"L.	c #A1A5AB",
"M.	c #C3D2E3",
"N.	c #B4C6D8",
"O.	c #D7E3F4",
"P.	c #D9E6F7",
"Q.	c #D8E5F6",
"R.	c #D4E1F4",
"S.	c #B4C7DB",
"T.	c #9BB1C6",
"U.	c #9DB3C6",
"V.	c #9EB4CA",
"W.	c #C9D8E8",
"X.	c #E4EDF9",
"Y.	c #E7EFFA",
"Z.	c #EBF2FB",
"`.	c #FAFBFE",
" +	c #C5CAD2",
".+	c #B8C3D3",
"++	c #E7EAED",
"@+	c #36465C",
"#+	c #626262",
"$+	c #9FA2A7",
"%+	c #8C8E92",
"&+	c #E1EBF8",
"*+	c #C7D5E5",
"=+	c #A3B7C9",
"-+	c #9EB3C6",
";+	c #A1B5C8",
">+	c #CCD9E6",
",+	c #F3F7FC",
"'+	c #FBFCFE",
")+	c #FFFFFF",
"!+	c #C9D3DA",
"~+	c #B1C0CA",
"{+	c #DEE4E9",
"]+	c #8D97A6",
"^+	c #44556E",
"/+	c #EEF3F9",
"(+	c #ABB2BD",
"_+	c #3E4A5A",
":+	c #59687D",
"<+	c #ACADAD",
"[+	c #B2B7BE",
"}+	c #E6EEFA",
"|+	c #E5EEFA",
"1+	c #E8EFFA",
"2+	c #F6F9FD",
"3+	c #FAFBFC",
"4+	c #D0D9DF",
"5+	c #BFCBD4",
"6+	c #F0F3F4",
"7+	c #FEFEFE",
"8+	c #56657A",
"9+	c #748298",
"0+	c #3C4C65",
"a+	c #9BA4B1",
"b+	c #F4F8FD",
"c+	c #D9E2ED",
"d+	c #D6E0EB",
"e+	c #F4F7FC",
"f+	c #F1F4F5",
"g+	c #C0CCD4",
"h+	c #CED8DE",
"i+	c #E0E3E7",
"j+	c #B8BFC8",
"k+	c #43546C",
"l+	c #394960",
"m+	c #DCDFE4",
"n+	c #EDF2F8",
"o+	c #C8D3DA",
"p+	c #C2CDD5",
"q+	c #F1F4F6",
"r+	c #E2E7EB",
"s+	c #E6EBEE",
"t+	c #AAB1BC",
"u+	c #3F5068",
"v+	c #F0F1F3",
"w+	c #C6CBD2",
"x+	c #55647A",
"y+	c #EFF2F4",
"z+	c #BFCBD3",
"A+	c #CDD6DD",
"B+	c #F9FAFB",
"C+	c #677588",
"D+	c #8E98A7",
"E+	c #3B4B63",
"F+	c #E9EDF0",
"G+	c #C4CFD6",
"H+	c #F4F6F7",
"I+	c #E4E9EC",
"J+	c #B8C5CE",
"K+	c #B3C2CB",
"L+	c #D9E0E5",
"M+	c #F8F8F9",
"N+	c #9FA7B4",
"O+	c #57667B",
"P+	c #C8CDD4",
"Q+	c #EDF0F2",
"R+	c #BDC9D2",
"S+	c #B2C1CA",
"T+	c #D4DCE2",
"U+	c #FCFDFD",
"V+	c #FDFDFE",
"W+	c #D8DFE4",
"X+	c #D6DEE3",
"Y+	c #C7CCD3",
"Z+	c #D7DADF",
"`+	c #E2E5E8",
" @	c #44546C",
".@	c #F9FAFA",
"+@	c #DCE3E7",
"@@	c #B4C2CC",
"#@	c #E5EAED",
"$@	c #8E98A6",
"%@	c #4E5D74",
"&@	c #ABB3BD",
"*@	c #47576F",
"=@	c #F1F2F4",
"-@	c #F8FAFB",
";@	c #CBD5DC",
">@	c #536278",
",@	c #848F9E",
"'@	c #748092",
")@	c #3A4A61",
"!@	c #4B5B72",
"~@	c #8993A2",
"{@	c #B1B8C2",
"]@	c #D8DBE0",
"^@	c #FAFAFB",
"/@	c #B9BFC8",
"(@	c #F8F9FA",
"_@	c #44546D",
":@	c #394961",
"<@	c #41526A",
"[@	c #627084",
"}@	c #8893A2",
"|@	c #AFB6C0",
"1@	c #D5D9DE",
"2@	c #98A1AE",
"3@	c #ECEEF0",
"4@	c #C6CAD2",
"5@	c #697689",
"6@	c #939CAA",
"7@	c #6C798C",
"8@	c #45556D",
"9@	c #606D82",
"0@	c #ACB3BE",
"a@	c #D2D6DC",
"b@	c #F6F7F8",
"c@	c #F6F6F8",
"d@	c #4E5E75",
"e@	c #5A697E",
"f@	c #8A94A3",
"g@	c #4F5F75",
"h@	c #7D8899",
"i@	c #A0A9B5",
"j@	c #A5ADB9",
"k@	c #616F83",
"l@	c #40516A",
"m@	c #5D6B80",
"n@	c #4F5E75",
"o@	c #3A4A62",
"p@	c #546379",
"q@	c #7A8697",
"r@	c #9AA3B0",
"s@	c #9CA5B1",
"t@	c #9BA4B0",
"u@	c #8691A0",
"v@	c #85909F",
"w@	c #FCFCFD",
"x@	c #CDD1D8",
"y@	c #3B4B64",
"z@	c #3A4B63",
"A@	c #526177",
"B@	c #788495",
"C@	c #9DA5B2",
"D@	c #BEC4CC",
"E@	c #EBECEF",
"F@	c #FBFCFC",
"G@	c #727E91",
"H@	c #3C4D65",
"                  . .                                           ",
"              . . + @ # . . .                                   ",
"              . $ % & * = - ; # . . .                           ",
"            . . > , ' ) ! ~ { ] ^ / ( . . .                     ",
"        _ : < [ } | 1 2 3 4 5 ' 6 7 8 9 0 + . . .               ",
"      a b c d e 6 f g h i j | k 3 l m n o p q ; . .             ",
"      r   . s t u v w x y z A B C j D 1 3 4 w E F .             ",
"      G H I J K L M N , u O w P Q R g S T U V W / . . .         ",
"    r X Y Z `  ...+.@.#.$.%.&.*.u =.w -.;.R >.,.'.).!..         ",
"    r   . ~.{.].^./.(.~ _.:.<.#.[.}.|.1., u 2.3.. 4.5..         ",
"    6.7.8.9.0.a.b.c.d.} ^./.e.f._.g.h.#.i.j.k.l.m.2.n..         ",
"  o.  p.q.r.s.t.u.v.w.x.y.z.} } ].^./.(.A.B.C.D.E.F.G.H.        ",
"I.J.  . K.L.M.N.O.P.Q.t.R.S.T.U.V.W.X.Y.Z.`. +. .+++# @+        ",
"  #+  . $+%+&+*+=+-+;+>+,+'+)+)+C.!+~+~+{+)+]+^+/+(+.           ",
"    _+:+<+[+}+|+1+2+3+4+~+~+5+6+)+)+)+)+7+)+8+9+)+l.0+          ",
"    . a+b+c+d+e+F.)+)+)+)+)+f+g+~+~+h+3+)+i+. j+C.k+l+          ",
"    . m+,+n+o+~+~+p+q+)+)+)+)+)+)+)+r+s+)+t+u+v+w+.             ",
"  . x+k.'+)+)+)+)+y+z+~+~+A+B+)+)+)+)+)+)+l.C+)+D+E+            ",
"  . D+)+F+~+~+G+H+)+)+)+)+I+J+~+K+L+W )+M+k+N+)+O+E+            ",
"  . P+)+)+)+)+Q+R+~+S+T+U+)+)+)+V+W+X+)+Y+. Z+`+.               ",
".  @.@)+)+)+)+)+)+)+7++@@@~+J+#@)+)+)+)+$@%@7+&@.               ",
". *@=@)+)+)+)+)+)+)+)+)+)+)+-@;@~+L+)+7+>@,@)+'@)@              ",
"  . !@~@{@]@^@)+)+)+)+)+)+)+)+)+)+)+)+]@. /@(@_@:@              ",
"  . . . . . <@[@}@|@1@(@)+)+)+)+)+)+)+2@. 3@4@.                 ",
"      . 5@6@7@8@. . . '.9@F 0@a@b@)+c@d@e@)+f@E+                ",
"      . . g@h@i@j@- ~@k@l@. . . + m@x+. n.7+n@H.                ",
"        o@H.. . . . p@q@r@s@t@u@[@k++ v@w@x@.                   ",
"                H.y@z@. . . . A@B@C@D@E@F@G@.                   ",
"                          y@o@0+. . . . '.. z@                  ",
"                                    y@H@l+o@                    ",
"                                                                ",
"                                                                "};
