/* XPM */
static char * einfuehrung_mini_xpm[] = {
"32 32 139 2",
"  	c None",
". 	c #B72B24",
"+ 	c #C34F37",
"@ 	c #CF7748",
"# 	c #D4864D",
"$ 	c #D4874C",
"% 	c #D2814D",
"& 	c #C9623F",
"* 	c #BB372C",
"= 	c #AF2923",
"- 	c #BF4432",
"; 	c #DA9854",
"> 	c #EED86D",
", 	c #F1E36C",
"' 	c #F1E26E",
") 	c #E4B962",
"! 	c #CB6942",
"~ 	c #B72C25",
"{ 	c #AE2922",
"] 	c #B82F27",
"^ 	c #D68C50",
"/ 	c #F1E26D",
"( 	c #E7C264",
"_ 	c #C14C35",
": 	c #B22A23",
"< 	c #BA352A",
"[ 	c #E4BA62",
"} 	c #EFDE6C",
"| 	c #C96340",
"1 	c #B42A23",
"2 	c #F0DE6C",
"3 	c #C65A3B",
"4 	c #D5894F",
"5 	c #ECD26A",
"6 	c #A42720",
"7 	c #BB382C",
"8 	c #EFDC6C",
"9 	c #D3824C",
"0 	c #CE7245",
"a 	c #F0E26C",
"b 	c #EFE16B",
"c 	c #E8C566",
"d 	c #DA9A55",
"e 	c #565127",
"f 	c #1F1D0E",
"g 	c #AFA54E",
"h 	c #A29949",
"i 	c #090904",
"j 	c #39361A",
"k 	c #EBDE69",
"l 	c #B8AD52",
"m 	c #111008",
"n 	c #2C2914",
"o 	c #E2D465",
"p 	c #F1E36E",
"q 	c #BA3329",
"r 	c #E0AE5F",
"s 	c #CEC25C",
"t 	c #000000",
"u 	c #4A4621",
"v 	c #4F4B24",
"w 	c #C9BD5A",
"x 	c #6A642F",
"y 	c #AEA44E",
"z 	c #C04636",
"A 	c #DDA35A",
"B 	c #EEE06B",
"C 	c #433F1E",
"D 	c #0E0D06",
"E 	c #A39A49",
"F 	c #B6AC52",
"G 	c #272511",
"H 	c #5A5528",
"I 	c #C7BC59",
"J 	c #2E2B15",
"K 	c #E9DB68",
"L 	c #BC392E",
"M 	c #A52720",
"N 	c #D27F4A",
"O 	c #ECD36B",
"P 	c #BF4532",
"Q 	c #F1E36D",
"R 	c #DA9955",
"S 	c #DEA75B",
"T 	c #F0DF6D",
"U 	c #BF4431",
"V 	c #BD3D2E",
"W 	c #ECD46A",
"X 	c #D2804C",
"Y 	c #B12A23",
"Z 	c #C24C35",
"` 	c #EDD66B",
" .	c #D89255",
"..	c #C04632",
"+.	c #E5BB61",
"@.	c #D07949",
"#.	c #AF2922",
"$.	c #B62A23",
"%.	c #B11C14",
"&.	c #CB6C3C",
"*.	c #EED869",
"=.	c #DB9C56",
"-.	c #BF4531",
";.	c #B01911",
">.	c #BA371F",
",.	c #F0E06B",
"'.	c #E5BF5C",
").	c #E1B156",
"!.	c #E0AD5A",
"~.	c #D68E4B",
"{.	c #C86139",
"].	c #B93629",
"^.	c #AC2822",
"/.	c #A82821",
"(.	c #A71810",
"_.	c #DA9A4B",
":.	c #EDD566",
"<.	c #C96634",
"[.	c #B01A11",
"}.	c #A61810",
"|.	c #A31D15",
"1.	c #AA1810",
"2.	c #DCA14E",
"3.	c #B62C1A",
"4.	c #A41710",
"5.	c #86130D",
"6.	c #EACE63",
"7.	c #C5592E",
"8.	c #A91810",
"9.	c #95150E",
"0.	c #A31710",
"a.	c #BA371E",
"b.	c #D69147",
"c.	c #B42617",
"d.	c #A11710",
"e.	c #A81810",
"f.	c #B22014",
"g.	c #97160F",
"h.	c #AD1911",
"                                                                ",
"                                                                ",
"                                                                ",
"                                                                ",
"                      . . . . . . . .                           ",
"                . . . . + @ # $ % & * . . =                     ",
"              . . - ; > , , , , , , ' ) ! ~ . {                 ",
"          . . ] ^ / , , , , , , , , , , , ( _ . :               ",
"        . . < [ , , , , , , , , , , , , , , } | . 1             ",
"        . ] ) , , , , , , , , , , , , , , , , 2 3 . 1           ",
"      . . 4 , , , , , , , , , , , , , , , , , , 5 < . 6         ",
"      . 7 8 , , , , , , , , , , , , , , , , , , , 9 . {         ",
"    . . 0 , , , , , , , , , a , , , , , , b , , , c . .         ",
"    . . d , b e f g , , , h i j k , , , l m n o , p q .         ",
"    . . r , s t t u , , , v t t w , , , x t t y , , z . {       ",
"    . . A , B C D E , , , F G H b , , , I J u K , , L . M       ",
"    . . N , , , , , , , , , , , , , , , , , , , , O . .         ",
"      . P Q , , , , , , , , , , , , , , , , , , , R . 1         ",
"      . . S , , , , , , , , , , , , , , , , , , T U . :         ",
"        . V W , , , , , , , , , , , , , , , , , X . Y           ",
"        . . Z ` , , , , , , , , , , , , , , ,  .. 1             ",
"          . . ..+., , , , , , , , , , , , 8 @.. #.              ",
"              $.%.&.*., , , , , , , , T =.-.Y Y                 ",
"                ;.>.,., , , '.).!.~.{.].^./.                    ",
"              (.;._., , :.<.[.;.}.|.                            ",
"              1.>.,., 2.3.;.4.5.                                ",
"              ;._.6.7.;.8.9.                                    ",
"            0.a.b.c.}.d.                                        ",
"            e.f.8.g.                                            ",
"            h.0.                                                ",
"                                                                ",
"                                                                "};
