/* XPM */
static char * projekt_beenden_mini_xpm[] = {
"32 32 334 2",
"  	c None",
". 	c #593A28",
"+ 	c #583928",
"@ 	c #573827",
"# 	c #563827",
"$ 	c #553826",
"% 	c #553726",
"& 	c #543726",
"* 	c #7B6232",
"= 	c #947B39",
"- 	c #866E32",
"; 	c #80682E",
"> 	c #846A2D",
", 	c #876C2C",
"' 	c #8A6D2B",
") 	c #8D6E2A",
"! 	c #906F29",
"~ 	c #927028",
"{ 	c #947228",
"] 	c #967328",
"^ 	c #987529",
"/ 	c #9B7729",
"( 	c #9E7A2A",
"_ 	c #644822",
": 	c #1C120C",
"< 	c #1D130D",
"[ 	c #1F140E",
"} 	c #3A251A",
"| 	c #523625",
"1 	c #947E3D",
"2 	c #F5DB5E",
"3 	c #F6D95B",
"4 	c #F7D757",
"5 	c #F0CD50",
"6 	c #DEBB47",
"7 	c #CCAA3E",
"8 	c #BA9836",
"9 	c #B18F30",
"0 	c #B28D2E",
"a 	c #B28C2B",
"b 	c #644A20",
"c 	c #000000",
"d 	c #352218",
"e 	c #60442A",
"f 	c #EED860",
"g 	c #F7D758",
"h 	c #F8D554",
"i 	c #FAD250",
"j 	c #FBD04C",
"k 	c #FCCE48",
"l 	c #F4C542",
"m 	c #E2B43A",
"n 	c #D0A332",
"o 	c #BD942D",
"p 	c #624820",
"q 	c #090604",
"r 	c #503424",
"s 	c #7D6336",
"t 	c #F4DE62",
"u 	c #FDCC45",
"v 	c #FECA42",
"w 	c #FFC83E",
"x 	c #FFC83D",
"y 	c #F6C13B",
"z 	c #E3B236",
"A 	c #BD942E",
"B 	c #5F461F",
"C 	c #4B3122",
"D 	c #836A38",
"E 	c #825E2A",
"F 	c #866C39",
"G 	c #805D2B",
"H 	c #886E3A",
"I 	c #7C5A2A",
"J 	c #8A703B",
"K 	c #785729",
"L 	c #8C723C",
"M 	c #FAD350",
"N 	c #FBD14C",
"O 	c #755428",
"P 	c #8E743D",
"Q 	c #F5DC5E",
"R 	c #FCCF48",
"S 	c #FDCD45",
"T 	c #FECB42",
"U 	c #715127",
"V 	c #90763E",
"W 	c #FAD14C",
"X 	c #FDCC44",
"Y 	c #6D4E26",
"Z 	c #92783E",
"` 	c #F4DD62",
" .	c #F9D250",
"..	c #FAD04C",
"+.	c #FCCC44",
"@.	c #BC9636",
"#.	c #A08748",
"$.	c #CEB26D",
"%.	c #6A4C26",
"&.	c #030303",
"*.	c #957B40",
"=.	c #F4CD50",
"-.	c #AB4D1D",
";.	c #9D3413",
">.	c #DD9C36",
",.	c #967B38",
"'.	c #FAC942",
").	c #E2C785",
"!.	c #6A4C28",
"~.	c #141414",
"{.	c #4D3324",
"].	c #977E42",
"^.	c #F6DA5B",
"/.	c #F7D858",
"(.	c #B35D25",
"_.	c #7E0000",
":.	c #B0511B",
"<.	c #F8C13E",
"[.	c #EABA3F",
"}.	c #C0A663",
"|.	c #ECC565",
"1.	c #6A4D2B",
"2.	c #272727",
"3.	c #4F3525",
"4.	c #780A07",
"5.	c #8B3C1F",
"6.	c #BB7233",
"7.	c #C17C35",
"8.	c #C58136",
"9.	c #B8672A",
"0.	c #820602",
"a.	c #8A0200",
"b.	c #DD1000",
"c.	c #990400",
"d.	c #911D09",
"e.	c #E39E30",
"f.	c #6B4F2F",
"g.	c #3A3A3A",
"h.	c #513627",
"i.	c #A60600",
"j.	c #FF1500",
"k.	c #FD6658",
"l.	c #C0150B",
"m.	c #800000",
"n.	c #800201",
"o.	c #C77122",
"p.	c #6C5133",
"q.	c #4C4C4C",
"r.	c #533829",
"s.	c #CC0D00",
"t.	c #DE1000",
"u.	c #D80F00",
"v.	c #CF0D00",
"w.	c #C60C00",
"x.	c #C20B00",
"y.	c #C10B00",
"z.	c #C40B00",
"A.	c #EA1200",
"B.	c #FFA39B",
"C.	c #FFD7D3",
"D.	c #E32E20",
"E.	c #8C0200",
"F.	c #B35219",
"G.	c #FEC63D",
"H.	c #6F5438",
"I.	c #606060",
"J.	c #543A2B",
"K.	c #820100",
"L.	c #FE2612",
"M.	c #FF8F85",
"N.	c #FFCCC8",
"O.	c #FFDCD9",
"P.	c #FFE1DF",
"Q.	c #FFE0DD",
"R.	c #FFC8C3",
"S.	c #FF9086",
"T.	c #FF2411",
"U.	c #FF3624",
"V.	c #FF8479",
"W.	c #F23222",
"X.	c #930300",
"Y.	c #B14F18",
"Z.	c #72583D",
"`.	c #727272",
" +	c #563C2D",
".+	c #850100",
"++	c #FF1601",
"@+	c #FF230F",
"#+	c #FF2511",
"$+	c #FF1A05",
"%+	c #FF1C08",
"&+	c #F01300",
"*+	c #860100",
"=+	c #D38328",
"-+	c #765D42",
";+	c #858585",
">+	c #583E2E",
",+	c #E00900",
"'+	c #D70500",
")+	c #D90600",
"!+	c #DA0600",
"~+	c #DD0700",
"{+	c #E10900",
"]+	c #E50B00",
"^+	c #E90C00",
"/+	c #F41000",
"(+	c #FB1300",
"_+	c #9D0300",
":+	c #BC611E",
"<+	c #7A6148",
"[+	c #989898",
"}+	c #5A4030",
"|+	c #CC0200",
"1+	c #CB0000",
"2+	c #CE0100",
"3+	c #FC1400",
"4+	c #EF0E00",
"5+	c #C20200",
"6+	c #891105",
"7+	c #F3B637",
"8+	c #7F664E",
"9+	c #AAAAAA",
"0+	c #5C4232",
"a+	c #940000",
"b+	c #A50000",
"c+	c #AB0000",
"d+	c #B50200",
"e+	c #B90200",
"f+	c #BA0100",
"g+	c #C60200",
"h+	c #E70B00",
"i+	c #F91300",
"j+	c #C40000",
"k+	c #880000",
"l+	c #800401",
"m+	c #DC922D",
"n+	c #F5C03C",
"o+	c #826A53",
"p+	c #BDBDBD",
"q+	c #5D4334",
"r+	c #C00100",
"s+	c #D40400",
"t+	c #CC0000",
"u+	c #C60000",
"v+	c #8C0000",
"w+	c #C77726",
"x+	c #C49636",
"y+	c #926D37",
"z+	c #847061",
"A+	c #ABA39F",
"B+	c #C5C5C5",
"C+	c #5E4434",
"D+	c #975B2E",
"E+	c #CF9944",
"F+	c #D49F45",
"G+	c #D29840",
"H+	c #8E1C0C",
"I+	c #A90100",
"J+	c #C30000",
"K+	c #763120",
"L+	c #846F5E",
"M+	c #A29993",
"N+	c #C1C0C0",
"O+	c #A08747",
"P+	c #F4DE64",
"Q+	c #F5DC60",
"R+	c #F6DA5C",
"S+	c #C17731",
"T+	c #B50000",
"U+	c #860000",
"V+	c #800505",
"W+	c #A47473",
"X+	c #C0BFBE",
"Y+	c #C8C8C8",
"Z+	c #CACACA",
"`+	c #CDCDCD",
" @	c #D0D0D0",
".@	c #D2D2D2",
"+@	c #D5D5D5",
"@@	c #614535",
"#@	c #8A6F3C",
"$@	c #E5BB4D",
"%@	c #7E0201",
"&@	c #7F0000",
"*@	c #861313",
"=@	c #BF9F9F",
"-@	c #D4D4D4",
";@	c #D7D7D7",
">@	c #DADADA",
",@	c #DCDCDC",
"'@	c #DFDFDF",
")@	c #E2E2E2",
"!@	c #E4E4E4",
"~@	c #D5D1CF",
"{@	c #573928",
"]@	c #68492E",
"^@	c #E9D25F",
"/@	c #C8AE50",
"(@	c #977A40",
"_@	c #8B7561",
":@	c #A56E6B",
"<@	c #810606",
"[@	c #9D4646",
"}@	c #DACDCD",
"|@	c #E4E3E3",
"1@	c #89756A",
"2@	c #513524",
"3@	c #5C3D29",
"4@	c #6F5546",
"5@	c #B0A49E",
"6@	c #BBB1AC",
"7@	c #BAB1AC",
"8@	c #B09B95",
"9@	c #A88883",
"0@	c #B9B0AA",
"a@	c #B9AFAA",
"b@	c #B9AFA9",
"c@	c #B8AFA9",
"d@	c #B8AEA9",
"e@	c #B8AEA8",
"f@	c #B7AEA8",
"g@	c #B7ADA7",
"h@	c #B6ACA6",
"i@	c #B6ABA5",
"j@	c #B2A7A0",
"k@	c #826C5F",
"l@	c #583927",
"m@	c #4E3323",
"n@	c #4E3223",
"o@	c #4D3223",
"p@	c #4D3222",
"q@	c #4C3222",
"r@	c #4C3122",
"s@	c #4A3021",
"                                                                ",
"              . . . . . . . . . . . . . + + @ # $ %             ",
"          & * = - ; > , ' ) ! ~ { ] ^ / ( _ : < < [ } |         ",
"        . 1 2 3 4 5 6 7 8 9 0 a a a a a a b c c c c c d         ",
"        e f 2 3 g h i j k l m n o a a a a p c c c c c q r       ",
"        s t 2 3 g h i j k u v w x y z n A B c c c c c c C       ",
"        D t 2 3 g h i j k u v w x x x x x E c c c c c c C       ",
"        F t 2 3 g h i j k u v w x x x x x G c c c c c c C       ",
"        H t 2 3 g h i j k u v w x x x x x I c c c c c c C       ",
"        J t 2 3 g h i j k u v w x x x x x K c c c c c c C       ",
"        L t 2 3 g h M N k u v w x x x x x O c c c c c c C       ",
"        P t Q 3 g h M N R S T w x x x x x U c c c c c c C       ",
"        V t Q 3 g h M W k X v w x x x x x Y c c c c c c C       ",
"        Z ` 2 3 g h  ...k +.v w x x @.#.$.%.&.&.&.&.&.&.C       ",
"        *.t Q 3 g =.-.;.>.+.v w x x ,.'.).!.~.~.~.~.~.~.{.      ",
"        ].t Q ^./.(._._._.:.<.w x x [.}.|.1.2.2.2.2.2.2.3.      ",
"    _.4.5.6.7.8.9.0.a.b.c._.d.e.x x x x x f.g.g.g.g.g.g.h.      ",
"  _._._._._._._._._.i.j.k.l.m.n.o.x x x x p.q.q.q.q.q.q.r.      ",
"_._.s.t.u.v.w.x.y.z.A.j.B.C.D.E._.F.G.x x H.I.I.I.I.I.I.J.      ",
"_.K.L.M.N.O.P.Q.R.S.T.j.j.U.V.W.X._.Y.x x Z.`.`.`.`.`.`. +      ",
"_..+j.j.++@+#+$+j.j.j.j.j.j.j.%+&+*+_.=+x -+;+;+;+;+;+;+>+      ",
"_.m.,+'+)+!+~+{+]+^+/+j.j.j.j.j.(+_+_.:+x <+[+[+[+[+[+[+}+      ",
"_._.|+1+1+1+1+1+1+1+2+3+j.j.j.4+5+m.6+7+x 8+9+9+9+9+9+9+0+      ",
"_._.a+b+c+d+e+f+f+g+1+h+j.i+~+j+k+l+m+x n+o+p+p+p+p+p+p+q+      ",
"_._._._._._._._._._.r+1+s+t+u+v+_.w+x+y+z+A+B+B+B+B+B+B+C+      ",
"        D+E+F+G+H+_.I+1+1+J+v+_.K+L+M+N+B+B+B+B+B+B+B+B+C+      ",
"        O+P+Q+R+S+_.k+u+T+U+V+W+X+B+B+B+B+B+Y+Z+`+ @.@+@@@      ",
"        #@P+Q+R+$@%@_.&@_.*@=@-@;@>@,@'@)@!@!@!@!@!@!@~@{@      ",
"        ]@^@/@(@_@:@<@_.[@}@!@!@!@!@!@!@!@!@!@!@!@!@|@1@2@      ",
"          3@4@5@6@7@8@9@0@a@b@c@d@e@f@g@g@h@h@i@i@j@k@l@        ",
"              r m@m@n@o@o@p@q@q@r@r@C C C s@s@s@. .             ",
"                                                                "};
