/* XPM */
static char * projekt_datei_speichern_mini_xpm[] = {
"32 32 210 2",
"  	c None",
". 	c #230000",
"+ 	c #270301",
"@ 	c #3E180D",
"# 	c #AD7339",
"$ 	c #D3842F",
"% 	c #4D1E09",
"& 	c #2D0905",
"* 	c #AD8660",
"= 	c #D5A168",
"- 	c #E18E31",
"; 	c #A65F1C",
"> 	c #6D452B",
", 	c #E2BF98",
"' 	c #D5A065",
") 	c #E28F30",
"! 	c #CC7A24",
"~ 	c #37120A",
"{ 	c #B38C65",
"] 	c #F2D0A8",
"^ 	c #CD9353",
"/ 	c #E69130",
"( 	c #DA8527",
"_ 	c #6B4329",
": 	c #DCB891",
"< 	c #F1CEA6",
"[ 	c #C2833F",
"} 	c #E7912F",
"| 	c #2E0A05",
"1 	c #A67F58",
"2 	c #E4BE94",
"3 	c #C2813A",
"4 	c #E8922F",
"5 	c #D07D25",
"6 	c #5B3420",
"7 	c #CFAB84",
"8 	c #CFA679",
"9 	c #C48139",
"0 	c #EA922E",
"a 	c #BB6E20",
"b 	c #8D6441",
"c 	c #EECCA4",
"d 	c #B98C5E",
"e 	c #C68239",
"f 	c #EC932E",
"g 	c #A55E1C",
"h 	c #BD9771",
"i 	c #A57646",
"j 	c #C88338",
"k 	c #EE942D",
"l 	c #8C4C16",
"m 	c #684027",
"n 	c #E0BC95",
"o 	c #D3AF88",
"p 	c #A47343",
"q 	c #CA8538",
"r 	c #69320F",
"s 	c #9A714C",
"t 	c #B58F68",
"u 	c #A57442",
"v 	c #CC8537",
"w 	c #EF952D",
"x 	c #441807",
"y 	c #3F190E",
"z 	c #C39E77",
"A 	c #9A724C",
"B 	c #A77542",
"C 	c #CE8636",
"D 	c #E78F2B",
"E 	c #260201",
"F 	c #633B24",
"G 	c #DEBB94",
"H 	c #D0AC84",
"I 	c #956D47",
"J 	c #AA7641",
"K 	c #D08736",
"L 	c #BD7021",
"M 	c #885F3E",
"N 	c #F1CFA7",
"O 	c #AC855F",
"P 	c #AC7740",
"Q 	c #D28835",
"R 	c #B08962",
"S 	c #E1BE96",
"T 	c #AE7840",
"U 	c #D48934",
"V 	c #59270C",
"W 	c #4E2717",
"X 	c #BA946D",
"Y 	c #B38D66",
"Z 	c #966D47",
"` 	c #B07940",
" .	c #CC8231",
"..	c #280301",
"+.	c #A8815B",
"@.	c #CEAA83",
"#.	c #966E47",
"$.	c #B27A3F",
"%.	c #975A23",
"&.	c #2A0909",
"*.	c #5E453C",
"=.	c #968075",
"-.	c #A38D81",
";.	c #7F6656",
">.	c #754F35",
",.	c #966C45",
"'.	c #B47B3E",
").	c #5A2B11",
"!.	c #4D3838",
"~.	c #8B8B8B",
"{.	c #E3E3E3",
"].	c #F2F2F2",
"^.	c #979797",
"/.	c #888787",
"(.	c #675046",
"_.	c #925C2C",
":.	c #250201",
"<.	c #3B022D",
"[.	c #270678",
"}.	c #220689",
"|.	c #33044F",
"1.	c #3C2121",
"2.	c #EEEEEE",
"3.	c #3D2323",
"4.	c #470000",
"5.	c #050BED",
"6.	c #000CFF",
"7.	c #010CFE",
"8.	c #350347",
"9.	c #280308",
"0.	c #312179",
"a.	c #4A42AF",
"b.	c #6A5B85",
"c.	c #777070",
"d.	c #665959",
"e.	c #240202",
"f.	c #3A0237",
"g.	c #1808AB",
"h.	c #2E0460",
"i.	c #360340",
"j.	c #340450",
"k.	c #270677",
"l.	c #240680",
"m.	c #320450",
"n.	c #200331",
"o.	c #070BE0",
"p.	c #150B9D",
"q.	c #331515",
"r.	c #2F045B",
"s.	c #050BEF",
"t.	c #1D0799",
"u.	c #250101",
"v.	c #070CE8",
"w.	c #240324",
"x.	c #380337",
"y.	c #1608B2",
"z.	c #1409BB",
"A.	c #26067A",
"B.	c #430113",
"C.	c #330413",
"D.	c #1C066C",
"E.	c #3D0224",
"F.	c #370340",
"G.	c #3C0230",
"H.	c #1509BB",
"I.	c #0C0ADC",
"J.	c #42011A",
"K.	c #240000",
"L.	c #080CE1",
"M.	c #120680",
"N.	c #2D0565",
"O.	c #0E0ACF",
"P.	c #450009",
"Q.	c #1E0330",
"R.	c #040BDF",
"S.	c #270536",
"T.	c #26067C",
"U.	c #1F0797",
"V.	c #280000",
"W.	c #280A48",
"X.	c #260528",
"Y.	c #0909BF",
"Z.	c #180BA8",
"`.	c #3B0230",
" +	c #1C08A0",
".+	c #1B08A3",
"++	c #270339",
"@+	c #4A235D",
"#+	c #4E2774",
"$+	c #391221",
"%+	c #360E18",
"&+	c #2717C0",
"*+	c #1312E5",
"=+	c #0F10EA",
"-+	c #1B0B8C",
";+	c #270206",
">+	c #3B0231",
",+	c #350346",
"'+	c #24068C",
")+	c #1A08AC",
"!+	c #1508B6",
"~+	c #33080C",
"{+	c #553420",
"]+	c #644430",
"^+	c #644039",
"/+	c #573040",
"(+	c #421B3A",
"_+	c #2E0812",
":+	c #440000",
"<+	c #290000",
"                                                                ",
"                                                . + + .         ",
"                                              . @ # $ % .       ",
"                                              & * = - ; .       ",
"                                            . > , ' ) ! .       ",
"                                          . ~ { ] ^ / ( .       ",
"                                          . _ : < [ } ( .       ",
"                                        . | 1 ] 2 3 4 5 .       ",
"                                        . 6 7 ] 8 9 0 a .       ",
"                                      . . b c ] d e f g .       ",
"                                      . @ h ] c i j k l .       ",
"                                      . m n ] o p q k r .       ",
"                                    . . s ] ] t u v w x .       ",
"                                    . y z ] c A B C D E         ",
"                                    . F G ] H I J K L .         ",
"                                  . . M N ] O I P Q l .         ",
"                                  . | R ] S I I T U V           ",
"                                  . W X ] Y I Z `  ...          ",
"                                . . > +.@.I I #.$.%..           ",
"                                . &.*.=.-.;.>.,.'.)..           ",
"                                . !.~.{.].^./.(._.:.            ",
"            <.[.}.|.            . 1.~.2.{.~.~.~.3..             ",
"          4.5.6.6.7.8.          . 9.0.a.b.c.~.d.e.              ",
"  f.g.h.    i.j.k.l.m.        . n.o.6.6.6.p.q..                 ",
"  r.s.t.    4.                u.v.6.6.6.6.6.w..                 ",
"        x.y.z.A.B.            C.6.6.6.6.6.6.D..                 ",
"      4.E.F.G.H.I.J.          K.L.6.6.6.6.6.M..                 ",
"              N.6.O.P.    . . . Q.R.6.6.6.6.S..                 ",
"      4.      T.6.6.U.4.V.W.X.. . Y.6.6.6.Z..                   ",
"      4.4.`. +6.6.6.6..+++@+#+$+%+&+*+=+-+;+.                   ",
"        4.>+,+A.l.l.'+)+!+~+{+]+^+/+(+_+.                       ",
"                          :+<+. . . .                           "};
