/* XPM */
static char * projekt_speichernunter_mini_xpm[] = {
"32 32 217 2",
"  	c None",
". 	c #230000",
"+ 	c #270301",
"@ 	c #4D1E09",
"# 	c #D3842F",
"$ 	c #AD7339",
"% 	c #3E180D",
"& 	c #A65F1C",
"* 	c #E18E31",
"= 	c #D5A168",
"- 	c #AD8660",
"; 	c #2D0905",
"> 	c #CC7A24",
", 	c #E28F30",
"' 	c #D5A065",
") 	c #E2BF98",
"! 	c #6D452B",
"~ 	c #DA8527",
"{ 	c #E69130",
"] 	c #CD9353",
"^ 	c #F2D0A8",
"/ 	c #B38C65",
"( 	c #37120A",
"_ 	c #E7912F",
": 	c #C2833F",
"< 	c #F1CEA6",
"[ 	c #DCB891",
"} 	c #6B4329",
"| 	c #D07D25",
"1 	c #E8922F",
"2 	c #C2813A",
"3 	c #E4BE94",
"4 	c #A67F58",
"5 	c #2E0A05",
"6 	c #BB6E20",
"7 	c #EA922E",
"8 	c #C48139",
"9 	c #CFA679",
"0 	c #CFAB84",
"a 	c #5B3420",
"b 	c #A55E1C",
"c 	c #EC932E",
"d 	c #C68239",
"e 	c #B98C5E",
"f 	c #EECCA4",
"g 	c #8D6441",
"h 	c #8C4C16",
"i 	c #EE942D",
"j 	c #C88338",
"k 	c #A57646",
"l 	c #BD9771",
"m 	c #69320F",
"n 	c #CA8538",
"o 	c #A47343",
"p 	c #D3AF88",
"q 	c #E0BC95",
"r 	c #684027",
"s 	c #441807",
"t 	c #EF952D",
"u 	c #CC8537",
"v 	c #A57442",
"w 	c #B58F68",
"x 	c #9A714C",
"y 	c #260201",
"z 	c #E78F2B",
"A 	c #CE8636",
"B 	c #A77542",
"C 	c #9A724C",
"D 	c #C39E77",
"E 	c #3F190E",
"F 	c #BD7021",
"G 	c #D08736",
"H 	c #AA7641",
"I 	c #956D47",
"J 	c #D0AC84",
"K 	c #DEBB94",
"L 	c #633B24",
"M 	c #D28835",
"N 	c #AC7740",
"O 	c #AC855F",
"P 	c #F1CFA7",
"Q 	c #885F3E",
"R 	c #59270C",
"S 	c #D48934",
"T 	c #AE7840",
"U 	c #E1BE96",
"V 	c #B08962",
"W 	c #280301",
"X 	c #CC8231",
"Y 	c #B07940",
"Z 	c #966D47",
"` 	c #B38D66",
" .	c #BA946D",
"..	c #4E2717",
"+.	c #975A23",
"@.	c #B27A3F",
"#.	c #966E47",
"$.	c #CEAA83",
"%.	c #A8815B",
"&.	c #5A2B11",
"*.	c #B47B3E",
"=.	c #966C45",
"-.	c #754F35",
";.	c #7F6656",
">.	c #A38D81",
",.	c #968075",
"'.	c #5E453C",
").	c #2A0909",
"!.	c #250201",
"~.	c #925C2C",
"{.	c #675046",
"].	c #888787",
"^.	c #979797",
"/.	c #F2F2F2",
"(.	c #E3E3E3",
"_.	c #8B8B8B",
":.	c #4D3838",
"<.	c #3D2323",
"[.	c #EEEEEE",
"}.	c #3C2121",
"|.	c #630000",
"1.	c #850000",
"2.	c #790000",
"3.	c #530000",
"4.	c #240202",
"5.	c #665959",
"6.	c #777070",
"7.	c #8F5B64",
"8.	c #AD4059",
"9.	c #821F34",
"0.	c #2A0304",
"a.	c #620000",
"b.	c #B70000",
"c.	c #BC0000",
"d.	c #A80000",
"e.	c #470000",
"f.	c #331515",
"g.	c #9F082C",
"h.	c #FE0047",
"i.	c #FF0047",
"j.	c #DF033E",
"k.	c #4E020E",
"l.	c #660000",
"m.	c #760000",
"n.	c #700000",
"o.	c #6B0000",
"p.	c #640000",
"q.	c #6C0000",
"r.	c #8B0000",
"s.	c #5A0000",
"t.	c #41030A",
"u.	c #E50340",
"v.	c #250101",
"w.	c #830000",
"x.	c #AC0000",
"y.	c #650000",
"z.	c #79041D",
"A.	c #390508",
"B.	c #4E0000",
"C.	c #7A0000",
"D.	c #920000",
"E.	c #910000",
"F.	c #580000",
"G.	c #840420",
"H.	c #FE0147",
"I.	c #FC0147",
"J.	c #DE053E",
"K.	c #240000",
"L.	c #510000",
"M.	c #990000",
"N.	c #560000",
"O.	c #540000",
"P.	c #540411",
"Q.	c #F40645",
"R.	c #EF0844",
"S.	c #EA0B44",
"T.	c #E50E43",
"U.	c #C60F39",
"V.	c #43040C",
"W.	c #490000",
"X.	c #A10000",
"Y.	c #6E0000",
"Z.	c #9E122D",
"`.	c #CD1B3E",
" +	c #C81E3E",
".+	c #C3203D",
"++	c #931B2C",
"@+	c #3C0A0B",
"#+	c #501414",
"$+	c #280000",
"%+	c #290202",
"&+	c #771B23",
"*+	c #A43037",
"=+	c #A03337",
"-+	c #943433",
";+	c #3D100D",
">+	c #441611",
",+	c #7F392E",
"'+	c #703127",
")+	c #4A0000",
"!+	c #890000",
"~+	c #BB0000",
"{+	c #BA0000",
"]+	c #8A0000",
"^+	c #590000",
"/+	c #340A08",
"(+	c #57231B",
"_+	c #683726",
":+	c #6D442B",
"<+	c #68462A",
"[+	c #56351F",
"}+	c #360705",
"|+	c #860000",
"1+	c #810000",
"2+	c #710000",
"3+	c #290000",
"4+	c #440000",
"                                                                ",
"        . + + .                                                 ",
"      . @ # $ % .                                               ",
"      . & * = - ;                                               ",
"      . > , ' ) ! .                                             ",
"      . ~ { ] ^ / ( .                                           ",
"      . ~ _ : < [ } .                                           ",
"      . | 1 2 3 ^ 4 5 .                                         ",
"      . 6 7 8 9 ^ 0 a .                                         ",
"      . b c d e ^ f g . .                                       ",
"      . h i j k f ^ l % .                                       ",
"      . m i n o p ^ q r .                                       ",
"      . s t u v w ^ ^ x . .                                     ",
"        y z A B C f ^ D E .                                     ",
"        . F G H I J ^ K L .                                     ",
"        . h M N I O ^ P Q . .                                   ",
"          R S T I I U ^ V 5 .                                   ",
"          W X Y Z I ` ^  ....                                   ",
"          . +.@.#.I I $.%.! . .                                 ",
"          . &.*.=.-.;.>.,.'.)..                                 ",
"            !.~.{.].^./.(._.:..                                 ",
"            . <._._._.(.[._.}..             |.1.2.3.            ",
"              4.5._.6.7.8.9.0..           a.b.c.c.d.e.          ",
"                . f.g.h.i.i.j.k..         l.m.n.o.p.    q.r.s.  ",
"                . t.h.i.i.i.i.u.v.                e.    w.x.y.  ",
"                . z.i.i.i.i.i.i.A.            B.C.D.E.F.        ",
"                . G.i.i.i.H.I.J.K.          L.d.M.3.N.O.e.      ",
"                . P.Q.R.S.T.U.V.. . .     W.X.c.Y.              ",
"                  . Z.`. +.+++. . @+#+$+e.1.c.c.C.      e.      ",
"                  . %+&+*+=+-+;+>+,+'+)+!+~+c.c.{+]+^+e.e.      ",
"                      . /+(+_+:+<+[+}+!+r.|+1+2.2+p.3.e.        ",
"                          . . . . 3+4+                          "};
