/* XPM */
static char * projekt_oeffnen_mini_xpm[] = {
"32 32 339 2",
"  	c None",
". 	c #FCA548",
"+ 	c #FCA246",
"@ 	c #FBA94A",
"# 	c #F5CA5E",
"$ 	c #F9B450",
"% 	c #FAAE4D",
"& 	c #F1E36C",
"* 	c #F1E26B",
"= 	c #CF8D3E",
"- 	c #100904",
"; 	c #000000",
"> 	c #1D1107",
", 	c #73461E",
"' 	c #A97131",
") 	c #F0D665",
"! 	c #F8BD55",
"~ 	c #F7C258",
"{ 	c #FCA346",
"] 	c #FE9B42",
"^ 	c #F3D966",
"/ 	c #F1E26C",
"( 	c #ACA24D",
"_ 	c #0C0B05",
": 	c #15140A",
"< 	c #726932",
"[ 	c #5D3717",
"} 	c #070809",
"| 	c #454D59",
"1 	c #7A889E",
"2 	c #333942",
"3 	c #1B160A",
"4 	c #141309",
"5 	c #383419",
"6 	c #E5D867",
"7 	c #F5CD5F",
"8 	c #FF933D",
"9 	c #F8B954",
"0 	c #C4B958",
"a 	c #090904",
"b 	c #3B381B",
"c 	c #E1D465",
"d 	c #CDC87B",
"e 	c #918E90",
"f 	c #96A1B1",
"g 	c #818284",
"h 	c #CED3DA",
"i 	c #D4D8E0",
"j 	c #BBBFC7",
"k 	c #6D7075",
"l 	c #768294",
"m 	c #BAA57A",
"n 	c #ECE06E",
"o 	c #AAA04C",
"p 	c #090804",
"q 	c #5C5629",
"r 	c #F2E06A",
"s 	c #F4D061",
"t 	c #FBAA4B",
"u 	c #FD9F44",
"v 	c #A79E4B",
"w 	c #39361A",
"x 	c #E2D567",
"y 	c #AAAC8A",
"z 	c #9CA7B7",
"A 	c #DADCE0",
"B 	c #FFFFFF",
"C 	c #FAFAFA",
"D 	c #F7F8F9",
"E 	c #B7BECA",
"F 	c #909997",
"G 	c #E0D673",
"H 	c #7C7538",
"I 	c #020201",
"J 	c #D9CC61",
"K 	c #F4D362",
"L 	c #FCA648",
"M 	c #F0E36C",
"N 	c #A3A78D",
"O 	c #B3BBC8",
"P 	c #A5A6A6",
"Q 	c #525252",
"R 	c #A0A0A0",
"S 	c #D5D5D5",
"T 	c #4A4A4A",
"U 	c #FDFDFD",
"V 	c #DBDEE4",
"W 	c #8C969D",
"X 	c #CFC568",
"Y 	c #A59C4A",
"Z 	c #EBDE69",
"` 	c #F6BB55",
" .	c #BDBC82",
"..	c #A7B0BF",
"+.	c #A4A4A4",
"@.	c #AFAFAF",
"#.	c #828282",
"$.	c #808080",
"%.	c #B4B4B4",
"&.	c #EDEDED",
"*.	c #686868",
"=.	c #878787",
"-.	c #C7C7C7",
";.	c #8C8C8C",
">.	c #D4D9E0",
",.	c #959D93",
"'.	c #F4D564",
").	c #E9DD6F",
"!.	c #8A96A1",
"~.	c #F5F6F8",
"{.	c #7E7E7E",
"].	c #DCDCDC",
"^.	c #101010",
"/.	c #616161",
"(.	c #959595",
"_.	c #CECECE",
":.	c #606060",
"<.	c #CBCBCB",
"[.	c #5A5A5A",
"}.	c #F2F2F2",
"|.	c #A6AFBE",
"1.	c #C8C47D",
"2.	c #F3D866",
"3.	c #F39F45",
"4.	c #FCA045",
"5.	c #F7BA54",
"6.	c #C3C080",
"7.	c #B6BECA",
"8.	c #FFFFFE",
"9.	c #F4F0EF",
"0.	c #717171",
"a.	c #727272",
"b.	c #6B6B6B",
"c.	c #F1F1F1",
"d.	c #FFFCFC",
"e.	c #737373",
"f.	c #696969",
"g.	c #7A7A7A",
"h.	c #C8C6C6",
"i.	c #FFD7D5",
"j.	c #FFCECC",
"k.	c #E4D8DC",
"l.	c #9AA091",
"m.	c #F6C75C",
"n.	c #E08137",
"o.	c #E9914B",
"p.	c #F3D564",
"q.	c #A1A68E",
"r.	c #DFE0E6",
"s.	c #FFCAC8",
"t.	c #FFBFBC",
"u.	c #FFDAD8",
"v.	c #C6C6C6",
"w.	c #F78989",
"x.	c #EE1212",
"y.	c #ED0606",
"z.	c #F24C4C",
"A.	c #FDE9E9",
"B.	c #B5B5B5",
"C.	c #ECECEC",
"D.	c #FFEFEE",
"E.	c #FFD2D0",
"F.	c #8A96A8",
"G.	c #EFCF64",
"H.	c #F5CC5E",
"I.	c #E8A868",
"J.	c #6E798C",
"K.	c #848FA2",
"L.	c #FAC79A",
"M.	c #FCBF78",
"N.	c #948E8E",
"O.	c #F3EFF0",
"P.	c #FFC1BE",
"Q.	c #FFCDCB",
"R.	c #FABCBC",
"S.	c #ED0000",
"T.	c #F35B5B",
"U.	c #F4F4F4",
"V.	c #EBE9E9",
"W.	c #FFDCDA",
"X.	c #FFF2F1",
"Y.	c #9CA6B6",
"Z.	c #EBC4A5",
"`.	c #FFE4CF",
" +	c #FFFDFC",
".+	c #A1ABBA",
"++	c #ACB4C2",
"@+	c #8F9AAC",
"#+	c #F8F9FA",
"$+	c #FFF3F2",
"%+	c #FFE4E2",
"&+	c #F9F3F3",
"*+	c #F9AEAE",
"=+	c #F24D4D",
"-+	c #B0AFAF",
";+	c #A1ABBB",
">+	c #E6E9ED",
",+	c #CED3DB",
"'+	c #AEB7C4",
")+	c #EBEDF0",
"!+	c #A09F9F",
"~+	c #BDBCBC",
"{+	c #FFFDFD",
"]+	c #F46262",
"^+	c #ED0101",
"/+	c #F02626",
"(+	c #FCD8D8",
"_+	c #DDDDDD",
":+	c #965C59",
"<+	c #AFADAD",
"[+	c #949FB1",
"}+	c #F3F4F6",
"|+	c #C6CCD5",
"1+	c #748196",
"2+	c #8693A7",
"3+	c #F4F5F7",
"4+	c #B7BFCB",
"5+	c #CBD0D9",
"6+	c #FCFCFC",
"7+	c #B1B1B1",
"8+	c #987574",
"9+	c #C4BABA",
"0+	c #DDC9C9",
"a+	c #E7C5C5",
"b+	c #DBD8D8",
"c+	c #BBB5B4",
"d+	c #B18784",
"e+	c #C35953",
"f+	c #FF7068",
"g+	c #C7ADAB",
"h+	c #F6F7F8",
"i+	c #8C98AB",
"j+	c #8A96A9",
"k+	c #8D99AC",
"l+	c #C8CDD6",
"m+	c #99A4B5",
"n+	c #C95852",
"o+	c #E7655E",
"p+	c #D95F59",
"q+	c #E3645D",
"r+	c #FC6F67",
"s+	c #D5BEBD",
"t+	c #C7CDD6",
"u+	c #7A879C",
"v+	c #A6B0BE",
"w+	c #B0B8C5",
"x+	c #828FA2",
"y+	c #768398",
"z+	c #78859B",
"A+	c #748297",
"B+	c #AAAAAA",
"C+	c #E7665E",
"D+	c #F4645C",
"E+	c #F16159",
"F+	c #EB6860",
"G+	c #E7E5E5",
"H+	c #808C9F",
"I+	c #15171B",
"J+	c #3E4550",
"K+	c #040000",
"L+	c #6E1215",
"M+	c #8A8497",
"N+	c #E8EBEE",
"O+	c #D0D0D0",
"P+	c #A5524D",
"Q+	c #F86860",
"R+	c #C12C24",
"S+	c #B01911",
"T+	c #BB251D",
"U+	c #E15A53",
"V+	c #C49491",
"W+	c #FCFCFD",
"X+	c #A2363F",
"Y+	c #790000",
"Z+	c #080000",
"`+	c #680000",
" @	c #D31F24",
".@	c #8B879A",
"+@	c #D9DDE3",
"@@	c #DFDFDF",
"#@	c #947371",
"$@	c #923530",
"%@	c #931812",
"&@	c #9B1A13",
"*@	c #8B1D17",
"=@	c #9E5753",
"-@	c #D0C2C2",
";@	c #F0F2F4",
">@	c #99A3B4",
",@	c #B24551",
"'@	c #6C0000",
")@	c #6E0000",
"!@	c #DD1316",
"~@	c #95697A",
"{@	c #D8DCE3",
"]@	c #F3F4F5",
"^@	c #D8D8D8",
"/@	c #F5F5F5",
"(@	c #8A8194",
"_@	c #C62E36",
":@	c #6B0000",
"<@	c #5D0000",
"[@	c #C7272D",
"}@	c #735664",
"|@	c #7E7C90",
"1@	c #8A95A8",
"2@	c #7D869A",
"3@	c #946575",
"4@	c #BC3A43",
"5@	c #E80607",
"6@	c #560000",
"7@	c #530000",
"8@	c #9E0000",
"9@	c #A30000",
"0@	c #EB0203",
"a@	c #E90506",
"b@	c #620000",
"c@	c #4A0000",
"d@	c #410000",
"e@	c #EC0000",
"f@	c #2F0000",
"g@	c #C90000",
"h@	c #A60000",
"i@	c #0D0000",
"j@	c #B70000",
"k@	c #380000",
"l@	c #050000",
"m@	c #8C0000",
"n@	c #DC0000",
"o@	c #E70000",
"p@	c #AF0000",
"q@	c #3B0000",
"r@	c #030000",
"s@	c #5C0000",
"t@	c #C00000",
"u@	c #E40000",
"v@	c #8B0000",
"w@	c #020000",
"x@	c #130000",
"                                                                ",
"                                                                ",
"                                                                ",
"            . +                             @ # $               ",
"        + % & * = - ; ; ;             > , ' ) & * ! ~ {         ",
"    ] ^ & / & ( _ : < [ } ; | 1 2 ; ; 3 4 ; 5 6 & & & 7 8       ",
"  + 9 & & & 0 a b c d e f g h i j k l m n o p q & & & r s t     ",
"u r & & & & v w x y z A B B B B B C D E F G H I J & & & & K     ",
"L & & & & & & M N O P Q R B B B S T R U V W X Y Z & & & & `     ",
"  $ & & & & &  ...+.@.#.$.%.B &.*.=.-.;.B >.,.M & & & & ~       ",
"    '.& & & ).!.~.{.].^./.(.B _.:.; <.[.}.B |.1.& & & 2.3.      ",
"    4.5.& & 6.7.8.9.0.a.b.c.d.U e.f.g.h.i.j.k.l.& & m.n.        ",
"      o.p.& q.r.s.t.u.v.w.x.y.z.A.B.C.D.t.t.E.F.G.H.I.J.        ",
"      K.L.M.N.O.P.t.Q.R.S.S.S.S.T.B U.V.W.E.X.Y.Z.`. +.+        ",
"      ++B B @+#+$+%+&+*+S.S.S.S.=+B B -+-.B B ;+>+B B ,+1       ",
"      '+B B Y.)+B !+~+{+]+^+S./+(+B _+:+<+B B [+}+B B |+1+      ",
"      2+3+B 4+5+B 6+7+8+9+0+a+b+c+d+e+f+g+B h+i+B B ~.j+        ",
"        k+l+E m+B B <.n+f+o+p+q+r+f+f+f+s+B t+u+v+w+x+          ",
"          y+z+A+i B B+C+f+f+f+D+E+f+f+F+G+h+H+I+J+              ",
"            K+L+M+N+O+P+f+Q+R+S+S+T+U+V+W+z X+Y+Z+              ",
"            `+S. @.@+@@@#@$@%@&@*@=@-@;@>@,@S.S.'@              ",
"          ; )@S.S.!@~@.+{@]@^@^@/@>+4+(@_@S.S.S.:@              ",
"          ; <@S.S.S.S.[@}@|@1@k+2@3@4@5@S.S.S.S.6@              ",
"          ; 7@S.S.S.S.S.8@9@0@a@b@S.S.S.S.S.S.S.c@              ",
"            d@S.S.S.S.e@b@f@g@h@i@j@S.S.S.S.S.S.k@              ",
"            l@m@n@o@p@q@;   ; ; ; r@s@t@S.S.u@v@w@              ",
"                ; ; ;                 ; i@x@r@;                 ",
"                                                                ",
"                                                                ",
"                                                                ",
"                                                                ",
"                                                                "};
