/* XPM */
static char * prototyp_importieren_mini_xpm[] = {
"32 32 304 2",
"  	c None",
". 	c #3D4E67",
"+ 	c #4A5E77",
"@ 	c #A294A9",
"# 	c #D26D7A",
"$ 	c #B9CFE0",
"% 	c #D4B495",
"& 	c #B5D1D7",
"* 	c #6DC186",
"= 	c #9AD3CF",
"- 	c #B2DDF6",
"; 	c #B1DCF5",
"> 	c #778C99",
", 	c #82929B",
"' 	c #788893",
") 	c #7D9CB2",
"! 	c #41536C",
"~ 	c #6A859E",
"{ 	c #E45A64",
"] 	c #FF0000",
"^ 	c #E8866D",
"/ 	c #FF933D",
"( 	c #B4AD5F",
"_ 	c #29AD17",
": 	c #62C372",
"< 	c #BAE6FF",
"[ 	c #A3C9DF",
"} 	c #BEBEBE",
"| 	c #FFFFFF",
"1 	c #FDFDFD",
"2 	c #79919E",
"3 	c #536982",
"4 	c #43556E",
"5 	c #8E8EA5",
"6 	c #B97181",
"7 	c #A5C1D5",
"8 	c #BCA895",
"9 	c #A4C1D0",
"0 	c #6CB38C",
"a 	c #92C2C8",
"b 	c #A1C8E1",
"c 	c #6A808F",
"d 	c #6A7A86",
"e 	c #60717E",
"f 	c #7491A8",
"g 	c #3F5069",
"h 	c #5D6B80",
"i 	c #AEB5BF",
"j 	c #B7BEC7",
"k 	c #B0B7C1",
"l 	c #657286",
"m 	c #E2E5E8",
"n 	c #F0ECEA",
"o 	c #E7DBD2",
"p 	c #E7DBD3",
"q 	c #E8DED8",
"r 	c #E8DDD6",
"s 	c #E4DCD6",
"t 	c #F8F6F5",
"u 	c #F1F2F4",
"v 	c #40516A",
"w 	c #59697E",
"x 	c #5F6C80",
"y 	c #3E4F68",
"z 	c #C5C1BC",
"A 	c #969182",
"B 	c #948E80",
"C 	c #989084",
"D 	c #978F84",
"E 	c #979083",
"F 	c #979084",
"G 	c #99968B",
"H 	c #A09C91",
"I 	c #A0998C",
"J 	c #A0988C",
"K 	c #A0978C",
"L 	c #A09A8C",
"M 	c #A69E97",
"N 	c #EBE7E5",
"O 	c #505F76",
"P 	c #687A8D",
"Q 	c #738D9E",
"R 	c #6B7D92",
"S 	c #9E999A",
"T 	c #242B24",
"U 	c #202A20",
"V 	c #1E221E",
"W 	c #221922",
"X 	c #1B161B",
"Y 	c #251E25",
"Z 	c #212521",
"` 	c #212821",
" .	c #202020",
"..	c #1C2A1C",
"+.	c #1C221C",
"@.	c #001C00",
"#.	c #000B00",
"$.	c #001D00",
"%.	c #1E241B",
"&.	c #EAE6E4",
"*.	c #506076",
"=.	c #ABC2E0",
"-.	c #667B89",
";.	c #74899E",
">.	c #A593A1",
",.	c #311031",
"'.	c #321132",
").	c #2C0F2C",
"!.	c #341234",
"~.	c #2A0E2A",
"{.	c #391339",
"].	c #2F102F",
"^.	c #2B0E2B",
"/.	c #3A133A",
"(.	c #321032",
"_.	c #1A091A",
":.	c #290E29",
"<.	c #000000",
"[.	c #181716",
"}.	c #D4D1CE",
"|.	c #506171",
"1.	c #758DA0",
"2.	c #67768B",
"3.	c #AD95A9",
"4.	c #471847",
"5.	c #441744",
"6.	c #3C143C",
"7.	c #481848",
"8.	c #4C194C",
"9.	c #331133",
"0.	c #411641",
"a.	c #491849",
"b.	c #170817",
"c.	c #130613",
"d.	c #010500",
"e.	c #101E0D",
"f.	c #7F847C",
"g.	c #D6D6D6",
"h.	c #8B9BB0",
"i.	c #8191A5",
"j.	c #66758A",
"k.	c #8E958A",
"l.	c #042704",
"m.	c #062606",
"n.	c #041D04",
"o.	c #071307",
"p.	c #064106",
"q.	c #060206",
"r.	c #040104",
"s.	c #080308",
"t.	c #050205",
"u.	c #030103",
"v.	c #030203",
"w.	c #0C2009",
"x.	c #0C3A07",
"y.	c #0D3C07",
"z.	c #123F0C",
"A.	c #6E7D6C",
"B.	c #E2E2E2",
"C.	c #9DADC2",
"D.	c #B2C2D6",
"E.	c #6E7D92",
"F.	c #8D8A89",
"G.	c #082504",
"H.	c #12520A",
"I.	c #2E9C1F",
"J.	c #17630D",
"K.	c #113F0B",
"L.	c #7F8A7E",
"M.	c #EFEFEF",
"N.	c #505F75",
"O.	c #8C9BAD",
"P.	c #B3C3D7",
"Q.	c #76869A",
"R.	c #8C8A89",
"S.	c #051803",
"T.	c #12500A",
"U.	c #27A316",
"V.	c #6AC75E",
"W.	c #62BF55",
"X.	c #1A4414",
"Y.	c #969C96",
"Z.	c #EDEDED",
"`.	c #E4E4E4",
" +	c #384250",
".+	c #5C6B72",
"++	c #0B3306",
"@+	c #1E8610",
"#+	c #219112",
"$+	c #2BAD1A",
"%+	c #BAE5B5",
"&+	c #5AB34E",
"*+	c #0F4408",
"=+	c #264D22",
"-+	c #8F938E",
";+	c #929591",
">+	c #1E3D24",
",+	c #103E0B",
"'+	c #928F8D",
")+	c #0E0C0B",
"!+	c #0C0B09",
"~+	c #0C0A09",
"{+	c #11250C",
"]+	c #18680D",
"^+	c #208C11",
"/+	c #229413",
"(+	c #39B328",
"_+	c #C7EAC2",
":+	c #499E3E",
"<+	c #0E3E07",
"[+	c #174311",
"}+	c #14410F",
"|+	c #114E0A",
"1+	c #ACBDCE",
"2+	c #FEFEFE",
"3+	c #6C8868",
"4+	c #0D3E07",
"5+	c #1B780F",
"6+	c #249A14",
"7+	c #37B426",
"8+	c #AADFA3",
"9+	c #368F2A",
"0+	c #0F4508",
"a+	c #1E8011",
"b+	c #27A216",
"c+	c #AABCCC",
"d+	c #FCFCFC",
"e+	c #668362",
"f+	c #0F4208",
"g+	c #1D8110",
"h+	c #26A115",
"i+	c #2CB01A",
"j+	c #3AB529",
"k+	c #2AAD19",
"l+	c #73CA67",
"m+	c #A9BBCB",
"n+	c #3E4E67",
"o+	c #F9FAFA",
"p+	c #FBFCFB",
"q+	c #53734F",
"r+	c #104909",
"s+	c #1F8710",
"t+	c #208D11",
"u+	c #29AB17",
"v+	c #2AAF18",
"w+	c #CEECC9",
"x+	c #269F16",
"y+	c #A5ADB8",
"z+	c #F7F7F7",
"A+	c #778675",
"B+	c #17670C",
"C+	c #219012",
"D+	c #2AAE18",
"E+	c #89D37F",
"F+	c #259916",
"G+	c #ABBCCC",
"H+	c #4A5A72",
"I+	c #546279",
"J+	c #536279",
"K+	c #3F4B5A",
"L+	c #1A3E1A",
"M+	c #104A09",
"N+	c #1F8810",
"O+	c #249914",
"P+	c #46BA36",
"Q+	c #239014",
"R+	c #313E53",
"S+	c #526278",
"T+	c #8696AC",
"U+	c #8C9CB2",
"V+	c #3E584B",
"W+	c #196F0D",
"X+	c #208E11",
"Y+	c #259E15",
"Z+	c #28AA17",
"`+	c #208812",
" @	c #ADBED0",
".@	c #ABBBCF",
"+@	c #335B37",
"@@	c #0E4008",
"#@	c #14590B",
"$@	c #186B0D",
"%@	c #1B750E",
"&@	c #1C7B0F",
"*@	c #1E8310",
"=@	c #229013",
"-@	c #1A710F",
";@	c #ACBECF",
">@	c #A7B7CB",
",@	c #9DB1BB",
"'@	c #7F9996",
")@	c #688679",
"!@	c #577864",
"~@	c #4A6E54",
"{@	c #406546",
"]@	c #385F3D",
"^@	c #345C38",
"/@	c #728296",
"(@	c #8090A4",
"_@	c #AEBED2",
":@	c #95A4B9",
"<@	c #657489",
"[@	c #66768A",
"}@	c #657488",
"                                                                ",
"                                                                ",
"      . . . . . . . . . . . . . . . . . . . . . . .             ",
"  + @ # $ % & * = - - - - - - - - - - - - ; > , ' ) !           ",
"  ~ { ] ^ / ( _ : < < < < < < < < < < < < [ } | 1 2 3           ",
"  4 5 6 7 8 9 0 a b b b b b b b b b b b b b c d e f g           ",
"  . h i j j j j j j j j j j j j j j j j j j j j k l .           ",
"  . m | n o o o o o p q r o o o o o o s t | | | | u v w x       ",
"  y | | z A B C D E F G H I J K L I K M N | | | | | O P Q R     ",
"  y | | S T U V W X Y Z `  ...+.@.#.$.%.&.| | | | | *.=.-.;.    ",
"  y | | >.,.'.).!.~.{.~.].^./.(._.:.<.[.}.| | | | | *.|.1.2.    ",
"  y | | 3.4.5.6.7.{.8.9.0.!.'.a.b.c.d.e.f.g.| | | | *.h.i.j.    ",
"  y | | k.l.m.n.o.p.q.r.s.t.u.q.v.w.x.y.z.A.B.| | | *.C.D.E.    ",
"  y | | F.<.<.<.<.<.<.<.<.<.<.<.G.y.H.I.J.K.L.M.| | N.O.P.Q.    ",
"  y | | R.<.<.<.<.<.<.<.<.<.<.S.y.T.U.V.W.H.X.Y.Z.`. +.+P.Q.    ",
"  y | | F.<.<.<.<.<.<.<.<.<.<.++y.@+#+$+%+&+*+=+-+;+>+,+D.Q.    ",
"  y | | '+)+)+)+)+!+~+)+)+)+)+{+y.]+^+/+(+_+:+<+[+}+|+y.1+Q.    ",
"  y | | | | | | | | | | | | | 2+3+4+5+^+6+7+8+9+0+a+b+y.c+Q.    ",
"  y | | | | | | | | | | | | | | d+e+f+g+^+h+i+j+k+l+b+y.m+Q.    ",
"  n+o+| | | | | | | | | | | | | | p+q+r+s+t+u+v+i+w+x+y.m+Q.    ",
"  . y+| | | | | | | | | | | | | | z+A+y.B+C+D+v+v+E+F+y.G+Q.    ",
"  . . H+I+I+I+I+I+I+I+I+I+I+I+I+J+K+L+M+N+O+v+v+v+P+Q+y.1+Q.    ",
"      R+S+T+U+U+U+U+U+U+U+U+U+U+h.V+y.W+^+X+Y+Z+v+v+`+y. @Q.    ",
"        j..@P.P.P.P.P.P.P.P.P.P.D.+@y.@@#@$@%@&@*@=@-@y.;@Q.    ",
"        j.>@P.P.P.P.P.P.P.P.P.P.P.D.,@'@)@!@~@{@]@+@+@^@ @/@    ",
"        j.(@_@P.P.P.P.P.P.P.P.P.P.P.P.P.P.P.P.P.P.P.P.D.:@j.    ",
"          <@j.[@[@[@[@[@[@[@[@[@[@[@[@[@[@[@[@[@[@[@[@j.j.}@    ",
"                                                                ",
"                                                                ",
"                                                                ",
"                                                                ",
"                                                                "};
