/* XPM */
static char * prototyp_loeschen_mini_xpm[] = {
"32 32 362 2",
"  	c None",
". 	c #3D4E67",
"+ 	c #4A5E77",
"@ 	c #A294A9",
"# 	c #D26D7A",
"$ 	c #B9CFE0",
"% 	c #D4B495",
"& 	c #B4CDD4",
"* 	c #6A7776",
"= 	c #52414A",
"- 	c #8695A6",
"; 	c #B2DDF6",
"> 	c #B1DCF5",
", 	c #778C99",
"' 	c #5F636C",
") 	c #57505A",
"! 	c #74869A",
"~ 	c #41536C",
"{ 	c #6A859E",
"] 	c #E45A64",
"^ 	c #FF0000",
"/ 	c #E8866D",
"( 	c #DD7B33",
"_ 	c #4D190D",
": 	c #320100",
"< 	c #4C0300",
"[ 	c #2E0404",
"} 	c #8C9CAD",
"| 	c #BAE6FF",
"1 	c #A3C9DF",
"2 	c #776767",
"3 	c #360403",
"4 	c #450300",
"5 	c #2D0202",
"6 	c #37252F",
"7 	c #43556E",
"8 	c #8E8EA5",
"9 	c #B97181",
"0 	c #9BAEBF",
"a 	c #3D0D07",
"b 	c #6E0700",
"c 	c #EC1300",
"d 	c #FF1500",
"e 	c #8F0A00",
"f 	c #2F0506",
"g 	c #8695A7",
"h 	c #A1C8E1",
"i 	c #7C8392",
"j 	c #380201",
"k 	c #CE1000",
"l 	c #C10F00",
"m 	c #3D0200",
"n 	c #2C0000",
"o 	c #5D6B80",
"p 	c #ADB4BF",
"q 	c #422327",
"r 	c #5F0500",
"s 	c #FC1500",
"t 	c #FF5E4F",
"u 	c #FFD7D4",
"v 	c #FF6254",
"w 	c #8A0900",
"x 	c #2C0203",
"y 	c #7E7780",
"z 	c #B7BEC7",
"A 	c #655860",
"B 	c #3A0200",
"C 	c #D21100",
"D 	c #FF8C82",
"E 	c #FFA39B",
"F 	c #FF230F",
"G 	c #D11000",
"H 	c #2E0000",
"I 	c #E2E5E8",
"J 	c #CDC3C3",
"K 	c #CA1000",
"L 	c #FF5243",
"M 	c #FFFAFA",
"N 	c #FE5B4C",
"O 	c #850900",
"P 	c #330808",
"Q 	c #BCACA8",
"R 	c #E7DBD2",
"S 	c #988281",
"T 	c #D71201",
"U 	c #FF9A91",
"V 	c #FFFFFF",
"W 	c #FFF2F1",
"X 	c #FF2F1D",
"Y 	c #6D0600",
"Z 	c #2D0404",
"` 	c #3E4F68",
" .	c #C1B5B5",
"..	c #B80E00",
"+.	c #FF6456",
"@.	c #FFFCFC",
"#.	c #FFF8F7",
"$.	c #FE5344",
"%.	c #800800",
"&.	c #300504",
"*.	c #8D796F",
"=.	c #A0978C",
"-.	c #A09A8C",
";.	c #A0998C",
">.	c #71534C",
",.	c #400200",
"'.	c #DB1302",
").	c #FF9F97",
"!.	c #FFF0EE",
"~.	c #FF4736",
"{.	c #FE1500",
"].	c #6C0600",
"^.	c #667286",
"/.	c #FFFEFE",
"(.	c #785B5E",
"_.	c #330100",
":.	c #C81000",
"<.	c #FF6D60",
"[.	c #FFF5F4",
"}.	c #FE4C3C",
"|.	c #7C0800",
"1.	c #2A0300",
"2.	c #151B0A",
"3.	c #001C00",
"4.	c #170A00",
"5.	c #430200",
"6.	c #DF1402",
"7.	c #FFA49C",
"8.	c #FFEDEC",
"9.	c #FF4332",
"0.	c #810800",
"a.	c #4C4249",
"b.	c #74899E",
"c.	c #A592A1",
"d.	c #2C0612",
"e.	c #350100",
"f.	c #CC1000",
"g.	c #FF776B",
"h.	c #FFFFFE",
"i.	c #FD4535",
"j.	c #780800",
"k.	c #2B0001",
"l.	c #240207",
"m.	c #460300",
"n.	c #E21503",
"o.	c #FFAAA2",
"p.	c #FFEBE9",
"q.	c #FF3F2E",
"r.	c #FD1500",
"s.	c #493C45",
"t.	c #758DA0",
"u.	c #67768B",
"v.	c #AD95A9",
"w.	c #461746",
"x.	c #340818",
"y.	c #370100",
"z.	c #D01000",
"A.	c #FF8176",
"B.	c #FFEEED",
"C.	c #FC3F2E",
"D.	c #730700",
"E.	c #4A0300",
"F.	c #E61604",
"G.	c #FFAEA7",
"H.	c #FFE8E6",
"I.	c #FF3B2A",
"J.	c #770700",
"K.	c #372A36",
"L.	c #8B9BB0",
"M.	c #8191A5",
"N.	c #66758A",
"O.	c #8E958A",
"P.	c #042704",
"Q.	c #062606",
"R.	c #1D0900",
"S.	c #390100",
"T.	c #D41100",
"U.	c #FF8C81",
"V.	c #FFEAE8",
"W.	c #FB3928",
"X.	c #ED1806",
"Y.	c #FFB3AC",
"Z.	c #FFE6E3",
"`.	c #FF3826",
" +	c #FB1500",
".+	c #710700",
"++	c #9D8989",
"@+	c #506076",
"#+	c #9DADC2",
"$+	c #B2C2D6",
"%+	c #6E7D92",
"&+	c #8D8A89",
"*+	c #000000",
"=+	c #010000",
"-+	c #1E0000",
";+	c #3B0200",
">+	c #D81100",
",+	c #FF968D",
"'+	c #FFE6E4",
")+	c #FFBCB6",
"!+	c #FFE3E0",
"~+	c #FF3523",
"{+	c #F91400",
"]+	c #2D0101",
"^+	c #A39090",
"/+	c #B3C3D7",
"(+	c #76869A",
"_+	c #8C8A89",
":+	c #1F0000",
"<+	c #DC1200",
"[+	c #FF1601",
"}+	c #FFDFDC",
"|+	c #FF321F",
"1+	c #F81400",
"2+	c #680600",
"3+	c #A99797",
"4+	c #200000",
"5+	c #E11200",
"6+	c #FF7265",
"7+	c #FF9086",
"8+	c #FF2714",
"9+	c #F61400",
"0+	c #640600",
"a+	c #2E0303",
"b+	c #AE9E9E",
"c+	c #928F8D",
"d+	c #0E0C0B",
"e+	c #0C0A08",
"f+	c #590400",
"g+	c #F11400",
"h+	c #FC1400",
"i+	c #3B1313",
"j+	c #DDD7D7",
"k+	c #F8F7F7",
"l+	c #694A4A",
"m+	c #5C0500",
"n+	c #F31400",
"o+	c #F61100",
"p+	c #D20300",
"q+	c #CC0000",
"r+	c #E80C00",
"s+	c #5E0500",
"t+	c #421B1B",
"u+	c #E2DDDD",
"v+	c #F7F6F6",
"w+	c #654646",
"x+	c #600500",
"y+	c #F51400",
"z+	c #F51100",
"A+	c #CF0200",
"B+	c #CB0000",
"C+	c #CC0100",
"D+	c #F41400",
"E+	c #472020",
"F+	c #E7E2E2",
"G+	c #3E4E67",
"H+	c #F9FAFA",
"I+	c #F6F4F4",
"J+	c #624141",
"K+	c #D20800",
"L+	c #DC0E00",
"M+	c #CD0100",
"N+	c #EA0D00",
"O+	c #540400",
"P+	c #4B2626",
"Q+	c #EBE7E7",
"R+	c #4A5A71",
"S+	c #A5ADB8",
"T+	c #F4F2F2",
"U+	c #5E3D3D",
"V+	c #670600",
"W+	c #D00800",
"X+	c #4D0300",
"Y+	c #4B0300",
"Z+	c #DD0E00",
"`+	c #EC0D00",
" @	c #EE1300",
".@	c #4F0400",
"+@	c #432022",
"@@	c #3C485F",
"#@	c #A0B0C5",
"$@	c #4A5A72",
"%@	c #525E73",
"&@	c #3C1D21",
"*@	c #6B0600",
"=@	c #F41100",
"-@	c #CE0100",
";@	c #CE0800",
">@	c #2D0506",
",@	c #2F0E12",
"'@	c #4F0300",
")@	c #DE0D00",
"!@	c #EE0E00",
"~@	c #EB1300",
"{@	c #321317",
"]@	c #A9B6C8",
"^@	c #30384A",
"/@	c #2E0E12",
"(@	c #700700",
"_@	c #FA1400",
":@	c #F41000",
"<@	c #CC0900",
"[@	c #480300",
"}@	c #350D0F",
"|@	c #828697",
"1@	c #8A95A9",
"2@	c #432226",
"3@	c #520400",
"4@	c #DF0D00",
"5@	c #F00F00",
"6@	c #E71300",
"7@	c #470300",
"8@	c #4B2C31",
"9@	c #ADBACD",
"0@	c #F31000",
"a@	c #CB0800",
"b@	c #360F10",
"c@	c #999DAE",
"d@	c #A7B2C4",
"e@	c #411F22",
"f@	c #560400",
"g@	c #E00C00",
"h@	c #F21000",
"i@	c #E31200",
"j@	c #6B5A64",
"k@	c #9F0B00",
"l@	c #C90900",
"m@	c #371012",
"n@	c #9BA0B0",
"o@	c #A5AFC1",
"p@	c #3F1B1E",
"q@	c #5B0500",
"r@	c #624E56",
"s@	c #728296",
"t@	c #FA1300",
"u@	c #C70900",
"v@	c #410200",
"w@	c #381214",
"x@	c #9CA2B3",
"y@	c #A3ACBD",
"z@	c #3D181A",
"A@	c #E00B00",
"B@	c #F81200",
"C@	c #DE1200",
"D@	c #6B6876",
"E@	c #660600",
"F@	c #F11300",
"G@	c #C70A00",
"H@	c #3F0200",
"I@	c #320C0E",
"J@	c #5D6374",
"K@	c #66768A",
"L@	c #5E6577",
"M@	c #320C0F",
"N@	c #E10B00",
"O@	c #DB0600",
"P@	c #E01000",
"Q@	c #530400",
"R@	c #361418",
"S@	c #657488",
"T@	c #3C0200",
"U@	c #310000",
"                                                                ",
"                                                                ",
"      . . . . . . . . . . . . . . . . . . . . . . .             ",
"  + @ # $ % & * = - ; ; ; ; ; ; ; ; ; ; ; > , ' ) ! ~           ",
"  { ] ^ / ( _ : < [ } | | | | | | | | | | 1 2 3 4 5 6           ",
"  7 8 9 0 a b c d e f g h h h h h h h h h i j k d l m n         ",
"  . o p q r s t u v w x y z z z z z z z A B C D E F G H         ",
"  . I J n K d L M M N O P Q R R R R R S m T U V W X d Y Z       ",
"  ` V  .n ..d d +.@.#.$.%.&.*.=.-.;.>.,.'.).V !.~.d {.].n ^.    ",
"  ` V /.(._.:.d d <./.[.}.|.1.2.3.4.5.6.7.V 8.9.d {.0.n a.b.    ",
"  ` V V c.d.e.f.d d g.h.W i.j.k.l.m.n.o.V p.q.d r.|.n s.t.u.    ",
"  ` V V v.w.x.y.z.d d A.V B.C.D.E.F.G.V H.I.d s J.n K.L.M.N.    ",
"  ` V V O.P.Q.R.S.T.d d U.V V.W.X.Y.V Z.`.d  +.+n ++@+#+$+%+    ",
"  ` V V &+*+*+=+-+;+>+d d ,+V '+)+V !+~+d {+Y ]+^+V @+#+/+(+    ",
"  ` V V _+*+*+*+=+:+m <+d [+).V V }+|+d 1+2+5 3+V V @+#+/+(+    ",
"  ` V V &+*+*+*+*+=+4+,.5+d [+6+7+8+d 9+0+a+b+V V V @+#+/+(+    ",
"  ` V V c+d+d+d+d+e+-+f+g+d d {.h+d d 1+0+i+j+V V V @+#+/+(+    ",
"  ` V V V V V V k+l+m+n+d d o+p+q+r+d d 9+s+t+u+V V @+#+/+(+    ",
"  ` V V V V V v+w+x+y+d d z+A+B+C+B+r+d d D+f+E+F+V @+#+/+(+    ",
"  G+H+V V V I+J+0+9+d d z+A+B+K+L+M+B+N+d d g+O+P+Q+R+#+/+(+    ",
"  . S+V V T+U+V+1+d d z+A+B+W+X+Y+Z+M+B+`+d d  @.@+@@@#@/+(+    ",
"  . . $@%@&@*@{+d d =@-@B+;@E.>@,@'@)@q+q+!@d d ~@Y+{@]@/+(+    ",
"      ^@/@(@_@d d :@-@B+<@[@}@|@1@2@3@4@q+q+5@d d 6@7@8@9@(+    ",
"      n Y  +d d 0@-@B+a@m.b@c@/+/+d@e@f@g@q+M+h@d d i@;+j@(+    ",
"      n k@d d 0@-@B+l@5.m@n@/+/+/+/+o@p@q@g@B+-@0@d d f@r@s@    ",
"        7@y+t@-@B+u@v@w@x@/+/+/+/+/+/+y@z@r A@B+-@B@C@H D@N.    ",
"          E@F@r+G@H@I@J@K@K@K@K@K@K@K@K@L@M@0+N@O@P@Q@R@S@S@    ",
"          n ,.0.T@n                         n O+2+U@n           ",
"              n n                             n n               ",
"                                                                ",
"                                                                ",
"                                                                "};
