/* XPM */
static char * qt_hilfe_xpm[] = {
"32 32 47 1",
" 	c None",
".	c #5D5E59",
"+	c #565655",
"@	c #828281",
"#	c #979797",
"$	c #B3B3B3",
"%	c #BABABA",
"&	c #A5A5A4",
"*	c #8C8C8B",
"=	c #787877",
"-	c #40413F",
";	c #12140C",
">	c #2D2E2A",
",	c #050604",
"'	c #0C0D07",
")	c #1C1D19",
"!	c #000000",
"~	c #343531",
"{	c #010101",
"]	c #717270",
"^	c #CACACA",
"/	c #D4D4D4",
"(	c #3A3A37",
"_	c #252722",
":	c #494A48",
"<	c #BFBFBF",
"[	c #D8D8D8",
"}	c #ECECEC",
"|	c #E4E4E4",
"1	c #CFCFCF",
"2	c #C5C5C5",
"3	c #DEDEDE",
"4	c #E7E7E8",
"5	c #E1E1E1",
"6	c #686967",
"7	c #F2F2F2",
"8	c #F8F8F8",
"9	c #FBFBFC",
"0	c #F5F5F5",
"a	c #EFEFEF",
"b	c #DBDBDB",
"c	c #616160",
"d	c #C6C8BF",
"e	c #FFFFFF",
"f	c #D2D4CB",
"g	c #D8DAD1",
"h	c #626358",
".+@##$$$%&*=-;;>-,'))'!;>~>>'{,!",
".]**#&$$^/%=~(_~>')-:-~_'!!!!{!!",
"]##&&$$<[}|<%123<&&3452#6(~),!{{",
"*&%21[477|33}78890a3/b1%]+*-{{!{",
"&</b[5}45[3a77890a70a98a%cc_!{{{",
"d/b3[b|/$$[3%&&^213/4e0a3#&]!{{!",
"f5|4}||/^%#+),,)_>-+@**%2*:-{{{{",
"g4}a70}3^=)!!_6]===6.-~()'!!{!{{",
"g5}7|^&.)!'-&}eeeeee74b%*(!!{{{{",
"f1<#.>,!!-$9eee999990045/6;{{{{{",
"6:_,!!!!(4ee88999e994^#]+);{{!{{",
",!!!!{!!_#/77}|408}%:)'{!!{{{!{{",
",!{{!!,_;,(@<^/3$6:)!!!!!{!{{{!{",
"'!!!!,'___;!648e@!!!!{'{{!!!!!{{",
",!!!-*;,-##*&0ee={(-*(,!~_{;~;!!",
",!'-&0]-%0|e4aee]-35e%~+$6!:&(!!",
"{-%|2%^3|499}aee6:}e5^$#~;-=&-!{",
"-be0055779e83|97+:<a0|<@+@#%#>!{",
"@|a08eeeee8}^593~(#/a8078[$%]'!{",
"h^4}709989a3148b('6/|a997^*=:{!{",
"(&[[3}70075/1|7^({+$5}}3<*(:_!!{",
"_*21b4a707322[}$)!>#^1$#6:(~,!!{",
"_@%2/4a7a01%%1}&)))#$@~(+:>'!!!{",
";=$%134aaa2%$b91-);*&>;(++_{!{!{",
"'c&$2/340}&@*/8[~!!(#~<16~)'{!!{",
"'+&$<13|79=';.&c,!!!66b7^#__,!!{",
",-&$<2/5|}[#6>;!!!{)==$|[2=]>!!{",
",_*&&&#&$<^$#='!,;(c@]]/^<15@!!{",
",'+*6+*$1|5|1&+)-:-::+(*2%[9&{!!",
",{_c6&aa04|90|4$.:>>_>))@**/]!!{",
"'!,~#15}}ba9/1b42+_);;;;)~(*]_!!",
"'!!'6#$#&&^31^1[*)~=.{{),)6$&*)!"};
