/* XPM */
static char * bearbeiten_rundschlag_mini_xpm[] = {
"32 32 246 2",
"  	c None",
". 	c #593A28",
"+ 	c #78552C",
"@ 	c #815C2E",
"# 	c #5D3D28",
"$ 	c #68472A",
"% 	c #B28634",
"& 	c #A97F33",
"* 	c #5A3A28",
"= 	c #72502C",
"- 	c #FDC73F",
"; 	c #FFC93F",
"> 	c #EEBA3D",
", 	c #6C4A2B",
"' 	c #69482A",
") 	c #F2C03F",
"! 	c #FECA41",
"~ 	c #946E31",
"{ 	c #A77E34",
"] 	c #86612F",
"^ 	c #553726",
"/ 	c #74522C",
"( 	c #FECB43",
"_ 	c #ECBC40",
": 	c #916C31",
"< 	c #9D7633",
"[ 	c #ECBB40",
"} 	c #FAC842",
"| 	c #614129",
"1 	c #4F3323",
"2 	c #CCA03C",
"3 	c #FDCC45",
"4 	c #F0C143",
"5 	c #573927",
"6 	c #72502D",
"7 	c #65452A",
"8 	c #967133",
"9 	c #FCCE47",
"0 	c #DFB342",
"a 	c #8E6A32",
"b 	c #CBA13E",
"c 	c #EBBE44",
"d 	c #63432A",
"e 	c #71502D",
"f 	c #8D6933",
"g 	c #66462B",
"h 	c #E7BC45",
"i 	c #FCCF49",
"j 	c #F8CB48",
"k 	c #C29A3D",
"l 	c #A17C36",
"m 	c #A27D37",
"n 	c #C9A03E",
"o 	c #FACD48",
"p 	c #A78138",
"q 	c #583927",
"r 	c #5F4029",
"s 	c #EFC549",
"t 	c #FBD04B",
"u 	c #F9CE4B",
"v 	c #F4C94A",
"w 	c #E2B946",
"x 	c #72512D",
"y 	c #553826",
"z 	c #533625",
"A 	c #79582F",
"B 	c #EBC147",
"C 	c #A17D38",
"D 	c #856332",
"E 	c #FAD14D",
"F 	c #F4CB4C",
"G 	c #6F4E2D",
"H 	c #583A28",
"I 	c #7A592F",
"J 	c #F9D04D",
"K 	c #E9C049",
"L 	c #927035",
"M 	c #523525",
"N 	c #785730",
"O 	c #F7D04F",
"P 	c #FAD250",
"Q 	c #B99540",
"R 	c #583928",
"S 	c #C9A443",
"T 	c #8C6A34",
"U 	c #6D4D2D",
"V 	c #A17E3A",
"W 	c #E9C44D",
"X 	c #F9D452",
"Y 	c #937237",
"Z 	c #A3813B",
"` 	c #987738",
" .	c #A7863D",
"..	c #F9D554",
"+.	c #927137",
"@.	c #543726",
"#.	c #A1803C",
"$.	c #E3C04E",
"%.	c #A07F3C",
"&.	c #9C7C3B",
"*.	c #F8D656",
"=.	c #B49342",
"-.	c #C3A246",
";.	c #F4D254",
">.	c #70502F",
",.	c #5B3C29",
"'.	c #9B7C3C",
").	c #EBCB54",
"!.	c #F7D758",
"~.	c #EECE55",
"{.	c #694A2D",
"].	c #735430",
"^.	c #F4D456",
"/.	c #785931",
"(.	c #523625",
"_.	c #AC8E42",
":.	c #F7D85A",
"<.	c #D8B950",
"[.	c #715230",
"}.	c #E1C353",
"|.	c #EFD157",
"1.	c #F5D759",
"2.	c #E3C553",
"3.	c #5A3B28",
"4.	c #AE9144",
"5.	c #F6DA5C",
"6.	c #EDD159",
"7.	c #B49646",
"8.	c #92743B",
"9.	c #94763B",
"0.	c #B99C48",
"a.	c #F1D45A",
"b.	c #E0C354",
"c.	c #63442B",
"d.	c #64462C",
"e.	c #886A37",
"f.	c #6A4B2E",
"g.	c #563827",
"h.	c #67482D",
"i.	c #E9CD5A",
"j.	c #F4DA5E",
"k.	c #BEA24B",
"l.	c #94763C",
"m.	c #E7CB59",
"n.	c #F6DB5E",
"o.	c #8D703A",
"p.	c #6C4E2F",
"q.	c #563826",
"r.	c #6B4D2E",
"s.	c #F2D95F",
"t.	c #F5DC60",
"u.	c #BDA24C",
"v.	c #513424",
"w.	c #684A2E",
"x.	c #F3DC62",
"y.	c #F4DD62",
"z.	c #E1C95B",
"A.	c #A18643",
"B.	c #977B3F",
"C.	c #E8D15E",
"D.	c #6A4C2E",
"E.	c #4F3424",
"F.	c #66462A",
"G.	c #A67D33",
"H.	c #5C3D28",
"I.	c #D8A83A",
"J.	c #AC8234",
"K.	c #8D713C",
"L.	c #F4DE64",
"M.	c #987D40",
"N.	c #9A7F41",
"O.	c #E2CC5D",
"P.	c #61432B",
"Q.	c #9E7633",
"R.	c #FECB42",
"S.	c #C99D3A",
"T.	c #B08736",
"U.	c #C79B3A",
"V.	c #503424",
"W.	c #6F5231",
"X.	c #E5D060",
"Y.	c #F3E066",
"Z.	c #EDD964",
"`.	c #5A3C29",
" +	c #A68C47",
".+	c #A48A46",
"++	c #62442C",
"@+	c #6F4E2C",
"#+	c #FCCE46",
"$+	c #EABD43",
"%+	c #D3A83F",
"&+	c #704F2C",
"*+	c #5C3D29",
"=+	c #7C6036",
"-+	c #715432",
";+	c #866432",
">+	c #DFB645",
",+	c #F3C849",
"'+	c #8E6B33",
")+	c #7E5C2F",
"!+	c #E4BA46",
"~+	c #FCD04A",
"{+	c #FBCF4A",
"]+	c #8C6833",
"^+	c #543626",
"/+	c #997637",
"(+	c #F8D04E",
"_+	c #FAD24E",
":+	c #A8843B",
"<+	c #876533",
"[+	c #4A3021",
"}+	c #76562F",
"|+	c #F9D453",
"1+	c #906F37",
"2+	c #70502E",
"3+	c #C7A546",
"4+	c #775730",
"5+	c #A88940",
"6+	c #F8D758",
"7+	c #C4A448",
"8+	c #A0813E",
"9+	c #CBAB4A",
"0+	c #6F502F",
"a+	c #F5D85B",
"b+	c #F6D95B",
"c+	c #F6D95C",
"d+	c #C7A94C",
"e+	c #997B3E",
"f+	c #B59847",
"g+	c #C2A54A",
"h+	c #91723A",
"i+	c #785A31",
"j+	c #846737",
"k+	c #66492C",
"l+	c #AB8F45",
"m+	c #F4DB5F",
"n+	c #9F8341",
"o+	c #A68C46",
"p+	c #967B3F",
"q+	c #705330",
"r+	c #EED861",
"s+	c #AE9449",
"t+	c #6A4D2F",
"u+	c #967C41",
"v+	c #5C3F29",
"w+	c #64452C",
"                          . .                                   ",
"            . . . .     . + @ # .                               ",
"          . $ % & *   . = - ; > , .                             ",
"        . ' ) ! ! ~ . . { ! ! ! ] ^                             ",
"        . / ( ( ( _ : < [ ( ( } | 1   . .                       ",
"          . 2 3 3 3 3 3 3 3 3 4 | 5 . 6 7 .                     ",
"    . . . . 8 9 9 9 9 9 9 9 9 9 0 a b 9 c d .                   ",
"  . e f 7 g h i i j k l m n o i i i i i i p q                   ",
"  r s t u v t t w x . y z . A B t t t t t C y                   ",
". D E E E E E F G H         5 I J E E K L . M                   ",
". N O P P P P Q R             . S P P T H                       ",
"  . U V W X X Y ^             . Z X X ` . y                     ",
"    . .  .....+.@.            . #.....$.%.U .                   ",
"      . &.*.*.=.q             . -.*.*.*.*.;.>..                 ",
"  . ,.'.).!.!.~.{.R         . ].^.!.!.!.!.!./.(.                ",
"  . _.:.:.:.:.:.<.{.. . . . [.}.:.:.|.1.:.2.3.                  ",
"  . 4.5.5.5.5.5.5.6.7.8.9.0.a.5.5.b.c.d.e.f.g.                  ",
"  . h.i.j.k.l.m.n.n.n.n.n.n.n.n.n.o.5 (.g.M                     ",
"    . d.p.. q.r.s.t.t.t.t.t.t.t.t.u..             .             ",
"      . (.  v.w.x.y.y.z.A.B.C.y.y.x.D.E.  F.G.$ H.I.J.          ",
"            H K.L.L.L.M.. . N.L.L.O.P.@.  Q.R.S.T.R.U.V..       ",
"            . W.X.Y.Z.w.z z `. +.+++^   ^ @+#+#+#+#+$+l %+&+    ",
"              . *+=+-+g.    . . y z   ;+>+>+,+'+| )+!+~+{+]+    ",
"                  (.^+                /+(+_+:+      <+_+/+[+    ",
"                                        }+|+1+      2+|+3+4+    ",
"                                      *+5+6+7+q     8+6+6+9+^+  ",
"                                      0+a+b+c+d+e+f+a+g+h+i+    ",
"                                        j+k+l+t.t.m+t.n+        ",
"                                            o+L.p+q+r+s+        ",
"                                            t+u+v+  w+z         ",
"                                                                ",
"                                                                "};
