/* XPM */
static char * syntayhighlighting_mini_xpm[] = {
"32 32 426 2",
"  	c None",
". 	c #3178AB",
"+ 	c #2F74A5",
"@ 	c #2D709F",
"# 	c #2C6C99",
"$ 	c #2A6893",
"% 	c #28638D",
"& 	c #265E86",
"* 	c #337CB0",
"= 	c #3178AA",
"- 	c #2F73A4",
"; 	c #2D6F9D",
"> 	c #2B6B97",
", 	c #296691",
"' 	c #28628B",
") 	c #265E85",
"! 	c #245A7E",
"~ 	c #225578",
"{ 	c #327AAE",
"] 	c #3076A7",
"^ 	c #2E72A1",
"/ 	c #2C6E9B",
"( 	c #2A6995",
"_ 	c #29658E",
": 	c #276188",
"< 	c #255C82",
"[ 	c #23587C",
"} 	c #225376",
"| 	c #204F70",
"1 	c #1E4A6A",
"2 	c #3179AB",
"3 	c #2A6792",
"4 	c #28638C",
"5 	c #275E86",
"6 	c #255A80",
"7 	c #245679",
"8 	c #225173",
"9 	c #204C6D",
"0 	c #1E4867",
"a 	c #1C4461",
"b 	c #1A405B",
"c 	c #3076A8",
"d 	c #2E73A3",
"e 	c #2B6A96",
"f 	c #2A6590",
"g 	c #286189",
"h 	c #275D83",
"i 	c #25597D",
"j 	c #245577",
"k 	c #225171",
"l 	c #204B6B",
"m 	c #1E4765",
"n 	c #1C435E",
"o 	c #1A3E58",
"p 	c #183A52",
"q 	c #16364C",
"r 	c #143044",
"s 	c #0B1A25",
"t 	c #091721",
"u 	c #08131B",
"v 	c #3279AC",
"w 	c #2C6D9B",
"x 	c #2B6894",
"y 	c #2A648D",
"z 	c #286088",
"A 	c #275C82",
"B 	c #25587C",
"C 	c #245476",
"D 	c #225070",
"E 	c #1F4B6A",
"F 	c #1D4663",
"G 	c #1C425D",
"H 	c #1A3E57",
"I 	c #183951",
"J 	c #16344A",
"K 	c #122C3E",
"L 	c #102737",
"M 	c #0E2230",
"N 	c #0C1E2B",
"O 	c #09161F",
"P 	c #071219",
"Q 	c #050D13",
"R 	c #3177A9",
"S 	c #2D709E",
"T 	c #2B6C98",
"U 	c #2A6691",
"V 	c #29628B",
"W 	c #285F85",
"X 	c #265B80",
"Y 	c #245779",
"Z 	c #225373",
"` 	c #214E6D",
" .	c #1F4A67",
"..	c #1C4561",
"+.	c #193C55",
"@.	c #17384F",
"#.	c #153449",
"$.	c #142F42",
"%.	c #122A3C",
"&.	c #102635",
"*.	c #0E212F",
"=.	c #0B1D29",
"-.	c #0A1923",
";.	c #08141D",
">.	c #061017",
",.	c #040C11",
"'.	c #03080C",
").	c #2F73A3",
"!.	c #2C6E9C",
"~.	c #2A6A96",
"{.	c #2A658F",
"].	c #275E83",
"^.	c #265A7E",
"/.	c #204D6B",
"(.	c #1E4865",
"_.	c #1C445F",
":.	c #1A3F59",
"<.	c #183B53",
"[.	c #153246",
"}.	c #132E40",
"|.	c #11293A",
"1.	c #0F2534",
"2.	c #0E202D",
"3.	c #0C1C27",
"4.	c #07131A",
"5.	c #060E14",
"6.	c #040A0E",
"7.	c #020608",
"8.	c #2D6D9B",
"9.	c #2A6894",
"0.	c #29638D",
"a.	c #275F86",
"b.	c #275C81",
"c.	c #25587B",
"d.	c #657A81",
"e.	c #B2A58E",
"f.	c #526A76",
"g.	c #1E4763",
"h.	c #1C435D",
"i.	c #193D56",
"j.	c #173950",
"k.	c #16354A",
"l.	c #112838",
"m.	c #0F2432",
"n.	c #0D1F2C",
"o.	c #0B1B25",
"p.	c #071118",
"q.	c #050D12",
"r.	c #03090C",
"s.	c #020406",
"t.	c #2B6A97",
"u.	c #275D84",
"v.	c #265A7F",
"w.	c #225273",
"x.	c #486575",
"y.	c #FFD4A0",
"z.	c #FFD7A4",
"A.	c #CBB696",
"B.	c #243845",
"C.	c #16354C",
"D.	c #153248",
"E.	c #132E42",
"F.	c #112A3B",
"G.	c #0F2535",
"H.	c #0E222F",
"I.	c #0C1D29",
"J.	c #08141C",
"K.	c #061016",
"L.	c #040C10",
"M.	c #03070A",
"N.	c #010304",
"O.	c #286590",
"P.	c #276189",
"Q.	c #265B83",
"R.	c #24577C",
"S.	c #235477",
"T.	c #215071",
"U.	c #1F4B6B",
"V.	c #33546A",
"W.	c #FFD5A1",
"X.	c #FED7A5",
"Y.	c #584B3B",
"Z.	c #878787",
"`.	c #EAECEE",
" +	c #9AA6AE",
".+	c #425562",
"++	c #0D202E",
"@+	c #0B1B27",
"#+	c #07121A",
"$+	c #020508",
"%+	c #353637",
"&+	c #656565",
"*+	c #266087",
"=+	c #245B80",
"-+	c #23567A",
";+	c #225274",
">+	c #204E6E",
",+	c #1E4A68",
"'+	c #1C4662",
")+	c #325163",
"!+	c #A48B6A",
"~+	c #707070",
"{+	c #FFFFFF",
"]+	c #E3E5E7",
"^+	c #A2A8AD",
"/+	c #71797E",
"(+	c #151D22",
"_+	c #353C40",
":+	c #383C3F",
"<+	c #202223",
"[+	c #979898",
"}+	c #FDFDFD",
"|+	c #343434",
"1+	c #204C6C",
"2+	c #1E4866",
"3+	c #1C4460",
"4+	c #1A405A",
"5+	c #4E5E65",
"6+	c #40372B",
"7+	c #EBEBEB",
"8+	c #FEFEFE",
"9+	c #B1B1B1",
"0+	c #A9A9A9",
"a+	c #FCFCFC",
"b+	c #7E7E7E",
"c+	c #AEAEAE",
"d+	c #454545",
"e+	c #000000",
"f+	c #0C0C0C",
"g+	c #DBDBDB",
"h+	c #7F7F7F",
"i+	c #215376",
"j+	c #204E6F",
"k+	c #1F4A69",
"l+	c #1D4664",
"m+	c #1B425E",
"n+	c #7F7C70",
"o+	c #FFD49F",
"p+	c #363431",
"q+	c #8F8F8F",
"r+	c #787878",
"s+	c #B6B6B6",
"t+	c #7A7A7A",
"u+	c #999999",
"v+	c #8A8A8A",
"w+	c #1F4D6E",
"x+	c #1B405B",
"y+	c #354854",
"z+	c #F2C694",
"A+	c #FFD29D",
"B+	c #353330",
"C+	c #545454",
"D+	c #3E3E3E",
"E+	c #B4B4B4",
"F+	c #818181",
"G+	c #404040",
"H+	c #0A0A0A",
"I+	c #D8D8D8",
"J+	c #4F4F4F",
"K+	c #6F2E37",
"L+	c #A31D18",
"M+	c #882324",
"N+	c #3E3343",
"O+	c #17374D",
"P+	c #1B3749",
"Q+	c #CEAB82",
"R+	c #FFCE96",
"S+	c #FFD09A",
"T+	c #45392B",
"U+	c #E5E5E5",
"V+	c #B0B0B0",
"W+	c #040404",
"X+	c #010101",
"Y+	c #9B9B9B",
"Z+	c #767676",
"`+	c #B2B2B2",
" @	c #F5F5F5",
".@	c #DFDFDF",
"+@	c #BBBBBB",
"@@	c #030303",
"#@	c #B01A11",
"$@	c #D96C46",
"%@	c #C7482F",
"&@	c #AF1911",
"*@	c #6A2429",
"=@	c #A68D6F",
"-@	c #FFC98F",
";@	c #FFCC93",
">@	c #FFCE97",
",@	c #B08F6A",
"'@	c #606060",
")@	c #E1E1E1",
"!@	c #DDDDDD",
"~@	c #E0E0E0",
"{@	c #2D2720",
"]@	c #4B4743",
"^@	c #B8B8B8",
"/@	c #EFEFEF",
"(@	c #2D100E",
"_@	c #AC1811",
":@	c #C23E29",
"<@	c #FFB978",
"[@	c #E48255",
"}@	c #BD3523",
"|@	c #FCBD83",
"1@	c #FFC78C",
"2@	c #FFC990",
"3@	c #6B5740",
"4@	c #6E6E6E",
"5@	c #D0D0D0",
"6@	c #34312E",
"7@	c #CDA476",
"8@	c #EEBC86",
"9@	c #90714F",
"0@	c #634D35",
"a@	c #71563B",
"b@	c #8F3020",
"c@	c #B01911",
"d@	c #AE1911",
"e@	c #D05A3B",
"f@	c #FFBC7C",
"g@	c #FFC285",
"h@	c #FFC589",
"i@	c #E4B582",
"j@	c #DFB382",
"k@	c #987A59",
"l@	c #302A24",
"m@	c #585858",
"n@	c #696969",
"o@	c #403F3F",
"p@	c #4C3E2D",
"q@	c #D9AD7D",
"r@	c #FFCA90",
"s@	c #FFC88D",
"t@	c #FFC386",
"u@	c #FEBD80",
"v@	c #B62519",
"w@	c #AB1810",
"x@	c #CC5236",
"y@	c #FFBA79",
"z@	c #FFC081",
"A@	c #FFC488",
"B@	c #BA9166",
"C@	c #3E3122",
"D@	c #CAA072",
"E@	c #FFCA91",
"F@	c #FECB92",
"G@	c #CCA375",
"H@	c #EEBD88",
"I@	c #FFC88E",
"J@	c #FFC182",
"K@	c #E68A5C",
"L@	c #B42116",
"M@	c #EC925F",
"N@	c #FEB777",
"O@	c #F9AD70",
"P@	c #D96E4A",
"Q@	c #CB9A69",
"R@	c #070504",
"S@	c #AD865D",
"T@	c #FFC68B",
"U@	c #FFC78B",
"V@	c #FFC68A",
"W@	c #FFC487",
"X@	c #FFC082",
"Y@	c #FEBD7E",
"Z@	c #BF3926",
"`@	c #B21C13",
" #	c #B11A12",
".#	c #EF9B65",
"+#	c #FFBD7D",
"@#	c #59422C",
"##	c #6D5237",
"$#	c #15100B",
"%#	c #CA9B6B",
"&#	c #FFC588",
"*#	c #FFC183",
"=#	c #FFC080",
"-#	c #FFBE7E",
";#	c #DB724B",
">#	c #AA1810",
",#	c #CD5336",
"'#	c #FEB978",
")#	c #674C32",
"!#	c #9C754E",
"~#	c #C89664",
"{#	c #3C2D1E",
"]#	c #896847",
"^#	c #F3B87D",
"/#	c #FFC284",
"(#	c #E0A972",
"_#	c #E5AC74",
":#	c #FFBD7C",
"<#	c #E98E5D",
"[#	c #B11C13",
"}#	c #CB4F34",
"|#	c #FCB373",
"1#	c #FFBB7A",
"2#	c #FFBC7B",
"3#	c #FEBD7D",
"4#	c #BE8D5D",
"5#	c #7A5A3C",
"6#	c #856342",
"7#	c #8E6A47",
"8#	c #926D48",
"9#	c #B48658",
"0#	c #FDBB7B",
"a#	c #B21E14",
"b#	c #A11710",
"c#	c #BC3020",
"d#	c #E88958",
"e#	c #FFB977",
"f#	c #FFBA78",
"g#	c #FFBB79",
"h#	c #F6A66B",
"i#	c #CC5135",
"j#	c #AD1911",
"k#	c #BD3321",
"l#	c #D76742",
"m#	c #E98B59",
"n#	c #F29E65",
"o#	c #F4A167",
"p#	c #ED955F",
"q#	c #DF784D",
"r#	c #C84A30",
"s#	c #A91810",
"                                                                ",
"                                                                ",
"                        . + @ # $ % &                           ",
"                    * = - ; > , ' ) ! ~                         ",
"                  { ] ^ / ( _ : < [ } | 1                       ",
"                2 + @ # 3 4 5 6 7 8 9 0 a b                     ",
"              c d ; e f g h i j k l m n o p q r         s t u   ",
"          v ] ^ w x y z A B C D E F G H I J r K L M N s O P Q   ",
"        R + S T U V W X Y Z `  ...b +.@.#.$.%.&.*.=.-.;.>.,.'.  ",
"        ).!.~.{.g ].^.j k /.(._.:.<.q [.}.|.1.2.3.t 4.5.6.7.    ",
"      @ 8.9.0.a.b.c.d.e.f.g.h.i.j.k.r K l.m.n.o.O p.q.r.s.      ",
"      t.3 ' u.v.7 w.x.y.z.A.B.C.D.E.F.G.H.I.-.J.K.L.M.N.        ",
"      O.P.Q.R.S.T.U.V.W.X.Y.Z.`. +.+1.++@+t #+5.6.$+%+&+        ",
"      *+=+-+;+>+,+'+)+W.!+~+{+{+{+{+]+^+/+(+_+:+<+[+}+}+|+      ",
"      ! ~ T.1+2+3+4+5+y.6+7+8+9+0+a+{+{+{+b+c+d+e+f+g+{+h+      ",
"      i+j+k+l+m+o p n+o+p+{+q+e+e+r+{+{+{+s+t+e+e+e+u+{+v+      ",
"      w+0 a x++.@.y+z+A+B+{+C+e+e+D+{+{+{+E+F+G+e+H+I+{+J+      ",
"      K+L+M+N+O+P+Q+R+S+T+U+V+W+X+Y+{+{+{+Z+`+ @V+.@{++@@@      ",
"      #@$@%@&@*@=@-@;@>@,@'@{+)@!@{+{+{+~@{@]@^@/@~@v+(@        ",
"    _@:@<@<@[@}@|@1@2@;@R+3@4@ @{+{+{+5@6@7@8@9@0@a@b@c@        ",
"    d@e@<@<@<@f@g@h@1@-@i@j@k@l@m@n@o@p@q@r@s@h@t@u@v@          ",
"    w@x@<@<@<@y@z@g@A@B@C@D@E@F@q@G@H@r@I@1@h@t@J@K@c@          ",
"      L@M@N@O@%@P@z@Q@R@S@T@1@s@I@I@s@U@V@W@g@X@Y@Z@_@          ",
"      _@c@`@ #c@.#+#@###$#%#A@&#h@h@A@W@g@*#=#-#;#&@            ",
"              >#,#'#)#!#~#{#]#^#/#/#*#(#_#-#:#<#[#              ",
"                &@}#|#1#2#3#4#5#6#7#8#9#0#1#[@a#b#              ",
"                  _@c#d#e#f#g#1#1#1#g#f#h#i#d@                  ",
"                    >#j#k#l#m#n#o#p#q#r#[#j#                    ",
"                          s#_@c@c@&@w@s#                        ",
"                                                                ",
"                                                                ",
"                                                                "};
