/* XPM */
static char * todo_mini_xpm[] = {
"32 32 420 2",
"  	c None",
". 	c #3D4E67",
"+ 	c #787878",
"@ 	c #7B7B7B",
"# 	c #414F64",
"$ 	c #6E6F70",
"% 	c #484F58",
"& 	c #6D6D6D",
"* 	c #6B6B6B",
"= 	c #707070",
"- 	c #405169",
"; 	c #A9B1BC",
"> 	c #D5D9DE",
", 	c #CCD1D7",
"' 	c #B0B7C1",
") 	c #7F848B",
"! 	c #4E5561",
"~ 	c #3E4E66",
"{ 	c #6B6C6C",
"] 	c #595C62",
"^ 	c #717171",
"/ 	c #000000",
"( 	c #9BA4B1",
"_ 	c #E9F0FA",
": 	c #C5D8F2",
"< 	c #BDD2F0",
"[ 	c #CBDCF3",
"} 	c #9B9FA6",
"| 	c #B9BABB",
"1 	c #D1D5DB",
"2 	c #939CAA",
"3 	c #6C7075",
"4 	c #424E61",
"5 	c #3F4E64",
"6 	c #515862",
"7 	c #090505",
"8 	c #A78787",
"9 	c #926868",
"0 	c #140B0B",
"a 	c #4C5B72",
"b 	c #DFE7F2",
"c 	c #B2CBEE",
"d 	c #B0CAED",
"e 	c #AFC9ED",
"f 	c #AEC8ED",
"g 	c #8F9EB2",
"h 	c #7E8894",
"i 	c #B7CDED",
"j 	c #D0DFF5",
"k 	c #888B8E",
"l 	c #B1B5B9",
"m 	c #9AA3B0",
"n 	c #5C6B80",
"o 	c #191F29",
"p 	c #8D6868",
"q 	c #EDD6D6",
"r 	c #BE6F6F",
"s 	c #7D3636",
"t 	c #A3ABB7",
"u 	c #C6D9F2",
"v 	c #B0C9EA",
"w 	c #A9C3E4",
"x 	c #B3CCEE",
"y 	c #ACC3E4",
"z 	c #7C838D",
"A 	c #6A6C70",
"B 	c #ADC8EC",
"C 	c #8B98AB",
"D 	c #828992",
"E 	c #B3C2D6",
"F 	c #DFE9F8",
"G 	c #D8DCE4",
"H 	c #616872",
"I 	c #423211",
"J 	c #AB7B36",
"K 	c #945D53",
"L 	c #AB5050",
"M 	c #790F0F",
"N 	c #010000",
"O 	c #46566E",
"P 	c #E7ECF3",
"Q 	c #BBD1F0",
"R 	c #B4CBEA",
"S 	c #8EA9C6",
"T 	c #829FBB",
"U 	c #819EBB",
"V 	c #93AFCD",
"W 	c #AFC8E9",
"X 	c #B3CBED",
"Y 	c #AFC8EA",
"Z 	c #8692A3",
"` 	c #848F9E",
" .	c #AEC9ED",
"..	c #A2B9DA",
"+.	c #262219",
"@.	c #E5CB8F",
"#.	c #FFDE93",
"$.	c #CB9321",
"%.	c #6E1B13",
"&.	c #2D0505",
"*.	c #8B95A4",
"=.	c #DBE7F7",
"-.	c #BFD3F0",
";.	c #BED3F0",
">.	c #BCD1F0",
",.	c #BBD0F0",
"'.	c #A6BEDC",
").	c #88A4C1",
"!.	c #83A0BD",
"~.	c #9BB6D5",
"{.	c #B4CCEE",
"].	c #3D4551",
"^.	c #AA8737",
"/.	c #FFE9B7",
"(.	c #F7B529",
"_.	c #D4932A",
":.	c #623D17",
"<.	c #0F1319",
"[.	c #DBDEE4",
"}.	c #C8DAF3",
"|.	c #B4CAE4",
"1.	c #87A3BD",
"2.	c #A0B8D3",
"3.	c #BCD1EE",
"4.	c #BFD4F0",
"5.	c #BCD2F0",
"6.	c #B8CFEE",
"7.	c #9EB8D5",
"8.	c #85A1BD",
"9.	c #819FBB",
"0.	c #607386",
"a.	c #5C440E",
"b.	c #FFE3A2",
"c.	c #FDBE30",
"d.	c #E1A028",
"e.	c #B07728",
"f.	c #100C07",
"g.	c #242D3C",
"h.	c #010101",
"i.	c #677488",
"j.	c #EEF3FB",
"k.	c #C7D9F2",
"l.	c #AAC1DA",
"m.	c #8CA6C0",
"n.	c #88A3BC",
"o.	c #8CA7C2",
"p.	c #ACC3DE",
"q.	c #C0D4F1",
"r.	c #BFD4F1",
"s.	c #BED3F1",
"t.	c #A5B8D4",
"u.	c #2A2414",
"v.	c #EFCB7B",
"w.	c #FFC84D",
"x.	c #EEAC26",
"y.	c #C8892B",
"z.	c #473010",
"A.	c #19202A",
"B.	c #1A212C",
"C.	c #DEE8F7",
"D.	c #CCDDF3",
"E.	c #CADBF3",
"F.	c #C9DAF3",
"G.	c #C8DAF2",
"H.	c #C0D3ED",
"I.	c #9FB7D0",
"J.	c #89A4BD",
"K.	c #88A2BC",
"L.	c #95AFC9",
"M.	c #B3C8E3",
"N.	c #2E3237",
"O.	c #C09943",
"P.	c #FFD87F",
"Q.	c #F8B625",
"R.	c #D69629",
"S.	c #8B5D21",
"T.	c #0A0C10",
"U.	c #2C3749",
"V.	c #0D1116",
"W.	c #44546C",
"X.	c #F1F3F5",
"Y.	c #D4E2F5",
"Z.	c #B0C4D9",
"`.	c #ACC1D7",
" +	c #CBDBF1",
".+	c #CEDEF4",
"++	c #CDDDF4",
"@+	c #CCDCF4",
"#+	c #B8CCE6",
"$+	c #3D4955",
"%+	c #816423",
"&+	c #FFE7B1",
"*+	c #FEBB26",
"=+	c #E4A327",
"-+	c #B87D2A",
";+	c #1C1409",
">+	c #2A3341",
",+	c #2A3546",
"'+	c #7E8A9A",
")+	c #F0F5FC",
"!+	c #D6E3F5",
"~+	c #D3E1F4",
"{+	c #B5C8DC",
"]+	c #94ACC1",
"^+	c #90A8BE",
"/+	c #94ACC2",
"(+	c #B5C8DE",
"_+	c #CEDEF3",
":+	c #CCDCF3",
"<+	c #7A8493",
"[+	c #443412",
"}+	c #FDEAC1",
"|+	c #FFC646",
"1+	c #F0AE26",
"2+	c #CB8B2A",
"3+	c #4E3412",
"4+	c #4B4C4E",
"5+	c #2C384A",
"6+	c #242E3D",
"7+	c #C1C6CE",
"8+	c #E5EEF9",
"9+	c #DAE6F7",
"0+	c #D9E6F7",
"a+	c #D8E5F6",
"b+	c #D7E4F6",
"c+	c #D6E3F6",
"d+	c #D0DEF1",
"e+	c #ACC0D5",
"f+	c #91AABF",
"g+	c #9AB1C7",
"h+	c #7C8794",
"i+	c #231D10",
"j+	c #EBDFC3",
"k+	c #FFD77B",
"l+	c #F9B725",
"m+	c #D99828",
"n+	c #7D541D",
"o+	c #2D2D2D",
"p+	c #7C8188",
"q+	c #48586F",
"r+	c #F6F8F9",
"s+	c #E0EAF8",
"t+	c #B6C7D8",
"u+	c #96ACBF",
"v+	c #9EB3C6",
"w+	c #C5D4E6",
"x+	c #DAE6F6",
"y+	c #D9E6F6",
"z+	c #D9E5F6",
"A+	c #DEE9F7",
"B+	c #E4EDF9",
"C+	c #B1B9C2",
"D+	c #080807",
"E+	c #9E8241",
"F+	c #FFDD91",
"G+	c #FEBB24",
"H+	c #E7A527",
"I+	c #9C6B21",
"J+	c #211F1B",
"K+	c #A9A9A9",
"L+	c #565F6B",
"M+	c #334156",
"N+	c #848E9E",
"O+	c #F5F8FD",
"P+	c #E3ECF9",
"Q+	c #E2EBF9",
"R+	c #D7E2F1",
"S+	c #AFC0D2",
"T+	c #A0B3C2",
"U+	c #9FB2C2",
"V+	c #C0CCD5",
"W+	c #F3F5F7",
"X+	c #FFFFFF",
"Y+	c #585858",
"Z+	c #837B68",
"`+	c #E0D3B2",
" @	c #C79D40",
".@	c #F2B025",
"+@	c #A3721F",
"@@	c #211E19",
"#@	c #9E9E9E",
"$@	c #B3B4B4",
"%@	c #364356",
"&@	c #3A4A61",
"*@	c #C6CBD2",
"=@	c #EFF4FB",
"-@	c #E8EFFA",
";@	c #E7EFF9",
">@	c #E6EEF9",
",@	c #ECF2FA",
"'@	c #FBFCFE",
")@	c #E5EAED",
"!@	c #B4C2CC",
"~@	c #8E9CA5",
"{@	c #302F2C",
"]@	c #E3D6B6",
"^@	c #D7C4A0",
"/@	c #8B6E47",
"(@	c #845E17",
"_@	c #33312D",
":@	c #A5A5A5",
"<@	c #B7B7B7",
"[@	c #969AA0",
"}@	c #3C4C65",
"|@	c #38485F",
"1@	c #4B5A72",
"2@	c #F9FAFB",
"3@	c #C3D0DD",
"4@	c #D1DCE7",
"5@	c #F7FAFD",
"6@	c #535455",
"7@	c #495C7A",
"8@	c #737A88",
"9@	c #826646",
"0@	c #2B241C",
"a@	c #353E45",
"b@	c #A3A6A9",
"c@	c #C7C7C7",
"d@	c #8E98A5",
"e@	c #8892A1",
"f@	c #FAFBFE",
"g@	c #F1F6FC",
"h@	c #ECF1F6",
"i@	c #C6D1D8",
"j@	c #A8B9C4",
"k@	c #BBC8D0",
"l@	c #ECF0F2",
"m@	c #C2C2C2",
"n@	c #313E52",
"o@	c #41526D",
"p@	c #202631",
"q@	c #4D4D4D",
"r@	c #A7A7A7",
"s@	c #AFB1B2",
"t@	c #9DA2A6",
"u@	c #DADADA",
"v@	c #FDFDFD",
"w@	c #5D6B80",
"x@	c #C2C7CF",
"y@	c #FAFCFE",
"z@	c #FCFDFE",
"A@	c #BBC8D1",
"B@	c #A8B8C2",
"C@	c #313234",
"D@	c #20242B",
"E@	c #565656",
"F@	c #BBBBBB",
"G@	c #D4D4D4",
"H@	c #F4F4F4",
"I@	c #E8EAED",
"J@	c #3A4A62",
"K@	c #43536B",
"L@	c #F6F7F8",
"M@	c #C4CFD7",
"N@	c #A8B8C4",
"O@	c #C2CDD5",
"P@	c #D8D8D8",
"Q@	c #A8A9A9",
"R@	c #808A91",
"S@	c #849099",
"T@	c #8896A0",
"U@	c #BDC6CC",
"V@	c #F9FAFA",
"W@	c #B1B8C2",
"X@	c #737F91",
"Y@	c #ABBBC6",
"Z@	c #D3DBE1",
"`@	c #FCFCFD",
" #	c #F7F7F7",
".#	c #F9F9F9",
"+#	c #FCFDFD",
"@#	c #D5DDE2",
"##	c #ACBCC6",
"$#	c #B9C6CF",
"%#	c #7A8697",
"&#	c #3C4D65",
"*#	c #ADB4BF",
"=#	c #D4DCE2",
"-#	c #B3C2CB",
";#	c #E3E9EC",
">#	c #FAFBFB",
",#	c #3B4B63",
"'#	c #D8DCE1",
")#	c #F4F6F7",
"!#	c #C3CFD6",
"~#	c #C1CDD5",
"{#	c #F2F5F6",
"]#	c #CACED5",
"^#	c #8691A0",
"/#	c #F0F1F3",
"(#	c #E6EBEE",
"_#	c #D6DEE3",
":#	c #8E97A6",
"<#	c #3F5069",
"[#	c #637185",
"}#	c #8994A3",
"|#	c #D6D9DF",
"1#	c #F9F9FA",
"2#	c #FEFEFE",
"3#	c #526178",
"4#	c #40516A",
"5#	c #606E83",
"6#	c #8791A1",
"7#	c #D3D7DD",
"8#	c #F7F8F9",
"9#	c #D0D5DB",
"0#	c #3B4C64",
"a#	c #394960",
"b#	c #5E6C81",
"c#	c #AAB2BC",
"d#	c #F5F6F7",
"e#	c #7B8698",
"f#	c #37475D",
"g#	c #3D4E66",
"h#	c #3F4F68",
"i#	c #5B697E",
"j#	c #647286",
"k#	c #3C4D66",
"l#	c #3A4B63",
"m#	c #3B4B64",
"                    . .         + @                             ",
"                  . . . . . # $ %   & + * =                     ",
"                . - ; > , ' ) ! . ~ { ]     ^       / /         ",
"              . . ( _ : < [ } | 1 2 3 4 . 5 6     7 8 9 0       ",
"              . a b c d e f g h i j k l m n . . o p q r s /     ",
"              . t u v w x c y z A B C D E F G H I J K L M N     ",
"            . O P Q R S T U V W X c Y Z `  ...+.@.#.$.%.&.      ",
"            . *.=.-.;.< >.,.'.).T !.~.X {.x ].^./.(._.:.<.<.    ",
"          . . [.}.|.1.2.3.4.;.< 5.6.7.8.9.0.a.b.c.d.e.f.g.h.    ",
"          . i.j.}.k.: l.m.n.o.p.q.r.s.< t.u.v.w.x.y.z.A.B./     ",
"          . ' C.D.[ E.F.G.k.H.I.J.K.L.M.N.O.P.Q.R.S.T.U.V.      ",
"        . W.X.Y.Z.`. +.+++@+[ E.F.}.#+$+%+&+*+=+-+;+>+,+        ",
"        . '+)+!+~+{+]+^+/+(+_+.+++:+<+[+}+|+1+2+3+4+5+6+        ",
"        . 7+8+9+0+a+b+c+d+e+f+^+g+h+i+j+k+l+m+n+o+p+5+          ",
"      . q+r+s+t+u+v+w+x+y+z+A+B+C+D+E+F+G+H+I+J+K+L+M+          ",
"      . N+O+B+P+Q+R+S+T+U+V+W+X+Y+Z+`+ @.@+@@@#@$@%@&@          ",
"      . *@=@-@;@>@,@'@X+X+)@!@~@{@]@^@/@(@_@:@<@[@}@|@          ",
"    . 1@2@j.3@4@5@X+X+X+X+X+X+6@7@8@9@0@a@b@<@c@d@.             ",
"    . e@f@g@h@i@j@j@k@l@X+X+m@n@o@p@q@r@s@t@u@v@w@}@            ",
"    . x@y@z@X+X+X+X+l@A@j@B@C@D@E@:@<@F@G@H@X+I@. J@            ",
"  . K@L@X+M@N@O@W+X+X+X+X+P@Q@R@S@T@U@V@X+X+X+W@.               ",
"  . X@X+X+X+X+)@!@N@Y@Z@`@X+ #.#X++#@###$#X+X+%#&#              ",
"  . *#X+X+X+X+X+X+X++#=#Y@N@-#;#X+X+X+X+X+X+>#q+,#              ",
". . '#X+X+X+X+X+X+X+X+X+X+X+)#!#j@j@~#{#X+X+]#.                 ",
". . ^#/#X+X+X+X+X+X+X+X+X+X+X+X+X+X+(#_#X+X+:#.                 ",
"  . . <#[#}#' |#1#X+X+X+X+X+X+X+X+X+X+X+X+2#3#,#                ",
"    ,#J@. . . . 4#5#6#*#7#8#X+X+X+X+X+X+X+9#. 0#                ",
"            a#,#&#. . . . <#b#` c#9#d#X+X+e#.                   ",
"                    f#&@,#g#. . . . h#i#j#. k#                  ",
"                              a#l#m#g#. . }@                    ",
"                                                                ",
"                                                                "};
