/* XPM */
static char * ueber_mini_xpm[] = {
"32 32 164 2",
"  	c None",
". 	c #000000",
"+ 	c #050000",
"@ 	c #030000",
"# 	c #010000",
"$ 	c #170000",
"% 	c #480000",
"& 	c #8C0000",
"* 	c #E60000",
"= 	c #940000",
"- 	c #D50000",
"; 	c #EF0000",
"> 	c #CB0000",
", 	c #B70000",
"' 	c #A40000",
") 	c #830000",
"! 	c #4D0000",
"~ 	c #400000",
"{ 	c #710000",
"] 	c #B40000",
"^ 	c #ED0000",
"/ 	c #FE0000",
"( 	c #FF0000",
"_ 	c #FC0000",
": 	c #F90000",
"< 	c #CF0000",
"[ 	c #910000",
"} 	c #440000",
"| 	c #E50000",
"1 	c #EB0000",
"2 	c #F50000",
"3 	c #F10000",
"4 	c #E00000",
"5 	c #800000",
"6 	c #3D0000",
"7 	c #C90000",
"8 	c #7E0000",
"9 	c #580000",
"0 	c #810000",
"a 	c #5F0000",
"b 	c #E90000",
"c 	c #510000",
"d 	c #B20000",
"e 	c #620000",
"f 	c #DC0000",
"g 	c #B60000",
"h 	c #FD0000",
"i 	c #E20000",
"j 	c #9B0000",
"k 	c #C40000",
"l 	c #F30000",
"m 	c #E70000",
"n 	c #B10000",
"o 	c #BF0000",
"p 	c #AA0000",
"q 	c #C80000",
"r 	c #6A0000",
"s 	c #F80000",
"t 	c #EA0000",
"u 	c #5C0000",
"v 	c #180000",
"w 	c #F20000",
"x 	c #DE0000",
"y 	c #C00000",
"z 	c #B80000",
"A 	c #B61010",
"B 	c #F04747",
"C 	c #D22626",
"D 	c #C70000",
"E 	c #E30000",
"F 	c #610000",
"G 	c #3B0000",
"H 	c #160000",
"I 	c #0E0000",
"J 	c #070000",
"K 	c #363535",
"L 	c #DFDDDD",
"M 	c #847171",
"N 	c #250000",
"O 	c #390000",
"P 	c #4B0000",
"Q 	c #7A0000",
"R 	c #A10000",
"S 	c #F70000",
"T 	c #2D0000",
"U 	c #AF0000",
"V 	c #450000",
"W 	c #262626",
"X 	c #969696",
"Y 	c #333333",
"Z 	c #1F0000",
"` 	c #8E0000",
" .	c #210000",
"..	c #010101",
"+.	c #0C0202",
"@.	c #5D0000",
"#.	c #060000",
"$.	c #790000",
"%.	c #D20000",
"&.	c #820000",
"*.	c #1E0000",
"=.	c #3E0000",
"-.	c #B50000",
";.	c #720000",
">.	c #4A0000",
",.	c #410000",
"'.	c #110000",
").	c #700000",
"!.	c #380000",
"~.	c #0B0000",
"{.	c #900000",
"].	c #570000",
"^.	c #E80000",
"/.	c #230000",
"(.	c #1B0000",
"_.	c #470000",
":.	c #0D0000",
"<.	c #850000",
"[.	c #7C0000",
"}.	c #5E0000",
"|.	c #EE0000",
"1.	c #220000",
"2.	c #200000",
"3.	c #4E0000",
"4.	c #F40000",
"5.	c #770000",
"6.	c #DB0000",
"7.	c #680000",
"8.	c #CC0000",
"9.	c #BB0000",
"0.	c #C60000",
"a.	c #780000",
"b.	c #430000",
"c.	c #120000",
"d.	c #150000",
"e.	c #270000",
"f.	c #320000",
"g.	c #300000",
"h.	c #370000",
"i.	c #F60000",
"j.	c #AC0000",
"k.	c #BC0000",
"l.	c #D10000",
"m.	c #DA0000",
"n.	c #080000",
"o.	c #2B0000",
"p.	c #C20000",
"q.	c #A00000",
"r.	c #9C0000",
"s.	c #CE0000",
"t.	c #5A0000",
"u.	c #CD0000",
"v.	c #950000",
"w.	c #920000",
"x.	c #DD0000",
"y.	c #D70000",
"z.	c #E10000",
"A.	c #860000",
"B.	c #760000",
"C.	c #D60000",
"D.	c #D00000",
"E.	c #C30000",
"F.	c #3A0000",
"G.	c #330000",
"                                                                ",
"                                                      .         ",
"                                  . .                           ",
"                                .     .                         ",
"                              .                           .     ",
"                              .                       .   .     ",
"                              .                                 ",
"                              .   .                             ",
"                              .                                 ",
"                            + @   #                             ",
".                     $ % & * = - ; > , ' ) ! ~       .         ",
"  .                 { ] ^ / ( _ : ( ( ( ( ( ; < [               ",
"                } , ^ > | ( 1 2 ( ( ( 3 4 : ( ( : 5             ",
"              6 7 _ 8 9 0 1 a 8 ( ( b 8 c d ( ( ( b 6           ",
"            e f ( ( g h i j k _ ( ( l ; m n ( ( ( ( o           ",
"            p ( ( ( / ( ( q r m ( ( ( ( ( s ( ( ( ( t u         ",
"          v w ( x y z n A B C D E 2 ( ( ( ( ( ( ( ( ( g         ",
"          F ( b G H I J K L M N O P Q R ; ( ( ( ( ( ( S T       ",
"          U m V . . . . W X Y . . . . . Z ` 3 ( ( ( ( h  .      ",
"          D y H . . . . . ..+.@.9 + . . . #.$.l ( ( ( b         ",
"        } %.&.. . . . . . . *.=.-.O . . . . + ;./ ( ( -.        ",
"        >.x ,.. . . . . . . '.).r !.. . . . . ~.i ( ( {.        ",
"        ].^.% . . . . .  ./.. (._.:.. . . . . . <./ h [.        ",
"        }.|.8 . . . . . 1.8 2.v # . . . . . . . 3.4.|.5.        ",
"        % 6.] :.. . . . . v 7.;.~.. . . . . . . $.( 8.          ",
"          9.- T . . . . . . . . . . . . . . . . 0.( a.          ",
"          ) ( w {.b.c.d.e.f.g.J . . . . . . . h.i.j.            ",
"            o ( / b k.o l.f m.0 n.. . . . . o.p.q.o.            ",
"             .r.h ( ( ( ( ( ( ( s.a.T v h.t.u.v.                ",
"                w.x.( ( ( ( ( ( ( / y.p.z.: A.                  ",
"                  . O B.] - i f C.D.l.s.E.5.                    ",
"                        H F.! % V ~ =.f.G.                      "};
